<svg version="1.1" xmlns="http://www.w3.org/2000/svg" viewBox="0 0 1431.8999938964844 619.2084878670053" width="1431.8999938964844" height="619.2084878670053">
  <!-- svg-source:excalidraw -->
  
  <defs>
    <style class="style-fonts">
      @font-face {
        font-family: "Virgil";
        src: url("https://excalidraw.com/Virgil.woff2");
      }
      @font-face {
        font-family: "Cascadia";
        src: url("https://excalidraw.com/Cascadia.woff2");
      }
    </style>
    
  </defs>
  <g stroke-linecap="round" transform="translate(1052.5 31.016391782835115) rotate(0 54.5 30.5)"><path d="M0 0 C0 0, 0 0, 0 0 M0 0 C0 0, 0 0, 0 0 M-0.78 6.53 C1.65 4.87, 3.74 2.37, 5.35 0.65 M-0.54 6.15 C1.78 4.76, 3.11 2.33, 4.65 0.61 M1.26 13.59 C2.8 6.05, 9.58 2.83, 10.6 0.22 M0.8 11.79 C1.57 9.03, 4.06 6.37, 11.11 -0.13 M-1.9 16.71 C4 11.64, 13.45 2.6, 16.18 0.44 M0.43 18.31 C4.82 13.04, 9.45 7.1, 16.2 1.09 M-0.97 23.97 C4.02 15.93, 12.12 11.64, 22.37 -0.61 M-0.45 24.1 C5.46 17.72, 10.88 11.42, 20.31 -0.42 M-1.21 31.47 C8.74 20.65, 14.9 14.09, 27.87 1.19 M-0.32 30.19 C5.66 22.82, 12.18 15.13, 26.79 0.51 M-2.06 37.37 C10.06 28.02, 15.72 16.95, 31.57 1.18 M-0.58 35.94 C12.88 23.57, 25.41 9.68, 32.59 -0.77 M1.12 43.6 C10.88 29.97, 22.19 14.84, 37.27 1.03 M-0.76 43.17 C11.52 27.7, 24.7 13.59, 36.66 0.33 M1.02 47.2 C11.51 34.96, 23.83 24.17, 42.81 1.79 M-0.95 49.39 C12.38 36.24, 23.62 20.94, 41.76 -0.47 M-1.15 54.09 C15.44 34.08, 34.71 13.6, 48.81 -0.98 M1.27 54.52 C18.99 31.92, 36.26 10.61, 46.74 0.68 M1.14 62.18 C14.36 44.81, 31.44 28.34, 51.8 -0.24 M-0.84 61.88 C12.82 44.58, 27.28 29.63, 52.26 -0.26 M3.43 63.36 C20.17 45.85, 31.28 27.74, 56.97 1.67 M3.23 63.08 C24.33 40.49, 43.43 15.36, 57.17 -0.27 M9.8 64.63 C20.3 50.27, 33.66 34.07, 63.33 -1.97 M8.23 63.1 C25.25 43.75, 43.15 22.97, 64.21 0.69 M14.02 65.16 C24.99 51.94, 37.86 37.06, 68.37 0.86 M12.95 64.19 C30.7 44.41, 47.61 24.74, 68.31 0.69 M17.49 65.34 C38.09 41.45, 61.41 15.03, 73.3 -2.06 M17.76 64.87 C34.67 45.12, 50.23 27.55, 74.41 -0.25 M23.79 62.79 C36.77 50.23, 48.11 36.48, 79.69 -0.1 M23.79 62.84 C45.38 41.12, 64.49 17.69, 79.7 0.84 M27.39 63.51 C45.85 47.26, 58.72 30.14, 86.69 1.26 M29.14 64.02 C43.47 45.05, 60.4 29.01, 85.4 -0.16 M34.83 62.87 C55.06 40.69, 73.08 17.69, 91.71 -0.5 M34.73 62.49 C56.49 39.59, 77.98 14.69, 89.08 0.5 M41.41 64.73 C55.94 48.75, 67.07 32.92, 95.59 0.13 M40.55 63.45 C51.66 49.89, 63.06 36.79, 96.41 0.41 M44.36 62.44 C68.24 37.63, 88.77 13.8, 99.32 -0.24 M45.44 63.19 C66.7 41.35, 86.51 17.41, 101.43 0.01 M51.55 61.98 C66.48 44.64, 80.35 26.66, 105.18 -0.87 M51.38 64.08 C66.54 45.01, 85.44 24.32, 106.37 0.49 M54.68 62.94 C66.92 49.12, 76.9 39.18, 108.82 -1.03 M55.27 62.5 C73.98 44.14, 92.15 23.08, 111.24 1.55 M61.92 65.66 C76.94 46.49, 94.94 26.94, 109.15 8.78 M61.23 63.87 C71.96 51.72, 82.14 39.31, 110.35 7.16 M67.17 64.22 C78.04 50.14, 88.24 37.66, 111.45 13.36 M66.32 62.55 C78.06 48.45, 91.15 33.99, 111.03 13.89 M70.7 65.57 C79.58 55.33, 90.51 44.67, 111.51 17.44 M70.89 62.85 C83.39 52.82, 93.31 39, 110.32 18.52 M76.34 62.54 C89.07 48.87, 100.95 36.47, 111.52 24.45 M78.34 62.98 C87.82 52.23, 97.22 40.24, 110.52 24.71 M84.18 64.92 C92.12 50.11, 105.32 39.94, 108.64 30.36 M83.37 64.07 C88.83 56.09, 94.07 49.51, 110.26 31.69 M87.76 64.54 C95.96 54.58, 103.34 45.6, 111.63 38.72 M87.82 64.03 C96.23 54.02, 104.26 45.52, 110.82 37.29 M94.74 62.32 C96.28 60.86, 100.12 54.61, 109.43 42.49 M92.88 64.65 C98.51 57.28, 103.58 52.35, 109.24 44.62 M99.96 61.5 C103.64 58.03, 105.31 54.42, 111.06 51.17 M98.91 63.43 C102.89 59.47, 106.56 53.38, 109.96 49.3 M103.26 62.71 C104.83 60.62, 108.04 60.45, 111.05 56.51 M103.75 63.19 C106.18 61.05, 107.92 58.73, 110.64 55.81" stroke="#868e96" stroke-width="0.5" fill="none"></path><path d="M-1.26 1.52 C41.77 -1.08, 86.64 0.04, 108.35 -0.15 M-0.57 -0.76 C28.56 -0.67, 56.94 0.45, 109.81 -0.01 M110.53 -1.61 C107.86 17.04, 107.98 35.81, 110.03 59.49 M108.11 -0.81 C110.39 21.19, 108.78 41.99, 108.98 60.22 M108.6 59.79 C72.23 58.81, 35.51 60.28, -1.04 62.63 M109.08 60.82 C71.81 59.4, 33.93 59.24, -0.06 60.92 M-1.39 61.96 C-1.63 45.82, -1.32 30.3, 0.45 0.47 M0.17 60.04 C-1.5 40.55, -0.11 20.87, 0.73 0.77" stroke="#1e1e1e" stroke-width="1" fill="none"></path></g><g transform="translate(1082.0249996185303 44.016391782835115) rotate(0 24.975000381469727 17.5)"><text x="24.975000381469727" y="0" font-family="Virgil, Segoe UI Emoji" font-size="28px" fill="#1e1e1e" text-anchor="middle" style="white-space: pre;" direction="ltr" dominant-baseline="text-before-edge">Pod</text></g><g stroke-linecap="round" transform="translate(1054 110.51639178283511) rotate(0 54.5 30.5)"><path d="M0 0 C0 0, 0 0, 0 0 M0 0 C0 0, 0 0, 0 0 M-0.65 6.9 C1.01 5.05, 2.76 3.74, 4.28 -0.17 M-0.22 6.16 C1.04 4.7, 2.5 3.59, 4.62 -0.02 M-0.88 11.36 C3.75 10.21, 4.06 7.47, 11.03 -1.35 M0.45 12.29 C3.32 8, 5.76 5.74, 10.36 0.21 M1.14 17.11 C5.47 13.98, 10.37 7.83, 16.51 0.75 M-0.73 19.04 C3.5 14, 8.49 8.81, 15.59 0.51 M0.09 23.74 C4.31 19.23, 9.58 12.82, 22.74 -1.62 M0.64 23.3 C4.73 19.17, 11.02 11.47, 21.13 -0.1 M-0.64 31.55 C7.37 20.97, 16.97 12.36, 27.76 -1.03 M-0.87 29.89 C7.79 20.14, 17.01 11.68, 25.76 0.31 M0.23 36.86 C8.19 24.41, 22.29 13.35, 31.26 0.94 M0.21 37.57 C11.62 22.97, 23.28 7.8, 32.77 0.54 M1.63 43.24 C12.35 27.54, 26.33 13.29, 37.36 -1.46 M-0.06 42.38 C14.19 24.98, 28.62 10.29, 37.18 0.43 M-1.9 50.76 C9.95 39.95, 19.05 30.08, 41.85 0.82 M-0.46 49.83 C13.04 34.41, 25.09 20.02, 42.52 -0.3 M-1.72 55.85 C16.36 32.8, 35.63 12.92, 46.81 0.73 M-0.55 54.61 C11.24 41.36, 23.08 29.79, 48.12 0.03 M-0.34 60.33 C21.11 36.18, 40.46 13.43, 51.82 -1.8 M0.7 60.57 C13.97 46.27, 25.23 31.99, 53.88 -0.06 M2.34 63.45 C17.91 44.2, 35.87 23.51, 56.67 1.19 M2.22 62.66 C14.24 49.22, 25.97 37.81, 57.56 0.82 M6.5 65.03 C28.39 42.51, 46.81 19.2, 64.53 0.72 M8.97 62.99 C20.9 49.14, 34.64 33.67, 63.55 -0.13 M15.56 64.49 C30.47 45.74, 47.24 25.62, 68.64 -0.01 M14.64 63.69 C33.47 39.47, 53.23 16.77, 68.18 0.07 M20.16 63.86 C39.21 40.97, 61.29 15.91, 75.47 1.38 M18.23 62.96 C37.85 40.68, 59.05 20.06, 74.45 -0.85 M22.67 61.91 C39.16 44.54, 55.56 26.05, 79.46 -0.4 M24.18 62.96 C45.62 40.06, 65.25 17.42, 79.36 -0.42 M27.92 63.18 C49.88 43.62, 65.1 20.08, 86.19 0.63 M29.68 63.87 C41.67 51.88, 52.35 38.04, 84.68 -0.51 M34.36 65.03 C48.76 48.01, 64.22 29.78, 91.02 -1.1 M35.4 62.75 C54.31 40.87, 74.77 16.99, 90.2 0.71 M40.76 62.74 C61 40.7, 77.59 21.94, 94.36 0.28 M40.83 63.63 C55.06 47.82, 70.79 29.02, 96.55 -0.36 M45.4 64.55 C58.31 48.02, 70.25 35.19, 100.27 -0.83 M45.04 64.37 C63.48 42.47, 81.6 22.33, 100.48 -0.65 M48.76 64.71 C63.29 46.79, 76.04 31.45, 107.72 1.57 M49.93 64.71 C71.6 38.28, 93.01 14.95, 105.59 0.4 M56.69 62.57 C78.98 39.04, 98.44 17.35, 112.59 -1.13 M57.06 63.18 C74.2 42.77, 93.77 21.73, 111.04 1.7 M63.11 63.65 C77.82 43.98, 91.97 26.2, 111.57 6.71 M60.89 63.12 C72.14 51.52, 84.86 37.91, 110.96 7.16 M65.19 62.63 C82.68 43.08, 101.2 25.81, 111.3 13.42 M67.61 63.59 C77.37 50.86, 89.58 36.14, 110.24 13.09 M70.06 64.53 C86.94 46.89, 101.44 33.44, 110.47 18.71 M72.37 63.41 C81.12 52.35, 90.95 40.6, 110.2 18.79 M77.97 63.65 C88.49 52.48, 94.81 42.3, 109.78 26.48 M78.07 64.05 C86.97 52.9, 97.42 41.34, 111.13 26.22 M80.98 64.74 C93.72 52.04, 101.11 39.69, 110.4 32.52 M82.68 63.68 C92.48 53.03, 103.19 40.29, 110.38 31.7 M86.18 61.96 C97.9 53.98, 104.27 45.09, 108.71 37.72 M87.99 64.06 C92.56 59, 96.41 52.97, 109.67 37.93 M94.33 64.05 C98.71 57.21, 103.35 55.44, 110.82 43.75 M92.89 64.59 C100.37 56.98, 104.94 49.82, 109.18 43.64 M99.05 61.5 C101.08 57.7, 107.27 53.98, 110.51 50.38 M98.2 63.19 C102.95 60.03, 105.67 54.64, 110.19 49.84 M104.68 63.15 C105.38 63.04, 105.58 60.69, 109.76 55.62 M103.7 63.98 C105.05 61.52, 106.63 59.79, 110.34 55.61" stroke="#868e96" stroke-width="0.5" fill="none"></path><path d="M0.04 -0.66 C36.84 0.78, 78.81 1.45, 107.39 0.21 M-0.47 -0.67 C30.65 -1.83, 62.63 -0.29, 109.94 0.83 M108.63 1.28 C109.58 23.62, 107.61 46.18, 107.68 60.35 M109.66 -0.03 C108.34 20.15, 108.27 38.71, 108.58 61.12 M107.63 61.69 C79.82 58.91, 48.32 59.88, 0.91 62.52 M108.22 60.18 C73.87 61.25, 40.58 61.48, -0.51 60.13 M0.49 62.93 C-1.21 46.84, -1.66 33.35, 0.23 -1 M0.9 61.84 C1.36 38.7, 0.85 15.78, -0.98 -0.47" stroke="#1e1e1e" stroke-width="1" fill="none"></path></g><g stroke-linecap="round" transform="translate(1056.25 214.76639178283511) rotate(0 54.5 30.5)"><path d="M0 0 C0 0, 0 0, 0 0 M0 0 C0 0, 0 0, 0 0 M-1.02 6.25 C1.79 5.07, 2.32 3.54, 5.65 0.97 M-0.31 6.46 C0.84 4.36, 2.94 3.31, 5.13 0.41 M0.06 11.56 C4.91 7.3, 7.7 2.27, 11.98 -0.5 M-0.02 11.25 C4.33 7.83, 8.52 2.85, 9.88 0.3 M1.37 19.33 C5.71 14.97, 7.06 10.39, 15.54 0.76 M0.52 18.05 C3.24 14.32, 6.41 10.68, 16.36 1.05 M-0.92 23.08 C9.17 13.9, 16.3 5.48, 19.92 -0.36 M0.16 23.83 C8.77 16.18, 16.25 6.42, 22.03 -0.1 M1.02 28.66 C7.67 20.67, 13.33 12.14, 25.12 -0.23 M0.85 30.75 C7.08 22.11, 16.82 11.96, 26.32 1.12 M-1.76 36.41 C5.89 27.74, 11.38 22.98, 30.08 -1.91 M-1.16 35.97 C9.95 25.9, 20.74 13.33, 32.5 0.68 M0.89 44.41 C11.68 30.05, 25.55 15.25, 35.66 1.87 M0.2 42.62 C8.31 33.51, 15.74 24.28, 36.86 0.25 M0.24 49.77 C10.95 35.88, 20.98 23.59, 43.87 -0.34 M-0.62 48.09 C10.94 34.22, 23.84 19.98, 43.44 0.19 M-0.82 56.4 C9.97 43.87, 22.88 30.93, 48.51 -1.55 M-0.64 53.67 C14.25 41.03, 26.52 24.51, 47.33 -0.46 M-1.09 60.15 C19 38.4, 38.05 17.75, 54.43 -1.33 M0.91 60.6 C16.55 42.91, 32.07 23.86, 53.43 -1.07 M4.78 64.8 C23.19 38.27, 46.66 16.3, 56.14 -0.7 M3.98 63.95 C15.1 49.32, 26.12 36.08, 57.76 0.63 M7.7 65.18 C26.67 42.7, 44.71 21.47, 65.03 0.87 M7.76 64.67 C28.1 40.97, 48.24 18.53, 64.22 -0.56 M15.34 62.2 C26.14 50.08, 39.42 32.97, 68.09 -1.4 M13.48 64.53 C29.67 44.63, 45.71 27.09, 67.9 0.72 M20.05 61.94 C36.72 43.41, 51.12 24.97, 75.02 1.4 M18.89 64.08 C37.92 42.76, 56.37 19.46, 73.8 -0.68 M23.44 61.67 C38.44 44.14, 56.29 30.65, 81 0.96 M24.42 62.62 C44.09 41.26, 62.08 19.92, 80.19 -0.43 M31.08 62.94 C43.28 49.66, 58.16 31.05, 85.83 -1.19 M28.53 64.17 C42.62 48.93, 56.22 33.76, 85.33 0.22 M35.66 62.64 C53.08 40.42, 75.68 16.84, 88.62 -0.62 M34.41 64.44 C55 42.32, 73.67 20.14, 90.79 0.45 M39.68 62.06 C56.21 47.88, 69.19 32.18, 94.99 1.06 M39.29 64.79 C59.06 40.67, 78.71 18.16, 96.2 -1.18 M46.65 61.94 C59.36 50.97, 68.7 36.7, 99.77 1.28 M45.25 63.23 C58.38 47.46, 71.96 32.06, 100.55 -0.79 M51.78 63.57 C60.2 50.7, 73.4 37.56, 106.14 -0.48 M50.46 64.34 C66.99 44.93, 83.15 27.06, 106.98 -0.15 M57.17 63.8 C73.46 41.45, 94.05 21.08, 111.72 -0.79 M55.97 64.29 C73.65 43.36, 90.04 24.45, 111.37 -0.01 M62.45 64.17 C78.58 45.01, 95.16 23.77, 108.44 6.5 M61.03 64.77 C76.8 44.7, 93.34 25.91, 109.89 6.66 M68.06 61.88 C81.38 49.68, 93.8 32.39, 111.66 14.73 M67.79 63.97 C75.63 52.75, 85.21 40.43, 110.67 14.04 M69.83 62.96 C84.72 49.91, 97.25 35.51, 110.33 19.15 M72.69 64.56 C84.66 48.6, 96.73 35.13, 109.55 20.04 M78.27 65.23 C84.82 53.17, 94.53 41.35, 108.85 25.64 M77.13 62.65 C88.54 49.48, 100.14 36.24, 110.57 26 M81.16 63.44 C92.08 55.2, 96.96 45.38, 109.65 30.54 M82.85 63.76 C91.81 52.6, 102.93 41.39, 110.09 30.35 M86.83 64.3 C93.06 56.05, 99.43 50.61, 111.84 37.72 M88.63 63.79 C94.51 57.66, 100.35 50.92, 110.08 36.66 M94.76 63.53 C96.94 57.47, 100.31 56.48, 109.75 42.4 M93.61 62.97 C97.37 58.69, 101.48 54.72, 110.23 43.27 M98.85 64.78 C102.56 59.63, 108.74 53.39, 110.88 48.55 M98.16 62.9 C102.24 60.18, 105.53 56.73, 110.55 49.59 M102.88 64.59 C106.24 61.61, 107.43 60.34, 111.15 55.85 M103.23 63.97 C106.33 61.27, 108.03 58.52, 110.57 55.67" stroke="#868e96" stroke-width="0.5" fill="none"></path><path d="M0.4 -0.23 C31.36 -0.98, 57 -2, 107.84 1.48 M0.2 -0.5 C41.59 1.02, 80.92 -0.31, 108.03 -0.46 M110.79 0.68 C108.12 13.86, 109.11 25.43, 108.55 59.24 M109.21 -0.84 C108.86 20.07, 108.91 39.39, 109.42 61.9 M109.37 62.61 C85.43 61.94, 62.99 60.7, -0.4 61.71 M108.29 61.64 C75.63 62.18, 42.51 61.84, -0.46 61.54 M-1.16 62.43 C-1.17 39.62, 1.54 14.35, -1.12 -1.82 M-0.88 61.96 C0.05 42.68, -0.36 26.01, 0 -0.01" stroke="#1e1e1e" stroke-width="1" fill="none"></path></g><g stroke-linecap="round" transform="translate(1057.75 323.2663917828351) rotate(0 54.5 30.5)"><path d="M0 0 C0 0, 0 0, 0 0 M0 0 C0 0, 0 0, 0 0 M0.38 6.71 C1.11 5.02, 3.6 3.41, 4.78 0.73 M-0.57 6.05 C2.04 4.42, 3.77 1.97, 5.17 0.66 M1.37 11.52 C4.05 6.65, 8.54 3.49, 12.02 -0.35 M0.24 12.48 C3.41 8.82, 5.41 5.56, 10.19 -0.75 M1.7 19.55 C5.25 12.22, 12.01 4.6, 13.73 -0.35 M-0.06 18.19 C5.92 11.24, 12.83 5.04, 16.54 -0.67 M0.68 23.52 C7.36 15.89, 14.37 6.29, 22.49 -1.71 M0.99 24.91 C7.3 16.58, 13.85 9.39, 21.04 -0.24 M0.32 28.99 C5.56 20.99, 12.82 13.99, 26.45 1.66 M-0.85 31.37 C7.32 22.65, 13.5 15.5, 25.26 -0.05 M-0.72 35.18 C7.99 27.11, 17.07 13.45, 32.51 -1.72 M-0.99 37.84 C6.19 30.11, 14.06 22.57, 32.2 -0.86 M-0.81 44.25 C13.76 28.11, 24.81 13.81, 35.3 2.16 M0.6 42.5 C7.39 33.92, 15.11 25.2, 36.42 1.21 M0.57 48.56 C14.45 31.55, 30.72 14.5, 42.39 1.83 M-1.1 48.68 C12.92 33.78, 27.83 18.78, 41.85 0.62 M-0.6 56.49 C15.69 39.58, 29.7 20, 47.01 -0.61 M1.03 55.53 C10.48 43.24, 19.95 32.01, 48.03 -0.59 M-0.23 59.53 C12.1 47.2, 25.01 33.12, 53.18 -0.39 M0.47 61.04 C12.45 45.63, 25.78 30.29, 53.97 -0.85 M1.74 62.27 C18.24 47.33, 29.72 28.71, 56.44 0.99 M3.5 62.95 C18.57 44.17, 35.05 25.85, 58.32 -0.09 M8.73 63.56 C30.17 38.19, 51.48 16.24, 65.02 0.75 M8.23 63.78 C21.03 49.57, 33.99 34, 63.26 0.22 M12.73 65.51 C25.32 48.96, 39.47 31.28, 68.53 2 M14.38 62.78 C30.04 45.26, 43.68 28.17, 68.71 0.08 M20.26 62.6 C37.61 40.8, 58.41 20.54, 75.15 -1.27 M18.8 64.89 C40.21 37.91, 61.69 12.98, 74.13 -1.13 M22.87 61.66 C45 44.05, 64.21 21.09, 80.31 -1.1 M24.65 63.68 C45.02 39.99, 68.05 13.92, 78.83 0.37 M29.9 65.01 C45.05 45.68, 58.28 30.1, 83.9 1.48 M29.63 64.39 C45.61 46.86, 60.95 28.65, 85.69 0.69 M33.61 63.49 C52.08 44.62, 65.66 25.75, 90.92 -0.46 M35.84 63.81 C48.76 48.07, 61.87 33.57, 89.5 -0.73 M41.9 63.53 C55.83 47.32, 68.62 31.98, 96.7 1.3 M39.98 63.33 C58.34 42.22, 76.65 21.22, 94.72 -1.18 M47.5 64.2 C63.89 41.83, 81.75 22.02, 99.57 1.19 M45.2 62.85 C60.14 46.23, 75.04 28.89, 99.76 0.31 M48.62 64.3 C67.27 44.5, 85.17 23.25, 106.06 0.92 M51.32 63.81 C72.15 40.34, 92.6 16.14, 106.76 -1.07 M54.18 63.39 C74.79 42.54, 95.27 17.68, 110.93 1.29 M56.68 63.06 C72.26 44.74, 89.46 24.86, 111.2 -0.17 M60.48 64.88 C70.59 50.57, 81.78 36.65, 111.04 7.02 M60.33 63.96 C79.02 42.31, 97.73 20.25, 110.44 7.81 M68.4 65.06 C81.03 47.5, 95.7 33.06, 108.55 13.23 M65.92 64.22 C82.36 43.19, 100.83 24.54, 110.41 13.76 M72.04 64.21 C80.04 55.69, 87.65 45.89, 110.97 18.11 M71.89 62.97 C82.3 50.64, 92.96 38.35, 110.32 20.2 M75.97 63.62 C84.56 52.6, 92.42 44.06, 111.11 25.68 M77.29 62.67 C89.86 48.67, 102.13 36.07, 110.18 25.96 M83.9 64.68 C88.57 55.38, 97.38 44.93, 111.59 31.6 M82.06 64.09 C93.84 51.95, 102.95 38.39, 109.93 30.9 M87.84 61.9 C95.48 55.07, 102.16 48.93, 109.54 38.28 M88.83 64.3 C95.57 56.25, 101.22 46.57, 109.71 36.9 M92.81 62.04 C97.02 59.9, 102.51 50.55, 109.13 44.61 M93.15 63.6 C97.91 58.88, 103.13 51.43, 110.96 44.54 M98.08 64.92 C103.86 59.03, 107.38 52.46, 109.63 49.37 M99.25 63.5 C102.34 60.43, 104.18 57.06, 110.09 50.28 M104.62 63.55 C106.45 61.56, 109.11 58.2, 110.57 56.23 M104.16 63.73 C105.18 61.8, 106.93 59.89, 110.5 56.55" stroke="#868e96" stroke-width="0.5" fill="none"></path><path d="M1.98 -0.3 C37.72 -1.2, 77.81 1.61, 110.51 0.2 M0.68 0.38 C25.35 -0.41, 51.55 0.08, 108.22 -0.63 M108.5 0.33 C110.04 14.06, 109.09 29.65, 109.41 61.8 M108.62 0.53 C108.79 20.48, 109.55 41.26, 108.15 61.64 M108.88 62.67 C84.45 62.3, 57.7 62.59, 0.1 59.8 M108.86 61.52 C69.7 61.88, 30.01 62.24, 0.7 60.91 M-1.23 62.16 C1.84 42.18, -0.76 24.64, -0.27 0.76 M0.28 60.16 C0.41 47.42, 0.54 33.89, -1 -0.32" stroke="#1e1e1e" stroke-width="1" fill="none"></path></g><g stroke-linecap="round" transform="translate(1058.25 400.7663917828351) rotate(0 54.5 30.5)"><path d="M0 0 C0 0, 0 0, 0 0 M0 0 C0 0, 0 0, 0 0 M0.23 6.78 C0.38 4.72, 2.81 3.63, 4.86 0.49 M-0.47 6.57 C1.39 4.56, 3.25 1.86, 5.38 0.1 M-0.06 13.52 C3.3 7.86, 8.65 5.32, 9.4 1.37 M0.09 11.98 C3.78 8.97, 5.66 5.49, 10.11 -0.19 M0.61 17.41 C5.71 14.15, 8.23 9.34, 17.58 -0.04 M-0.4 17.55 C4.05 13.92, 6.3 9.47, 14.69 1.04 M1.18 22.86 C10.2 14.7, 14.91 5.59, 21.6 -1.49 M-0.31 24.34 C7.52 16.05, 15.34 6.41, 21.83 0.91 M-1.13 32.23 C4.81 22.92, 11.26 18.92, 27.28 1.1 M0.65 31.45 C10.18 18.84, 20.14 5.94, 26.25 0.89 M0.64 36.33 C7.6 25.73, 19.73 18.34, 32.55 1.08 M-0.78 36.07 C8.71 25.58, 17.8 15.63, 31.73 0.49 M1.17 44.13 C11.46 28.68, 23.69 17.69, 35.86 0.52 M-0.81 41.65 C9.59 32.72, 17.72 22.47, 37.25 0.24 M-1.21 50.06 C11.17 34.56, 23.14 20.95, 41.34 -0.74 M-1.02 49.18 C11.09 37.24, 21.82 22.99, 42.77 -0.37 M0.03 55.82 C17.95 35.78, 33.84 18.84, 47.51 2.01 M0.73 53.84 C17.49 35.33, 34.23 14.2, 47.5 0.1 M0.3 61.48 C18.95 38.73, 40.08 17.91, 52.45 -0.68 M0.58 60.02 C17.24 40.9, 36.47 18.8, 53.7 -1.01 M3.7 63.43 C21.88 44.25, 39.08 23.62, 58.51 -1.23 M3.1 64.22 C21.62 43.67, 38.79 23.01, 58.98 0.54 M6.46 63.61 C25.26 47.29, 40.5 25.25, 65.47 -2.08 M8.31 64.14 C21.16 46.03, 36.24 30.47, 64.02 -0.2 M14.13 62.45 C32.18 43.9, 52.66 20.84, 67.24 -0.56 M13.47 64.54 C31.27 43.38, 50.19 22.11, 68.91 -0.34 M19.52 63.98 C34.62 47.03, 45.98 31.07, 73.07 0.13 M18.58 64.26 C29.63 49.94, 41.11 38.19, 74.9 -1.2 M25.24 63.87 C44.55 43.35, 61.59 20.58, 80.18 2.02 M23.59 63.16 C43.52 41.43, 63.31 19.98, 78.69 0.63 M28.44 64.51 C42.97 48.78, 57.9 33.01, 87.02 1.41 M28.61 63.12 C51 40.42, 72.62 14.59, 84.23 -0.7 M33.93 64.05 C56.87 39.81, 77.5 13.65, 89.89 -0.06 M35.77 63.97 C56.76 39.38, 78.46 14.35, 90.94 0.64 M38.93 63.49 C57.03 41.44, 76.38 22.34, 96.18 1.64 M39.44 64.49 C58.21 42.47, 76.68 23.59, 95.59 0.16 M46.19 63.73 C62.94 39.2, 85.55 20.32, 101.03 0.03 M46.05 64.37 C60.44 45.91, 74.53 29.78, 100.47 -0.04 M48.76 64.64 C66.96 43.28, 85.19 21.44, 104.52 -0.88 M50.33 63.19 C68.86 43.14, 86.3 22.11, 107.28 -1.23 M55.1 62.09 C70.51 48.35, 85.78 31, 111.7 1.29 M57.15 64.33 C77.05 39.61, 97.25 16.37, 110.65 1.63 M61.82 63.06 C77.2 46.16, 92.3 26.44, 110.51 8.08 M61.73 64.06 C71.83 51.29, 82.18 38.73, 110.73 7.64 M66.83 62.68 C77.73 48.35, 89.88 36.5, 110.9 14.69 M67.5 63.36 C81.62 47.63, 96.31 29.97, 109.85 14.32 M70.07 63.29 C85.54 44.47, 100.28 30.69, 108.94 18.61 M72.31 63.02 C80.14 53.28, 89.08 44.02, 111.26 19.23 M78.66 63.48 C90.4 49.2, 99.48 35.27, 110.73 26.44 M78.24 63.52 C88.37 50.09, 101.27 37.14, 110.64 26.6 M83.59 65.23 C91.06 54, 98.24 45.45, 108.96 31.66 M81.91 64.03 C90.32 55, 99.34 44.57, 111.21 32.06 M88.94 62.88 C95.97 54.52, 101.18 49.45, 111.56 37.75 M88.21 62.4 C93.64 57.37, 100.13 49.27, 110.01 37.64 M92.53 62.24 C96.64 58.26, 99.86 53.94, 110.26 43.92 M92.61 64.09 C98.13 57.18, 103.54 50.58, 111.03 44.47 M99.09 61.81 C102.63 59.65, 107.02 53.43, 108.73 48.62 M98.92 64.07 C102.15 59.76, 105.63 55.67, 110.75 49.93 M104.41 63.34 C106.72 61.38, 107.68 59.55, 110.91 55.14 M103.68 63.94 C106.22 60.62, 108.75 57.93, 110.54 56.09" stroke="#868e96" stroke-width="0.5" fill="none"></path><path d="M-1.58 1.91 C35.83 -0.76, 75.7 0.04, 108.96 -0.45 M-0.46 0.95 C33.99 0.19, 67.47 0.35, 108.82 -0.07 M108.87 1.96 C109.69 16.81, 107.75 33.64, 108.52 59.82 M108.32 0.76 C109.54 17.25, 110.48 35.16, 109.97 61.53 M108.5 60.17 C65.54 58.22, 24.09 61.55, 1.93 61.07 M109.53 60.19 C82.1 59.7, 56.39 60.13, -0.71 61.03 M0.03 60.79 C-1.49 46.09, -1.11 28.5, 0.16 -0.07 M0.82 60.32 C-0.51 46.85, 0.44 30.3, -0.66 0.57" stroke="#1e1e1e" stroke-width="1" fill="none"></path></g><g stroke-linecap="round" transform="translate(1059.75 480.2663917828351) rotate(0 54.5 30.5)"><path d="M0 0 C0 0, 0 0, 0 0 M0 0 C0 0, 0 0, 0 0 M-0.84 6.2 C2.14 4.41, 3.28 2.23, 5.49 0.71 M-0.48 6.73 C0.89 4.59, 2.94 2.92, 5.1 0.22 M-0.2 11.76 C4.05 10.41, 3.59 7.98, 10.56 -1.43 M0.57 12.6 C3.1 8.38, 7.11 3.27, 10.28 0.21 M1.73 18.92 C6.17 11.91, 13.8 4.31, 14.21 -0.9 M0.32 18.01 C3.04 13.22, 7.07 10, 16.58 1.13 M2.08 24.35 C5.56 16.66, 14.87 6.26, 22.75 1.51 M-0.15 24.98 C5.08 18.42, 11.26 13.17, 20.31 0.32 M-0.45 28.99 C7.45 23.28, 14.56 15.7, 28.11 0.87 M-0.06 30.85 C8.56 19.02, 18.15 9.73, 26.02 -0.41 M-1.56 35.86 C10.02 29, 17.28 18.54, 31.87 1.42 M-0.63 36.76 C9.88 25.68, 21.45 12.81, 31.82 -0.44 M0.56 41.3 C15.38 26.79, 25.99 11.32, 35.93 1.31 M0.54 43.07 C7.6 34.83, 16.54 24.85, 36.63 -0.19 M-0.79 48.33 C15.12 30.25, 29.78 12.62, 41.68 -0.35 M0.03 49.54 C9.43 37.23, 19.02 27.34, 42.96 -0.22 M1.68 54.41 C15.26 39.91, 28.04 24.18, 48.73 1.57 M0.79 55.05 C15.32 36.53, 30.22 20.04, 48.14 0.77 M-0.04 60.55 C13.48 48.24, 22.82 33.17, 54.06 1.31 M-0.66 61.6 C11.67 47.54, 23.83 33.47, 53.19 -1.14 M4.54 63.3 C19.49 45.07, 32.55 28.44, 58.71 -0.77 M3.22 64.21 C15.95 48.25, 31.25 32.03, 57.99 0.97 M9.86 65.91 C29.67 39.27, 50.17 16.19, 62.98 0.92 M7.03 62.96 C26.79 41.69, 46.78 19.31, 64.16 -0.29 M13.48 65.33 C31.53 45.2, 44.73 25.48, 69.12 -1.75 M13.18 63.96 C35.84 37.98, 56.15 13.93, 68.3 -0.54 M20.04 63.3 C33.8 44.24, 50.66 25.56, 72.5 0.42 M18.43 63.28 C37.47 42.69, 57 19.24, 74.76 -0.73 M25.81 64.36 C38.68 45.94, 53.91 31.8, 80.33 -0.98 M24.08 62.89 C36.81 50.27, 47.19 37.57, 78.92 0.85 M29.37 64.99 C47.43 45.74, 65.39 26.42, 86.79 -0.88 M29.2 64.73 C40.83 51.28, 51.28 38.1, 86.02 -0.46 M34.82 64.59 C45.82 49.71, 59.09 35.58, 91.79 0.32 M35.44 63.56 C47.47 48.77, 59.8 35.58, 90.39 0.29 M38.44 62.63 C52.58 49.98, 67.13 35.53, 96.1 -0.22 M40.31 63.03 C57.29 45.85, 72.39 26.82, 96.23 0.59 M43.9 61.64 C61.93 47.7, 76.23 28.25, 100.06 1.35 M45.96 62.58 C56.79 49.34, 68.93 35.37, 100.94 0.48 M48.92 64.3 C65.74 44.51, 81.99 25.46, 106.78 -1.46 M50.44 63.45 C62.04 49.64, 75.79 35.49, 105.85 -0.5 M56.5 64.52 C76.28 42.73, 93.72 22.72, 112.13 0.44 M56.54 63.61 C77.23 38.61, 98.6 14.29, 110.88 1.42 M61.58 64.47 C74.55 47.17, 89.19 32.57, 108.7 6.49 M60.98 63.78 C77.54 43.58, 95.54 24.59, 110.01 6.96 M66.21 61.67 C81.81 46.01, 97.31 30.47, 110.89 14.95 M67.29 64.35 C78.37 50.45, 89.02 37.89, 111.01 13.21 M70.28 62.02 C83.71 50.28, 97.44 32.36, 109.03 17.57 M71.02 63.38 C82.9 50.76, 96.17 36.6, 111.19 20.14 M78.67 62.91 C83.35 53.75, 93.53 45.94, 111.32 24.43 M76.54 63.55 C88.47 51.32, 99.42 39.1, 109.84 26.36 M83.98 62.24 C90.13 54.43, 93.56 48.95, 110.33 31.63 M82.35 64.15 C91.11 54.11, 98.38 46.92, 110.41 30.76 M89.65 61.49 C93.62 57.76, 99.29 51.79, 109.7 38.46 M87.8 64.02 C93.25 57.29, 97.52 52.18, 109.77 38.52 M92.72 62.81 C95.5 59.19, 100.42 55.42, 110.67 43.18 M92.46 63.55 C96.88 58.12, 103.07 53.65, 110.31 44.84 M98.96 63.97 C102.76 58.49, 103.34 54.89, 110.09 48.42 M98.79 63.57 C103.06 58.44, 107.08 54.02, 110.55 49.17 M104.67 63.73 C106.07 61.36, 109.28 56.97, 111.21 55.98 M103.62 63.59 C105.36 61.76, 107.62 59.41, 110.47 56.15" stroke="#868e96" stroke-width="0.5" fill="none"></path><path d="M-1.91 0.12 C41.68 -0.12, 82.92 -1.49, 109.15 -0.03 M0.47 0.18 C33.06 -0.69, 65.1 -1.1, 108.92 0.67 M109.28 -0.99 C107.3 15.73, 108.48 34.18, 108.84 62.84 M108.98 -0.55 C109.51 19.87, 109.55 41.14, 109.81 61.5 M107.1 59.19 C84.18 62.06, 64.86 60.62, -1.21 60.64 M108.2 60.45 C83.38 60, 57.85 60.15, -0.26 61.64 M-1.1 62.8 C-0.72 47.14, 0.15 31.38, -1.07 0.55 M-0.35 61.88 C0.11 47.54, -1.15 35.95, 0.45 -1" stroke="#1e1e1e" stroke-width="1" fill="none"></path></g><g transform="translate(1233.5 558.0163917828352) rotate(0 94.19999694824219 17.5)"><text x="0" y="0" font-family="Virgil, Segoe UI Emoji" font-size="28px" fill="#1e1e1e" text-anchor="start" style="white-space: pre;" direction="ltr" dominant-baseline="text-before-edge">Pod Newtwork</text></g><g transform="translate(1083.5 125.01639178283511) rotate(0 24.975000381469727 17.5)"><text x="0" y="0" font-family="Virgil, Segoe UI Emoji" font-size="28px" fill="#1e1e1e" text-anchor="start" style="white-space: pre;" direction="ltr" dominant-baseline="text-before-edge">Pod</text></g><g transform="translate(1084.5 229.01639178283511) rotate(0 24.975000381469727 17.5)"><text x="0" y="0" font-family="Virgil, Segoe UI Emoji" font-size="28px" fill="#1e1e1e" text-anchor="start" style="white-space: pre;" direction="ltr" dominant-baseline="text-before-edge">Pod</text></g><g transform="translate(1084.5 335.0163917828351) rotate(0 24.975000381469727 17.5)"><text x="0" y="0" font-family="Virgil, Segoe UI Emoji" font-size="28px" fill="#1e1e1e" text-anchor="start" style="white-space: pre;" direction="ltr" dominant-baseline="text-before-edge">Pod</text></g><g transform="translate(1088.5 412.0163917828351) rotate(0 24.975000381469727 17.5)"><text x="0" y="0" font-family="Virgil, Segoe UI Emoji" font-size="28px" fill="#1e1e1e" text-anchor="start" style="white-space: pre;" direction="ltr" dominant-baseline="text-before-edge">Pod</text></g><g transform="translate(1089.5 491.0163917828351) rotate(0 24.975000381469727 17.5)"><text x="0" y="0" font-family="Virgil, Segoe UI Emoji" font-size="28px" fill="#1e1e1e" text-anchor="start" style="white-space: pre;" direction="ltr" dominant-baseline="text-before-edge">Pod</text></g><g stroke-linecap="round" transform="translate(746 59.516391782835115) rotate(0 98.5 40)"><path d="M0 0 C0 0, 0 0, 0 0 M0 0 C0 0, 0 0, 0 0 M0.4 5.83 C0.91 4.73, 2.78 2.63, 5.07 0.6 M-0.01 6.01 C1.28 4.62, 3.43 2.09, 5.35 0.03 M0.27 12.18 C3.21 8.94, 8.04 2.64, 9.06 1.56 M-0.65 11.67 C3.58 7.47, 7.87 4.02, 10.68 0.66 M-1.07 17.19 C3.23 15.07, 7.85 9.84, 17.4 1.46 M-0.46 18.21 C3.42 15.47, 6.45 10.2, 15.89 -0.26 M-0.69 23.35 C8.74 14.65, 12.78 9.28, 21.68 -1.43 M-0.08 23.5 C7.12 17.61, 11.71 10.64, 20.52 -0.38 M0 29.72 C6.84 25.31, 10.86 17.18, 27.95 1.36 M-0.11 30.8 C7.69 21.42, 16.4 13.78, 26.44 0.79 M-2.25 37.49 C11.01 22.51, 25.31 7.35, 31.01 -1.26 M-0.27 37.82 C7.61 27.36, 16.01 17.52, 31.65 0 M0.56 42.23 C6.57 31.52, 14.58 24.06, 37.89 -1.51 M0.48 42.52 C11.97 28.66, 25.04 13.58, 35.93 1.02 M-1.16 48.1 C9.89 39.51, 18.46 28.35, 44.15 -0.89 M0.85 49.81 C17.13 29.8, 32.86 11.3, 42.13 0.07 M0.99 56.48 C12.39 41.46, 23.27 27.84, 45.68 -0.2 M-0.1 53.89 C12.87 40.19, 23.58 26.75, 47.81 0.49 M1.27 59.97 C14.53 42.46, 33 21.82, 55.02 0.38 M0.63 60.73 C14.09 44.78, 28.27 28.82, 52.55 0.12 M-0.58 67.05 C15.07 46.57, 32.01 31.15, 57.18 -0.72 M0.65 66.38 C19.68 44.11, 38.65 22.4, 57.57 -0.04 M-0.22 72.26 C23.39 44.14, 50.35 15.26, 61.94 1.39 M1.11 73.76 C16.23 53.33, 33.69 35.32, 63.03 -0.38 M0.36 80.39 C28.73 46.46, 55.23 16.54, 67.66 0.06 M0.74 78.42 C17.37 60.04, 33.73 40.37, 69.72 -0.11 M1.13 82.17 C18.5 65.1, 34.42 49.67, 73.62 1.03 M2.02 82.8 C30.74 49.85, 60.07 16.83, 74.27 0.26 M8.61 84.23 C30.8 55.59, 53.61 30.18, 79.8 0.34 M8.64 81.83 C22.45 65.16, 37.17 48.73, 78.86 -0.55 M14.13 83.01 C29 63.31, 45.26 43.45, 83.21 0.31 M13.74 81.41 C33.26 59.9, 50.84 37.76, 84.49 -1.05 M16.94 82.73 C46.22 52.6, 72.54 18.24, 89.68 -0.57 M17.88 81.97 C34.49 64.78, 49.5 47.34, 90.62 -0.48 M23.86 80.26 C45.17 61.23, 63.28 38.31, 94.22 0.33 M24.6 81.95 C48.53 53.97, 72.58 25.54, 96.46 -1.24 M31.13 81.13 C45.19 64.5, 64.37 44.95, 100.79 -0.29 M29.17 81.39 C44.91 63.48, 60.13 45.46, 100.65 -0.35 M34.03 82.18 C60.49 49.19, 90.5 19.11, 106.62 0.27 M34.16 83.18 C54.32 60.07, 74.2 37, 106.5 0.02 M40 83.76 C65.5 54.43, 88.56 26.69, 110.02 0.67 M39.41 82.84 C67.73 49.21, 96.64 17.82, 111.69 -0.86 M43.72 83.89 C73.86 52.13, 98.79 19.61, 118.08 0.19 M45.03 83.32 C71 53.26, 96.91 23.21, 116.84 -0.04 M50.77 83.01 C68.2 61.75, 82.8 42.69, 121.68 0.91 M50.01 81.25 C66.04 65.05, 81.63 45.71, 122.51 -0.06 M53.45 81.85 C79.23 53.84, 105.83 22.78, 128.67 -0.06 M55.89 83.52 C75.63 58.17, 97.17 34.9, 127.2 0.79 M59.07 81.39 C83.45 55.74, 102.43 32.92, 133.47 0.08 M61.97 82.77 C88.72 50.6, 115.18 18.03, 132.91 -0.24 M65.8 80.84 C85.68 57.8, 107.15 33.14, 138.9 1.76 M65.1 81.92 C81.9 66.77, 95.49 49.74, 137.88 1.18 M70.94 81.51 C98.91 50.73, 127.87 20.14, 142.51 0.96 M70.81 81.73 C95.74 55.91, 117.54 28.95, 142.76 -1.03 M74.77 80.78 C100.67 55.15, 123.85 31.08, 146.34 1.2 M77.09 83.33 C92.85 64.3, 110.28 44.4, 147.39 0.22 M80.82 84.04 C109.41 51.04, 134.04 21.72, 155.31 -0.58 M81.59 81.7 C101.67 59.06, 122.63 34.66, 152.97 -0.34 M87.74 82.64 C105.56 63.56, 124.36 40.71, 158.96 1.94 M87.33 82.28 C114.61 52.57, 140.27 22.35, 158.79 -0.76 M93.55 81.78 C109.27 63.26, 125.86 45.67, 165.81 -1.6 M91.94 82.42 C109.36 63.2, 125.22 42.91, 164.48 0.62 M99.52 82.51 C124.44 54.65, 151.38 23.7, 169.14 1.72 M97.34 81.99 C122.91 53.94, 149.85 23.94, 168.69 0.75 M102.4 81.61 C128.56 55.38, 151.93 25.14, 173.33 -2.03 M103.02 82.85 C128.6 54.25, 151.22 27.62, 175.31 0.35 M110.31 81.57 C129.98 56.33, 153.02 28.06, 179.66 -1.61 M107.69 83.41 C126.8 62.44, 144.59 40.48, 180.23 -0.52 M115.01 82.49 C142.97 47.44, 171.71 15.49, 184.61 1.26 M114.54 82.15 C136.24 55.95, 159.84 29.49, 185.5 0.05 M119.73 84.07 C135.95 65.31, 150.02 46.21, 189.71 -0.11 M118.97 82.16 C136.81 62.57, 154.18 41.24, 190.11 -0.65 M123.47 81.49 C145.6 61.32, 163.77 38.12, 195.81 0.51 M125.77 82.67 C145.66 57.24, 167.36 33.33, 196.15 0.61 M128.8 83.39 C150.01 56.31, 170.49 33.56, 198.94 0.52 M128.87 81.58 C144.56 64.64, 159.92 48.4, 199.61 2.75 M134.23 83.78 C159.1 53.66, 180.6 27.72, 199.25 7.35 M134.52 80.99 C153.77 59.32, 174.15 36.86, 199.18 7.94 M141.95 83.99 C157.2 63.14, 174.7 43.8, 198.77 13.95 M141.06 81.72 C152.27 68.57, 163.62 56.15, 198.95 14.56 M146.19 80.6 C162.15 65.89, 178.28 47.97, 199.17 22.45 M146.12 82.86 C157.53 68.4, 170.93 53.72, 200.06 21.57 M153.01 83.4 C162.87 68.81, 172.89 53.6, 198.15 24.6 M150.32 82.32 C166.42 65.47, 181.08 47.33, 200 26.5 M155.97 84.05 C171.76 66.01, 184.48 48.94, 200.53 32.02 M155.84 83.03 C167.8 69.61, 178.37 57.51, 199.62 32.23 M163.21 82.28 C173.58 71.91, 181.14 58.97, 197.89 36.79 M161.43 81.82 C171.06 71.82, 178.94 62.38, 199.66 39.3 M166.57 82.08 C180.04 67.69, 193.22 51.23, 200.43 45.45 M166.42 83.14 C178.71 68.45, 191.34 55.59, 198.49 44.4 M171.21 82.37 C179.06 74.75, 185.74 66.3, 200.57 51.67 M172.25 82.37 C181.61 72.76, 189.24 61.62, 198.68 50.66 M177.44 80.96 C185.39 76.44, 190.3 65.45, 200.07 58.43 M177.21 83.34 C184.02 74.36, 190.96 65.54, 199.99 56.47 M183.05 80.49 C187.81 75.85, 192.97 71.54, 199.13 62.24 M182.66 82.84 C187.5 76.02, 193.55 70.18, 199.37 63.22 M188.97 84.15 C191.13 78.17, 193.95 73.37, 198.19 67.89 M187.76 82.24 C190.23 79.64, 193.76 76.56, 200.44 68.62 M193.86 82.34 C195.51 80.19, 198.64 78.11, 199.24 75.58 M193.59 81.98 C196.21 79.29, 198.26 76.64, 199.09 75.69" stroke="#868e96" stroke-width="0.5" fill="none"></path><path d="M-0.15 1.32 C72.69 1.6, 145.89 3.06, 196.83 -1.47 M0.48 0.34 C41.53 -0.94, 81.43 -2.81, 196.11 -0.69 M196.51 -1.01 C196.76 29.31, 195.88 64.17, 195.88 79.91 M196.58 -0.21 C195.29 28.89, 195.45 57.65, 196.51 80.25 M198.98 78.43 C147.44 81.76, 97.7 81.79, 0.24 81.33 M197.27 80.03 C135.8 79.16, 76.99 79.01, 0.16 80.76 M-1.82 79.14 C-0.69 56.96, 1.75 37.35, -0.69 0.75 M0.25 79.02 C-0.07 54.69, -0.06 26.93, -0.24 0.09" stroke="#1e1e1e" stroke-width="1" fill="none"></path></g><g transform="translate(781.1666679382324 64.51639178283511) rotate(0 63.33333206176758 35)"><text x="63.33333206176758" y="0" font-family="Virgil, Segoe UI Emoji" font-size="28px" fill="#1e1e1e" text-anchor="middle" style="white-space: pre;" direction="ltr" dominant-baseline="text-before-edge">NodePort</text><text x="63.33333206176758" y="35" font-family="Virgil, Segoe UI Emoji" font-size="28px" fill="#1e1e1e" text-anchor="middle" style="white-space: pre;" direction="ltr" dominant-baseline="text-before-edge">Service</text></g><g stroke-linecap="round" transform="translate(743 229.01639178283511) rotate(0 100.5 40)"><path d="M0 0 C0 0, 0 0, 0 0 M0 0 C0 0, 0 0, 0 0 M0.52 5.67 C1.94 3.76, 3.57 1.57, 5.33 1 M-0.33 6.09 C1.08 5.07, 2.64 2.91, 4.69 0.74 M0.4 13.24 C3.4 7.78, 7.83 4.29, 9.49 -0.74 M0.03 11.37 C2.11 9.1, 4.22 7.53, 10.81 0.02 M-0.59 18.6 C6.3 14, 8.06 8.46, 15.71 -0.12 M0.39 18.44 C4.4 11.25, 10.35 4.55, 15.93 0.16 M1.39 25.45 C4.31 16.49, 11.58 13.5, 19.28 0.56 M-0.69 24.13 C7.76 16.91, 14.11 8.05, 22.06 -0.05 M1.11 30.19 C9.93 21.52, 17.54 8.41, 25.1 -0.65 M0.43 29.74 C6.3 24.03, 10.91 16.84, 25.67 0.06 M-0.39 35.14 C6.77 27.29, 16.64 15.68, 30.81 1.46 M0.55 37.12 C11.63 24.45, 22.58 10.81, 32.77 -0.54 M-1.74 42.12 C6.93 32.02, 19.12 22.64, 35.16 2.21 M0.22 42.69 C12.59 27.85, 26.09 11.85, 37.29 0.48 M-1.3 47.83 C14.46 34.56, 25.13 19.71, 43.23 0.08 M-0.71 48.72 C9.85 36.84, 19.06 26.6, 42.8 0.7 M-0.6 53.59 C17.09 33.75, 36.21 14.11, 47.11 -0.25 M0.01 53.99 C15.35 35.8, 31.58 16.79, 46.83 -0.03 M0.33 60.44 C18.46 40.17, 35.68 19.87, 55.06 1.16 M-0.65 60.78 C17.25 42.16, 33.01 24.68, 52.65 0.34 M-0.48 66.95 C15.62 46.02, 34.45 26.56, 56.26 -1.37 M0.09 67.62 C15.55 51.05, 30.95 33.91, 57.53 1.09 M0.97 72.51 C20.62 49.64, 44.18 24.5, 61.92 -2.17 M0.4 72.44 C14.22 56.83, 28.93 41.61, 64.54 0.62 M0.67 78.68 C20.76 52.23, 42.01 27.75, 70.02 -1.06 M0.42 78.87 C19.42 58.04, 38.45 36.16, 68.82 -0.51 M3.76 81.97 C29.23 50.98, 54.18 22.07, 74.5 1.62 M2.95 82.86 C20.83 60.93, 38.03 42.21, 75.38 0.31 M5.91 80.92 C29.64 55.75, 55.16 27.19, 77.91 0.16 M7.57 82.77 C30.44 56.64, 52.65 30.98, 79.36 0.82 M12.58 83.16 C39.05 50.78, 64.24 20.26, 84.61 0.47 M13.33 82.26 C37.16 54.5, 60.96 28.21, 85.8 -0.26 M18.9 80.49 C42.96 50.69, 73.02 20.28, 89.5 -0.8 M19.35 82.26 C45.45 53.8, 69.68 22.02, 89.97 -0.19 M22.28 82.9 C46.48 58.43, 65.54 30.34, 95.15 0.74 M24.94 80.96 C41.39 61.62, 59.46 42.27, 95.11 -0.24 M29.04 83.66 C50.59 58.58, 71.47 32.28, 100.5 0.35 M28.9 81.77 C52.1 55.34, 76.27 28.54, 100.72 -0.76 M33.02 83.13 C60.35 54, 83.72 25.67, 106.09 1.17 M33.62 83.05 C51.65 62.62, 69.25 42.1, 106.35 -1.2 M41.45 82.05 C57.92 60.85, 76.98 37.94, 110.7 1.31 M39.68 82.29 C55.83 63.68, 71.61 45.25, 111.86 0.91 M43.02 80.91 C64.6 57.81, 84.81 35.31, 115.88 -0.32 M45.37 83.4 C60.26 64.56, 76.78 45.94, 116.57 0.58 M52.33 81.69 C70.34 60.46, 88.18 35.36, 121.96 -0.78 M49.85 81.35 C77.33 51.92, 103.05 22.85, 122.83 0.68 M54.63 82.99 C80.25 51.86, 103.97 24.69, 125.98 0.32 M55.42 83.19 C81.27 54.33, 106.52 26.12, 126.54 0.09 M62.98 81.02 C79.26 62.16, 93.02 41.93, 132.26 0.57 M61.29 82 C84.71 54.35, 109.5 27.04, 133.31 -0.54 M66.95 80.76 C89.39 54.78, 114.79 27.31, 139.02 -0.16 M65.87 81.88 C81.63 64.63, 96.14 49.04, 137.73 1.15 M69.79 80.9 C91.06 59.29, 111.17 36.55, 141.66 -0.69 M72.56 81.88 C94.22 56.65, 117.25 29.79, 144.15 0.21 M77.16 81.03 C101.01 54.1, 126.31 26.03, 147.37 -1.4 M76.02 83 C95.77 60.16, 115.1 36.97, 147.96 0.36 M82.26 82.58 C102.2 59.14, 121.38 38.05, 154.34 -1.24 M81.95 82.15 C103.47 59.16, 123 36.19, 154.41 -1.07 M86.56 84 C105.16 65.5, 117.19 45.8, 158.46 -0.61 M87.38 83.11 C106.01 60.46, 123.39 40.96, 157.8 0.87 M92.96 81.72 C110.46 61.89, 128.47 43.05, 164.53 1.66 M92.43 82.52 C107.72 65.56, 121.37 46.87, 164.36 -0.33 M98.52 81.29 C116.16 59.95, 137.02 39.13, 168.87 1.41 M98.64 82.83 C122.39 54.73, 146.36 26.69, 169.48 -0.62 M103.58 82.38 C118.92 65.2, 133.87 43.2, 174.59 0.16 M102.69 82.25 C124.37 59.58, 144.85 36.07, 174.48 -0.48 M108.51 81.92 C136.7 50.18, 162.01 22.65, 178.22 -1.76 M108.72 81.79 C133.12 54.98, 156.69 27.69, 179.94 1.12 M114.87 83.05 C128.05 62.68, 142.86 47.4, 184.95 -2.19 M114.1 81.15 C135.99 56.01, 156.76 32.23, 186.44 -0.37 M118.09 82.3 C141.21 57.84, 163.86 27.59, 191.27 -0.09 M119.72 81.73 C145.51 54.45, 169.48 24.12, 189.85 0.9 M124.7 82.59 C148.27 51.5, 176.26 25.25, 196.16 -0.44 M125.76 82.57 C144.25 60, 163.21 37.72, 196.11 0.17 M128.94 84.29 C145.71 61.67, 163.31 42.78, 199.83 -1.19 M129.97 81.37 C150 57.62, 170.51 33.98, 200.55 0.05 M134.03 82.3 C162.15 52.56, 186.63 22.91, 200.94 4.57 M135.46 82.41 C160.01 54.31, 183.94 26.69, 200.68 6.2 M140.8 81.11 C157.05 62.1, 178.74 39.74, 202.34 11.83 M140.97 81.53 C163.1 56.63, 186.96 30.88, 200.6 11.52 M144.91 83.86 C168.02 58.67, 188.88 31.98, 199.31 17.1 M146.69 82.12 C157.46 68.4, 169.56 55.61, 200.73 19.46 M149.52 83.41 C168.4 64.55, 183.22 46.22, 200.66 26.89 M150.46 82.05 C162.13 69.17, 172.75 56.8, 201.6 25.43 M157.83 84.13 C170.01 71.19, 180.99 56.54, 200.7 29.05 M156.99 82.44 C165.54 72.14, 174.63 60.66, 201.35 30.03 M161.04 81.24 C171.87 70.11, 183.44 56.39, 201.21 38.1 M161.35 82.82 C176.44 65.66, 190.1 50.84, 200.33 37.26 M168.33 82.1 C175.06 74.31, 181.99 67.28, 202 43 M167.58 83.41 C180.75 68.34, 193.26 51.42, 201.23 42.26 M173.39 82.05 C178.86 74.52, 187.07 65.81, 199.55 48.26 M172.78 82.78 C180.61 72.26, 190.4 61.69, 200.31 49.27 M177.09 81.45 C185.88 74.63, 190.89 66.93, 201.57 53.69 M176.4 81.87 C186.25 72.9, 193.34 63.28, 201.59 55.34 M182.7 80.72 C187.74 76.73, 194.78 67.12, 200.97 59.79 M183.06 82.92 C188.28 76.03, 194.49 69.55, 201.39 60.54 M186.54 81.48 C188.67 81.25, 194.22 77.56, 199.81 67.01 M187.77 83.46 C191.54 78.01, 197.19 71.88, 201.86 67.23 M193.36 81.77 C196.9 80.14, 199.01 78.12, 201.7 73.37 M193.08 81.62 C196.96 78.63, 199.58 74.9, 201.87 72.86 M198.5 82.8 C199.48 81.39, 200.56 80.4, 201.21 79.3 M198.6 82.48 C199.53 81.47, 200.34 80.5, 201.09 79.64" stroke="#868e96" stroke-width="0.5" fill="none"></path><path d="M-1.3 -0.21 C67.13 -0.08, 132.01 2.61, 200.29 -1.79 M-0.72 0.53 C61.02 -0.05, 122.66 -0.18, 200.13 -0.34 M199.39 1.77 C200.79 20.44, 201.48 42.84, 201.98 81.84 M201.41 0.29 C201.37 21.4, 201.3 43.65, 200.02 79.59 M201.06 80.83 C125.54 80.86, 51.11 79.97, 1.68 81 M200.29 80.33 C124.26 79.73, 48.44 78.95, -0.1 79.22 M-0.01 81.37 C1.59 60.28, -0.28 42.83, -1.86 -1.3 M0.5 80.34 C0.39 49, 0.5 16.22, -0.36 -0.33" stroke="#1e1e1e" stroke-width="1" fill="none"></path></g><g transform="translate(776.783332824707 234.01639178283511) rotate(0 66.71666717529297 35)"><text x="66.71666717529297" y="0" font-family="Virgil, Segoe UI Emoji" font-size="28px" fill="#1e1e1e" text-anchor="middle" style="white-space: pre;" direction="ltr" dominant-baseline="text-before-edge">ClusterIP</text><text x="66.71666717529297" y="35" font-family="Virgil, Segoe UI Emoji" font-size="28px" fill="#1e1e1e" text-anchor="middle" style="white-space: pre;" direction="ltr" dominant-baseline="text-before-edge">Service</text></g><g stroke-linecap="round" transform="translate(745 387.0163917828351) rotate(0 101 40)"><path d="M0 0 C0 0, 0 0, 0 0 M0 0 C0 0, 0 0, 0 0 M-0.42 6.61 C1.03 4.15, 2.88 2.89, 5.59 0.37 M-0.18 6.03 C1.32 3.92, 3.94 1.74, 4.88 0.18 M1.47 11.9 C5.27 9.23, 6.28 1.82, 10.54 -0.47 M-0.62 12.42 C3.55 8.96, 5.7 4.01, 10.42 0.38 M1.44 16.45 C2.8 13.16, 8.02 10.03, 14.5 0.47 M-0.18 19.11 C4.7 13.39, 9.19 7.08, 15.54 0.47 M-0.23 23 C5.95 16.3, 13.17 9.99, 21.39 -1.69 M-0.29 24.31 C8.21 15.82, 14.55 7.79, 21.16 0.69 M-1.02 31.23 C5.64 23.59, 11.27 16.56, 26.34 -1.41 M0.84 30.36 C6.52 22.66, 13.5 14.14, 25.95 0.94 M-0.46 36.91 C6.81 28.22, 13.64 19.82, 33.03 1.68 M-1.13 36.01 C8.6 25.66, 17.65 15.61, 31.69 -0.45 M1.35 44.04 C7.54 34.11, 16.49 24.55, 37.48 0.67 M1.1 42.24 C10.37 31.31, 19.57 18.44, 36.9 -0.13 M-1.24 47.12 C16.94 29.95, 32.19 13.42, 44.35 1.26 M-0.51 49.11 C14.67 30.78, 28.94 14.41, 42.06 -0.15 M0.32 55.73 C18.1 35.81, 35.1 17.93, 46.78 -0.27 M1.24 53.97 C12.02 41.28, 21.65 28, 47.36 0.54 M0.51 60.54 C16.81 40.29, 35.67 21.03, 54.67 -1.14 M0.47 60.05 C17.58 40.34, 36.25 19.73, 53.89 -0.41 M-0.56 65.99 C13.51 51.81, 25.32 40.4, 58.52 1.88 M-1.19 66.72 C15.71 48.53, 32.15 29.81, 57.38 -0.11 M1.94 72.41 C19.8 50.38, 40.8 25.5, 65.71 0.4 M0.4 72.25 C22.11 47.51, 44.46 22.32, 63.38 -1.04 M-1.38 80.34 C18.08 57.76, 36.38 34.78, 68.37 0.34 M-0.14 79.62 C18.67 57.92, 36.83 37.51, 69.03 -0.41 M2.21 82.04 C24.51 58.96, 43.25 36.38, 75.61 -2.13 M2.54 82.77 C19.85 64.83, 33.49 46.21, 74.25 -0.66 M8.07 83.61 C26.86 59.35, 43.35 41.38, 77.41 1.39 M7.9 82.19 C25.21 62.18, 42.85 42.83, 79.44 1.03 M12.54 82.82 C29.28 66.36, 41.98 45.76, 84.89 -0.62 M13.83 81.4 C32.16 60.19, 51.87 39.1, 84.76 0.33 M19.97 83.07 C42.88 54.67, 66.21 26.91, 90.13 -1.57 M18.53 82.5 C34.15 64.61, 49.58 44.47, 89.79 0.26 M22.42 82.31 C44.51 60.01, 64.89 36.67, 94.5 -0.89 M24.14 81.69 C51.95 50.49, 78.08 21.23, 94.75 -1.27 M29.49 81.04 C53.78 55.03, 76.49 28.54, 100.43 1.96 M29.49 82.82 C43.47 63.9, 58.54 47.45, 100.29 -0.93 M33.96 80.9 C56.89 55.73, 77.03 32.81, 107.79 -0.64 M33.59 82.63 C56.98 57.01, 80.14 28.27, 106.59 -0.46 M40.87 80.94 C66.88 55.33, 89.5 23.82, 109.61 1.55 M39.72 82.57 C63.97 52.35, 90.48 24.82, 111.2 -0.08 M46.64 83.77 C64.6 60.41, 83.36 37.88, 115.85 1.25 M44.33 83.6 C61.16 62.6, 78.37 43.48, 115.53 -0.27 M50.73 80.26 C70.39 57.24, 90.44 34.1, 120.38 -0.13 M49.7 82.41 C78.82 50.7, 105.9 18.8, 121.86 -0.98 M55.41 83.49 C82.54 51.99, 108.84 21.56, 126.16 -0.26 M55.58 81.99 C76.2 57.63, 99.7 31.89, 127.35 0.19 M62.11 80.62 C87.23 52.2, 116.03 22.48, 130.84 -1.29 M60.45 83.17 C89.12 50.84, 116.61 17.88, 131.61 -0.77 M67.24 82.93 C80.77 65.1, 96.75 48.97, 136.63 2.16 M65.25 83.13 C89.46 56.81, 111.59 30.71, 137.4 1.29 M70.46 81.69 C87.66 63.05, 102.73 45.41, 144.53 0.91 M72.55 82.91 C91.62 62.06, 109.68 40.27, 142.87 -0.85 M78.53 82.11 C91.83 66.09, 106.07 47.67, 148.23 -0.83 M76.32 82.02 C97.26 58.57, 118.56 33.86, 148.24 0.84 M81.61 83.27 C109.2 51.9, 134 25.18, 152.36 0.44 M83.12 81.88 C97.64 65.66, 112.26 49.31, 154.08 0.07 M89.08 84.09 C116.2 53.08, 141.98 18.36, 158.34 -0.49 M87.82 82.41 C106.4 61.4, 125.95 39.28, 157.97 -0.14 M93.83 83.22 C113.74 57.47, 137.46 31.57, 162.67 0.35 M92.82 81.54 C113.82 59.18, 132.36 36.88, 164.76 -1.02 M96.1 81.04 C124.24 53.44, 146.73 24.66, 170.75 0.05 M97.79 81.73 C120.15 56.79, 143.1 29.63, 169.25 -0.43 M103.77 83.53 C124.87 57.6, 147.82 32.53, 175.19 -1.23 M102.86 81.54 C116.84 66.11, 132.62 49.31, 174.44 -0.42 M108.2 84.25 C130.7 56.32, 156.75 27.09, 181.65 -0.29 M108.35 82.11 C129.9 59.62, 149.57 37.33, 180.26 0.4 M112.5 80.26 C143.02 49.22, 169.7 16.15, 187.08 -1.04 M114 82.74 C141.54 51.53, 168.61 20.99, 185.73 -0.72 M119.4 82.07 C144.18 54.25, 167.79 26.74, 189.63 1.53 M118.67 83.39 C139.86 59.27, 159.52 34.62, 189.75 0.97 M123.5 81.56 C146.81 54.95, 171.75 29.5, 194.88 -0.76 M125.56 82.21 C144.23 58.08, 165.06 33.75, 197.27 0.17 M131.13 81.96 C145.13 60.51, 164.07 42.38, 201.71 -1.35 M129.94 82.11 C146.33 62.83, 163.34 43.77, 202.02 -0.89 M136.65 81.7 C152.52 64.5, 167.76 43, 206.59 1.29 M136.37 82.22 C152.83 61.87, 172.87 39.47, 204.78 2.33 M142.23 80.46 C156.19 63.41, 174.51 45.8, 204.07 8.58 M140.42 82.51 C158.11 60.52, 175.65 39.85, 204.68 9.17 M146.22 83.02 C170.2 57.46, 192.58 29.04, 204.34 15.95 M145.85 81.24 C165.53 61.07, 183.59 39.14, 204.77 14.56 M150.92 81.23 C163.95 69.89, 177.44 53.16, 206.47 22.11 M150.4 81.54 C171.8 58.59, 190.62 36.45, 204.06 19.84 M154.26 82.71 C167.83 68.65, 177.27 55.63, 204.76 27.49 M156.29 81.69 C171.33 64.54, 187.4 45.55, 203.87 27.77 M160.86 81 C171.23 72.91, 181.23 59.19, 204.41 30.88 M161.23 81.86 C174.04 68.49, 187.22 52.14, 204.37 32.79 M167.17 83.8 C178.8 67.24, 193.86 52.55, 205.36 39.4 M166.48 81.95 C176.41 70.72, 187.07 58.69, 204.26 39.61 M171.09 83.61 C179.28 72.07, 187.51 62.5, 205.87 45.15 M172.31 82.82 C180.46 72.86, 187.38 63.79, 205.42 45.43 M177.81 81.68 C183.19 75.82, 193.96 65.53, 205.72 51.45 M176.82 81.85 C186.61 72.94, 195.39 61.83, 205.82 50.72 M182.08 81.97 C188.32 75.97, 191.73 73.06, 203.19 57 M182.07 81.46 C187.93 77.24, 193.01 69.88, 205.56 57.08 M186.08 83.06 C192.91 75.2, 198 73.13, 204.83 62.56 M188.89 82.67 C191.74 78.68, 194.94 73.12, 204.46 62.41 M193.67 83.81 C196.09 76.47, 201.33 71.67, 203.4 70.65 M193.09 81.65 C197.72 77.9, 200.34 74.24, 204.71 68.67 M199.35 81.73 C200.43 81.06, 202.87 78.62, 205.36 76.5 M198.24 82.69 C200.14 80.63, 202.43 78.92, 204.48 76.06" stroke="#868e96" stroke-width="0.5" fill="none"></path><path d="M0.61 0.46 C52.16 1.6, 104.56 1.55, 200.91 1.62 M0.37 -0.22 C66.13 1.6, 133.73 1.12, 201.16 -0.88 M202.52 -1.12 C201.78 17.41, 203.04 37.05, 203.52 81.66 M202.4 -0.36 C202.06 24.1, 201.88 49.4, 202.63 79.39 M202.96 79.05 C146.92 78.44, 91.83 78.14, 0.1 78.8 M202.38 79.98 C131.51 81.2, 60.17 81.24, 0.04 80.83 M0.11 81.68 C1.19 59.12, 0.55 42.39, 1.94 1.11 M-0.99 79.27 C-0.95 53.7, 0 26.58, -0.75 0.02" stroke="#1e1e1e" stroke-width="1" fill="none"></path></g><g transform="translate(752.7666702270508 392.0163917828351) rotate(0 93.23332977294922 35)"><text x="93.23332977294922" y="0" font-family="Virgil, Segoe UI Emoji" font-size="28px" fill="#1e1e1e" text-anchor="middle" style="white-space: pre;" direction="ltr" dominant-baseline="text-before-edge">LoadBalancer</text><text x="93.23332977294922" y="35" font-family="Virgil, Segoe UI Emoji" font-size="28px" fill="#1e1e1e" text-anchor="middle" style="white-space: pre;" direction="ltr" dominant-baseline="text-before-edge">Service</text></g><g transform="translate(696.5 566.0163917828352) rotate(0 110.53333282470703 17.5)"><text x="0" y="0" font-family="Virgil, Segoe UI Emoji" font-size="28px" fill="#1e1e1e" text-anchor="start" style="white-space: pre;" direction="ltr" dominant-baseline="text-before-edge">Cluster Network</text></g><g stroke-linecap="round" transform="translate(414 65.01639178283511) rotate(0 100.50000000000006 40)"><path d="M0 0 C0 0, 0 0, 0 0 M0 0 C0 0, 0 0, 0 0 M-1.01 6.45 C0.66 3.93, 2.15 3.59, 4.4 0.78 M-0.6 6.45 C1.29 5.12, 2.51 2.95, 5.03 0.32 M1.38 10.67 C4.6 7.18, 7.2 4.01, 9.82 -0.27 M-0.63 11.51 C3.34 8.35, 5.86 6.09, 10.1 0.54 M-2.09 18.18 C2.06 13.52, 5.85 10.39, 14.74 2.08 M-0.71 17.6 C6.03 11.21, 11.43 4.82, 15.9 -0.07 M1.34 24.52 C2.98 19.14, 10.3 12.52, 21.64 -1.27 M1.16 24.85 C9.53 13.93, 15.94 5.15, 21.35 -0.46 M0.49 30.34 C10.43 19.22, 17.34 7.17, 26.2 1.83 M-0.22 30.37 C6.39 24.23, 11.65 16.8, 26.67 0.41 M0.11 34.92 C6.74 30.81, 12.05 22.89, 30.63 -1.3 M-0.58 36.73 C8.38 27.36, 16.24 18.11, 31.88 0.66 M-0.86 41.21 C11.62 32.11, 18.49 20.9, 36.13 -1.09 M0.11 42.02 C13.95 25.22, 30.03 9.33, 36.94 0.73 M-1.33 47.14 C13.37 33.72, 26.41 17.9, 44.11 -0.71 M-0.76 49.1 C9.98 36.45, 21.24 23.24, 41.57 -0.77 M-1.49 55.38 C11.88 44.08, 22.31 27.96, 48.85 -0.98 M0.71 54.29 C11.9 39.71, 25.51 27.05, 47.46 -0.01 M1.81 60.49 C19.55 35.74, 41.1 15.13, 54.69 0.64 M-0.85 60.36 C14.18 44.62, 29.91 26.87, 54.13 -0.02 M-0.33 66.62 C15.79 46.92, 34.49 30.6, 56.75 1.22 M-0.91 67.23 C13.95 51.9, 27.24 36.39, 57.16 0.31 M-0.95 74.93 C19.4 51.87, 34.65 31.07, 62.08 1.29 M0.51 73.19 C13.29 56.03, 29.04 39.37, 63.98 0.17 M0.77 80.83 C19.21 56.91, 41.93 31.37, 70.35 0.01 M-0.59 79.16 C19.22 55.76, 39.85 33.51, 68.18 -0.15 M4.65 82.8 C24.94 56.72, 47.74 33.49, 75.08 0.17 M2.54 81.32 C25.33 56.16, 48.35 28.49, 75.24 0.64 M6.96 81.51 C24.14 64.25, 44.78 43.29, 80.25 -0.72 M7.44 83.18 C26.67 62.5, 43.03 42.79, 78.87 -0.15 M11.59 82.84 C36.54 54.51, 57.85 30.99, 85.57 -1.37 M13.26 82.49 C40.84 51.2, 65.48 21.22, 84.74 -1.25 M18 80.94 C40.86 57.94, 64.91 29.62, 91.12 -1.66 M19.21 83.24 C39.16 58.97, 60.66 33.87, 90.78 -0.44 M25.8 80.29 C45.45 56.46, 65.05 34.44, 94.56 -1.57 M24.78 81.59 C45.53 57.96, 66.33 34.69, 94.99 -0.59 M29.39 80.76 C46.92 60.47, 69.56 38.32, 99.77 1.89 M29.03 81.85 C47.78 62.51, 65.63 41.82, 99.67 -0.69 M32.53 81.47 C57.57 52.09, 83.32 24.26, 106.11 -0.27 M34.65 82.24 C48.53 64.92, 64.66 49.27, 107.23 0.09 M38.32 82.01 C56.68 67.26, 69.05 47.6, 113.06 -1.95 M40.59 83.03 C62.07 57.83, 83.39 31.33, 110.48 -0.55 M45.11 81.86 C63.19 63.08, 79.54 44.14, 116.76 -0.15 M45.57 81.86 C70.43 53.47, 94.17 24.7, 115.73 0.56 M51.1 82.12 C63.23 63.2, 79.73 46.66, 121.97 0.33 M51.25 82.36 C73.91 54.81, 96.53 29.09, 122.37 -0.61 M54.98 80.62 C81.96 55.04, 105.07 24.26, 128.07 0.25 M54.47 83.18 C81.25 54.17, 105.71 24.48, 127.44 0.86 M61.13 80.95 C87.61 55.98, 112.36 24.86, 131.57 1.66 M61.08 81.95 C81.46 58.46, 100.49 36.76, 131.71 0.58 M64.32 83.55 C90.37 54.98, 112.06 32.26, 136.77 1.07 M66.16 82.22 C92.5 52.5, 116.7 24.62, 137.04 0.84 M70.88 82.75 C88.97 61.93, 106.51 42.64, 143 0.38 M71.86 81.46 C87.46 61.73, 104.69 41.9, 143.07 -0.46 M75.42 81.86 C100.07 56.87, 121.8 30.56, 147.3 0.09 M77.64 82.03 C98.65 58.45, 119.15 34.04, 148.57 0.17 M81.95 82.18 C100.36 61.24, 123.29 35.83, 155.54 -1.77 M82.07 83.12 C96.29 65.18, 110.44 49.93, 154.2 0.8 M88.66 82.15 C105.07 62.91, 123.4 39.94, 157.21 -0.49 M87.11 81.73 C102.59 64.28, 118.48 45.82, 159.78 0.03 M93.01 82.31 C109.94 62.07, 123.34 43.14, 164.52 -1.66 M93.89 82.67 C109.96 62.73, 126.14 45.62, 165.08 -0.04 M96.51 84.45 C122.41 56.39, 144.43 30.8, 171.15 -0.08 M96.98 81.49 C126.96 51.96, 154.04 20.43, 169.12 0.17 M101.83 80.61 C120.78 59.6, 141.25 38.72, 175.39 -0.73 M104.2 82.43 C127.41 53.04, 153.32 24.73, 174.89 0.67 M109.53 84.19 C125.17 62.14, 143.66 37.65, 178.86 -1.67 M108.87 81.49 C131.99 54.72, 156.52 27.27, 180.73 -0.12 M115.26 82.96 C130.71 61.8, 147.39 43.53, 185.68 0.98 M113.6 82.26 C130.28 64.78, 145.03 45.89, 185 -0.39 M118.4 82.19 C146.33 54.21, 169.54 24.32, 189.16 -1.86 M118.58 82.99 C137.22 60.58, 154.64 39.31, 191.46 1 M123.27 81.64 C143.88 61.26, 159.17 40.01, 195.01 -1.18 M125.36 82.54 C143.36 59.24, 162.98 38.82, 195.99 -0.48 M127.85 82.7 C154.7 54.76, 177.46 29.3, 199.99 -0.81 M129.14 83.3 C157.33 50.73, 185.27 18.57, 201.89 0.91 M136.91 81.36 C160.22 53.4, 182.93 25.51, 201.21 8.38 M134.5 81.22 C158.95 53.36, 184.64 24.75, 200.75 6.97 M138.74 83.36 C158.9 59.18, 178.67 36.8, 201.86 11.75 M139.76 82.76 C153.36 67.14, 165.98 52.41, 200.76 11.62 M146.32 81.2 C157.85 69.39, 170.43 57.16, 199.41 20.3 M146.71 82.81 C167.48 57.78, 188.41 31.96, 200.56 18.29 M150.01 81.22 C168.83 64.55, 183.89 42.99, 202.74 23.15 M150.88 81.76 C167.37 63.54, 182.29 46.79, 200.89 25.29 M154.08 81.42 C168.99 67.61, 186.04 48.13, 200.11 30.89 M156.72 82.1 C172.31 62.97, 191.28 43.83, 202.21 31.07 M160.69 82.75 C172.01 65.96, 186.66 53.39, 201.13 36.91 M161.11 81.73 C170.59 71.14, 180.31 59.59, 201.25 36.43 M167.84 82.44 C179.15 70.47, 189.5 58.42, 203.3 41.14 M165.96 82.16 C173.49 73.87, 180.24 65.11, 201.1 42.23 M171.91 81.8 C182.12 73.09, 190.65 63.7, 202.68 47.22 M172.3 82.17 C181.01 71.38, 190.14 60.12, 200.55 49.37 M178.36 83.31 C186.08 73.99, 191.94 65.91, 200.43 54.2 M177.58 81.88 C185.87 73.49, 195.47 62.7, 200.16 54.5 M184.89 81.64 C188.64 76.71, 194.68 71.6, 200.79 61.94 M182.46 81.61 C187.44 78.2, 191.41 72.84, 200.87 60.23 M188.16 80.76 C190.97 75.82, 197.23 73.44, 203.01 66.36 M188.08 81.95 C192.98 78.57, 196.5 73.84, 201.51 68.38 M194.41 81.43 C195.3 79.33, 200 76.65, 201.75 73.23 M193.14 82.44 C196.19 79.76, 199.1 76.06, 201.77 72.84 M198.23 82.8 C199.5 81.04, 200.45 80.25, 201.09 79.11 M198.4 82.53 C199.44 81.54, 200.37 80.24, 201.26 79.54" stroke="#868e96" stroke-width="0.5" fill="none"></path><path d="M1.5 -1.74 C54.45 1.05, 106.83 0.41, 200.84 -1.15 M0.4 0.61 C70.43 -1.13, 141.24 -1.5, 201.4 0.02 M200.11 1.74 C199.27 22.76, 200.07 42.44, 200.66 80.8 M200.42 -0.97 C201.25 30.96, 201.1 62.73, 200.58 79.07 M200.08 80.65 C129.9 80.4, 61.27 77.75, -1.36 79.44 M201.25 79.34 C136.61 80.68, 72.57 81.97, -0.2 80.66 M0.26 79.26 C1.57 60.61, -0.72 43.94, 0.05 -1.45 M0.93 79.11 C-0.45 53.4, 0.78 24.18, 0.59 -0.96" stroke="#1e1e1e" stroke-width="1" fill="none"></path></g><g transform="translate(482.0999984741211 87.51639178283511) rotate(0 32.400001525878906 17.5)"><text x="32.400001525878906" y="0" font-family="Virgil, Segoe UI Emoji" font-size="28px" fill="#1e1e1e" text-anchor="middle" style="white-space: pre;" direction="ltr" dominant-baseline="text-before-edge">Node</text></g><g stroke-linecap="round" transform="translate(417 233.01639178283511) rotate(0 100.50000000000006 40)"><path d="M0 0 C0 0, 0 0, 0 0 M0 0 C0 0, 0 0, 0 0 M-0.56 7.07 C1.94 4.32, 3.95 1.86, 5.14 1.08 M0.11 6.46 C0.92 5.15, 2.9 2.99, 4.77 0.21 M1.31 13.57 C3.14 9.73, 4.84 5.17, 9.52 -1.15 M0.19 11.24 C3.39 8.49, 5.19 5.99, 11.3 -0.15 M-1.3 17.53 C4.7 15.24, 5.09 12.33, 14.91 -0.34 M-1.12 17.88 C3.14 13.06, 7.39 8.68, 14.71 -0.65 M2 23.07 C6.43 18.74, 10.21 10.83, 20.75 0.89 M1.14 24.45 C7.47 16, 15.01 6.29, 21.03 0.38 M-0.88 28.95 C11.67 17.84, 19.04 7.16, 24.6 1.35 M-0.04 30.99 C9.89 18.8, 18.86 8.22, 25.53 -0.69 M-0.75 38.37 C9.46 24.77, 21.93 13.11, 32.11 -0.42 M0.32 37.83 C9.56 24.93, 17.72 15.63, 32.67 0.67 M-1.8 43.52 C6.79 33.1, 16.63 22.11, 36.46 -0.41 M-0.77 43.18 C13.77 28.8, 26.62 12.08, 36.07 -0.31 M1.55 47.81 C8.73 39.26, 17.34 26.6, 42.79 -1.22 M0.76 47.94 C15.85 29.39, 31.45 10.88, 41.69 -0.23 M0.28 54.52 C16.17 37.64, 29.94 20.92, 47.91 1.84 M0.55 53.94 C19.05 32.99, 36.84 11.92, 47.54 1.05 M-1.43 60.74 C16.86 41.07, 35.97 21.04, 52.68 0.75 M-0.42 60.51 C20.88 37.87, 40.16 14.49, 52.94 -0.07 M1.47 66.08 C16.85 49.48, 32.92 30.67, 57.78 0.65 M0.69 66.74 C11.97 53.74, 24.16 39.7, 58.18 -0.38 M2 74.83 C19.2 49.14, 41.07 27.47, 64.06 -0.17 M-0.4 72.24 C20.65 49.66, 39.7 28.38, 63.82 -0.36 M-1.77 80.18 C15.95 61.02, 29.82 45.9, 68.32 -0.34 M-1.08 78.98 C22.22 53.46, 43.93 28.37, 68.3 0.36 M1.58 83.83 C19.48 60.18, 40.44 37.66, 75.63 0.48 M2.31 81.48 C25.49 56.17, 48.78 30.24, 75.27 0.55 M9.35 82.06 C26.91 61.55, 42.05 42.75, 79.16 -0.4 M7.96 82.46 C36.8 49.48, 65.19 16.04, 79.24 -0.09 M15.08 83.57 C32.47 61.07, 52.31 34.07, 84.48 -0.79 M12.85 81.28 C33.07 59.98, 53.29 36.22, 84.8 0.56 M19.56 83.44 C43.13 50.37, 70.65 20.08, 89.36 0.32 M18.63 81.54 C39.26 60.7, 59.34 35.75, 90.39 -0.37 M22.55 80.05 C44.05 56.66, 66.07 30.14, 96.11 -1.33 M23.31 82.5 C52.94 49.46, 80.44 16.43, 95.45 -1.26 M28.6 83.07 C44.83 64.6, 60.88 45.71, 99.38 -1.27 M29.9 82.75 C45.68 64.34, 59.47 47.16, 100.19 0.57 M32.68 84.09 C48.46 65.68, 65 48.51, 106.45 1.57 M34.03 83.38 C59.95 52.72, 87.26 22.25, 106.79 0.37 M41.28 80.82 C62.33 52.86, 87.19 26.19, 113.07 -1.15 M39.92 81.82 C65.28 55.92, 87.77 27.19, 111.13 0.5 M43.51 83.31 C68.79 53.46, 96.16 22.64, 115.14 1.48 M45.39 82.61 C61.02 61.84, 78.85 43.17, 115.32 0.7 M50.76 82.61 C67.93 58.62, 85.84 37.81, 123.72 1.8 M50.4 81.67 C66.98 62.96, 85.17 41.99, 122.74 0.88 M56.52 80.71 C72.58 62.51, 86.47 44.78, 126.22 1.81 M54.81 82.85 C80.95 53.5, 105.46 24.92, 126.01 0.91 M60.67 82.49 C76.35 63.95, 88.9 50.48, 132 -0.21 M61.56 81.43 C77.54 64.1, 94.44 45.03, 132.59 -0.13 M65.28 81.63 C92.19 51.84, 121.51 22.51, 138.17 2.3 M66.43 82.69 C81.49 66.01, 96.49 49.68, 137.46 -0.37 M70.99 80.58 C86.45 65.42, 101.63 45.66, 143.98 -1.9 M71.21 81.42 C88.07 62.4, 104.09 42.98, 143.33 -0.66 M76.74 84.48 C100.07 54.88, 123.33 32.71, 148.53 2.07 M77.46 82.46 C101.32 51.88, 127.57 23.02, 147.42 0.98 M84.14 81.11 C99.92 63.41, 116.29 41.49, 153.16 1.15 M81.69 82.19 C103.32 58.51, 123.34 35.66, 153.62 -0.13 M89.26 82.79 C101.71 65.43, 116.89 51.75, 159.23 -1.7 M87.12 83.14 C114.62 53.92, 140.69 23.02, 159.23 0.25 M90.94 82.38 C110.33 62.33, 128.35 40.74, 166.43 -1.59 M92.87 81.46 C110.38 62.77, 127.4 42.91, 165.17 -0.26 M98.62 83.17 C125.1 54.33, 147.66 21.32, 170.62 0.27 M97.69 81.47 C114.11 63.62, 130.48 45.24, 168.74 0.93 M104.61 82.82 C125.33 60.28, 141.85 36.25, 174.1 -1.53 M103.18 81.18 C123.88 57.52, 146.44 33.68, 175.77 -0.09 M107.98 83.33 C132.8 52.25, 157.41 25.24, 179.46 -0.63 M109.51 82.85 C132.8 55.05, 154.91 28.87, 179.39 -0.25 M114.78 82.92 C144.42 48.78, 172.05 14.93, 183.87 -1 M114.62 82.49 C132.13 60.69, 149.66 41.24, 186.22 -0.93 M117.94 82.06 C144.12 59.38, 163.31 32.25, 188.9 -0.95 M119.96 82.41 C143.01 56.51, 165.5 30.84, 191.12 -0.41 M125.49 83.29 C153.3 52.82, 178.23 22.38, 194.85 0.77 M125.69 82.74 C140.08 63.9, 156.29 45.75, 195.38 0.61 M128.47 81.26 C145.26 64.4, 158.03 48.49, 202.52 0.91 M130.45 81.97 C144.44 65.47, 160.19 48.31, 201.45 0.59 M137.17 82.6 C157.69 53.17, 181.51 26.26, 201.67 8.44 M134.48 82.47 C158.13 55.62, 182.79 26.47, 201.26 6.41 M140.98 83.92 C163.37 55.29, 187.37 28.07, 199.79 10.65 M139.45 83.05 C159.62 61.66, 178.3 39.69, 201.94 13.12 M144.68 83.65 C160.85 64.9, 174.78 48.76, 201.55 17.45 M145.6 82.44 C164.63 61.42, 182.93 39.21, 201.12 18.75 M152.27 84.11 C163.69 69.51, 177.91 52.37, 200.94 24.73 M151.5 81.88 C164.34 67.96, 179 51.65, 200.04 25.38 M154.61 84.08 C170.64 66.54, 186.83 48.6, 200.43 32.57 M156.57 83.35 C166.76 71.73, 175.14 59.69, 200.56 29.85 M160.54 81.02 C175.3 68.6, 188.05 52.47, 200.05 37.47 M162.14 82.39 C170.09 71.31, 179.93 61.61, 201.2 37.59 M165.94 83.33 C180.73 66.4, 192.24 50.92, 203.04 42.95 M167.4 81.86 C175.51 72.91, 183.21 64.17, 200.63 41.89 M171.41 80.92 C178.09 76.47, 182.95 69.57, 201.66 47.58 M172.99 83.22 C181.01 72.03, 188.85 63.98, 200.46 49.42 M176.08 81.24 C184.69 71.67, 194.78 64.37, 202.87 55.58 M177.7 82.09 C185.82 72.82, 194.89 62.33, 200.76 55.53 M183.9 83.16 C189.36 76.54, 191.12 69.75, 201.38 61.08 M182.71 82.71 C186.95 78.01, 191.51 73.94, 202.08 62 M189.49 80.96 C192.06 79.07, 192.91 76.37, 202.79 66.27 M188.28 81.59 C190.42 78.39, 193.1 76.55, 200.42 67.87 M192.89 82.19 C194.71 80.11, 197.1 77.84, 202.51 73.7 M193.83 82 C196.36 79.1, 198.97 75.93, 201.68 73.44 M198.67 82.76 C199.73 81.25, 200.77 80.3, 201.18 79.24 M198.75 82.64 C199.34 81.62, 200.12 80.78, 201.38 79.59" stroke="#868e96" stroke-width="0.5" fill="none"></path><path d="M1.7 0.6 C40.83 0.35, 84.02 -1.6, 201.44 1.32 M-0.41 0.86 C69.95 0.77, 138.04 1.53, 200.64 0.8 M199.52 0.4 C201.98 32.74, 201.63 61.88, 200.93 81.28 M201.79 0.71 C200.34 18.09, 200.67 34.04, 200.48 80.78 M200.04 81.35 C142.88 78.07, 82.94 78.14, 0.52 80.7 M201.46 80.28 C154.61 80.41, 107 81.08, -0.28 79.67 M-1.14 79.11 C-2.48 58.67, 0.72 39.25, 0.99 1.16 M-0.08 80.53 C-0.36 53.25, 0.23 26.03, 0.27 0.69" stroke="#1e1e1e" stroke-width="1" fill="none"></path></g><g transform="translate(467.43333435058594 255.51639178283511) rotate(0 50.06666564941406 17.5)"><text x="50.06666564941406" y="0" font-family="Virgil, Segoe UI Emoji" font-size="28px" fill="#1e1e1e" text-anchor="middle" style="white-space: pre;" direction="ltr" dominant-baseline="text-before-edge">Ingress</text></g><g stroke-linecap="round"><g transform="translate(1214.5 10.016391782835115) rotate(0 3.5566548131406535 295.7847820008174)"><path d="M-0.3 0.18 C0.44 145.88, 0.97 290.21, 7.41 591.59 M-0.04 -0.02 C3.97 167.73, 6.4 335.45, 7.3 591.03" stroke="#1e1e1e" stroke-width="4" fill="none"></path></g></g><mask></mask><g stroke-linecap="round"><g transform="translate(1160.5 60.016391782835115) rotate(0 25.317192738875747 -0.5105371803601599)"><path d="M0.44 -1.06 C17.56 -1.47, 31.24 0.4, 50.2 -0.52 M0.97 0.03 C10.9 0.34, 21.17 -0.55, 49.82 -0.72" stroke="#1e1e1e" stroke-width="2" fill="none"></path></g></g><mask></mask><g stroke-linecap="round"><g transform="translate(1163.1828072611243 138.5269289631952) rotate(0 25.48775661131367 0.2069206626188702)"><path d="M1.8 1.03 C10.82 -0.1, 23.57 -1.82, 50.43 0.64 M0.54 0.35 C13.12 -0.12, 24.56 0.56, 49.32 0.03" stroke="#1e1e1e" stroke-width="2" fill="none"></path></g></g><mask></mask><g stroke-linecap="round"><g transform="translate(1167.1828072611243 244.5269289631952) rotate(0 25.185203379020095 -0.0011503140237039133)"><path d="M-0.58 0.1 C20.39 -1.16, 39.39 -0.68, 50.95 -0.2 M0.05 0.66 C10.42 -0.18, 21.69 1.1, 49.4 0.57" stroke="#1e1e1e" stroke-width="2" fill="none"></path></g></g><mask></mask><g stroke-linecap="round"><g transform="translate(1168.1828072611243 353.5269289631952) rotate(0 25.79988860199228 -0.2795853181616508)"><path d="M0.23 -0.87 C13.63 -1.03, 30.17 1.05, 51.59 -0.33 M0.01 -0.83 C11.9 -0.68, 22.9 0.51, 50.07 0.29" stroke="#1e1e1e" stroke-width="2" fill="none"></path></g></g><mask></mask><g stroke-linecap="round"><g transform="translate(1169.1828072611243 430.5269289631952) rotate(0 25.206047704908997 -0.5412460849620402)"><path d="M-0.14 -1.88 C20.27 -0.29, 40.73 -0.04, 48.85 0.17 M0.88 0.8 C15.29 -0.74, 29.49 -0.41, 50.56 0.14" stroke="#1e1e1e" stroke-width="2" fill="none"></path></g></g><mask></mask><g stroke-linecap="round"><g transform="translate(1169.1828072611243 508.5269289631952) rotate(0 25.513283694162965 0.22965796431526542)"><path d="M-0.21 0.78 C10.77 0.03, 21.43 0.04, 51.23 0.66 M-0.05 0.24 C14.44 0.36, 30.96 0.49, 50.79 -0.32" stroke="#1e1e1e" stroke-width="2" fill="none"></path></g></g><mask></mask><g stroke-linecap="round"><g transform="translate(679.9433451868592 17.2316097820177) rotate(0 3.94112045224756 295.160179897584)"><path d="M0.5 -0.47 C1.9 134.65, 2.65 267.3, 7.66 590.62 M0.22 -0.16 C3.66 170.77, 5.9 340.49, 6.88 590.79" stroke="#1e1e1e" stroke-width="4" fill="none"></path></g></g><mask></mask><g stroke-linecap="round" transform="translate(10 230.01639178283511) rotate(0 100.50000000000006 40)"><path d="M0 0 C0 0, 0 0, 0 0 M0 0 C0 0, 0 0, 0 0 M-0.32 7.17 C1.21 3.65, 3.08 1.57, 5.69 0.19 M-0.36 6.19 C1.17 4.28, 3.09 2.6, 4.63 0.26 M-0.13 13.62 C4.32 7.43, 6.04 5.55, 9.38 -1.62 M-0.16 11.46 C3.89 8.73, 6.3 4.15, 10.05 -0.64 M-1.97 20.4 C3.99 11.16, 11.73 4, 16.41 -0.45 M-0.02 19.38 C3.35 14.08, 7.09 9.61, 15 -0.23 M-0.97 23.76 C8.23 12.92, 15.96 7.49, 20.81 1.54 M0.44 24.58 C7.92 14.66, 14.17 7.56, 20.78 -0.98 M-0.91 28.87 C5.48 24.12, 10.3 15.82, 25.4 -1.21 M-0.88 30.12 C7.44 21.19, 14.94 13.51, 26.01 0.63 M-0.33 35.72 C5.69 27.93, 14.19 19.6, 32.71 0 M-0.79 37.1 C7.01 27.93, 16.38 19.47, 32.07 0.23 M0.5 43.66 C13.44 27.08, 25.38 13.05, 36.5 1.72 M1.1 42.31 C9.14 33.19, 17.66 21.95, 36.63 -0.08 M-1.31 49.61 C12.95 35.36, 24.23 19.35, 42.04 0.23 M-0.56 49.03 C8.88 37.17, 20.25 25.99, 42.93 -0.19 M0.38 52.75 C15.14 35.45, 30.57 17.84, 45.94 1.53 M-0.35 55.32 C16.89 34.76, 32.87 17.31, 47.43 0.56 M0.54 60.47 C15.99 41.15, 33.41 20.17, 52.45 1.21 M-0.37 60.5 C18.92 39.01, 37.98 18.09, 53.08 -1.09 M-1.38 69.01 C22.64 42.8, 45.38 15.32, 57.32 -1.53 M0.38 67.5 C19.16 44.04, 40.82 21.54, 59.01 0.2 M1.69 73.69 C16.84 53.7, 35.49 31.14, 64.02 -0.01 M0.94 73.58 C17.47 51.71, 34.81 31.9, 63.78 -0.11 M1.47 81.11 C26.71 47.63, 54.89 17.9, 67.65 1.91 M0.43 80.16 C14.57 62.43, 30.13 45.05, 69.05 0.16 M2.67 80.76 C21.92 61.89, 40.57 40.42, 75.21 1.74 M2.21 81.03 C24.61 56.72, 46.28 31.13, 74.83 -0.67 M7.49 83.05 C23.3 63.39, 41.17 42.74, 81.38 0.32 M7.38 81.99 C24.79 62.41, 41.96 42.38, 79.23 0.49 M14.02 81.21 C28.78 64.82, 44.95 44.64, 84.9 1.72 M12.97 81.29 C37.61 54.19, 61.27 25.61, 85.6 -1.02 M19.2 81.22 C46.83 51.65, 76.35 16.37, 88.33 -0.77 M17.91 83.23 C41.71 55.09, 63.58 29.96, 90.31 0.94 M22.58 82.76 C47.13 56.3, 69.95 32.11, 94.38 -0.74 M24.64 81.6 C48.28 53.46, 72.9 27.67, 95.97 -1.18 M28.12 83.14 C56.64 50.68, 83.64 21.44, 101.74 -0.7 M29.84 83.3 C50.49 58.09, 71.99 33.39, 101.1 -0.05 M33.82 83.96 C53.18 58.71, 71.68 35.46, 105.35 -0.18 M33.95 83.59 C48.15 66.06, 64.33 48.07, 105.39 0.02 M40.83 83.35 C66.27 50.15, 93.72 20.53, 112.25 -1.74 M39.2 81.83 C55.64 63.42, 71.24 44.77, 111.43 -0.33 M44.55 82.15 C63.1 60.46, 77.87 41.98, 117.23 1.68 M44.6 82.34 C70.8 53.94, 96.38 23.43, 117.21 0.71 M50.29 80.53 C70.52 60, 88.35 41.74, 121.92 0.94 M50.53 82.62 C68.93 62.14, 87.74 40.78, 121.2 0.96 M57.05 84.03 C71.01 63.69, 87.88 48.42, 127.86 -1.05 M54.4 81.91 C81.62 51.39, 107.69 21.52, 126.28 -0.03 M61.89 83.42 C79.96 56.75, 101.03 35.47, 134.2 1.27 M61.94 82.7 C88.46 49.86, 117.87 16.97, 133.34 0.37 M67.66 80.67 C89.5 54.53, 112.87 28.62, 139.48 0.12 M66.85 83.29 C86.16 59.83, 104.6 38.69, 138.02 -0.66 M71.41 80.88 C90.66 63.35, 106.34 40.31, 143.95 0.27 M72.08 81.28 C96.97 52.66, 121.19 23.87, 142.86 -0.84 M76.11 82.21 C102.51 52.08, 129.85 22.59, 147.41 -1 M77.5 82.17 C95.93 60.98, 114.24 36.89, 148.07 0.79 M83.04 83.83 C107.18 54.74, 127.3 30.53, 155.46 0.05 M83.14 82.79 C100.48 59.55, 119.03 37.85, 153.76 0.3 M87.55 83.88 C109.4 59.64, 129.31 34.82, 157.37 1.51 M86.93 81.95 C104.85 63.03, 123.11 43.2, 158.62 0.52 M91.39 83.33 C105.97 66.59, 122.35 50.88, 164.39 1.81 M93.88 81.86 C118.95 51.71, 143.83 21.05, 164.15 -0.54 M98.52 84.01 C119.4 58.62, 136.81 35.93, 167.5 -0.36 M97.81 82.74 C115.05 62.63, 132.55 42.63, 169.39 -0.08 M103.45 80.49 C131.83 51.08, 158.88 17.44, 175.82 -0.14 M102.58 82.31 C129 54.05, 153.69 26.53, 175.14 -0.01 M107 82.03 C128.55 58.38, 150.21 33.71, 178.33 1.49 M107.8 82.34 C136.04 50.59, 164.84 18.07, 180.66 0.59 M112.64 80.53 C130.53 60.21, 149.91 41.19, 186.25 -0.41 M114.07 82.18 C140.91 49.86, 168.1 18.46, 185.9 -0.02 M118.33 80.47 C147.03 49.4, 172.39 17.55, 190.8 1.25 M118.66 83.27 C145.91 50.96, 172.59 20.48, 190.24 -0.67 M124.77 82.79 C139.24 65.72, 154.67 47.23, 197.57 -0.51 M124.75 82.7 C145.21 57.49, 166.13 32.74, 196.67 -0.8 M131.29 82.92 C150.91 58.15, 169.58 37.99, 200.26 1.22 M129.16 81.74 C155.09 53.03, 180.9 24.91, 200.52 -0.86 M136.08 82.65 C160.82 55.53, 181.9 28.54, 201.17 7.93 M135.54 81.32 C150.14 66.12, 164.69 48.84, 201.79 6.92 M140.06 84.1 C152.85 66.04, 166.01 54.61, 199.97 13.83 M140.13 82.66 C156.24 64.58, 172.38 46.46, 200.9 12.29 M147.17 81.64 C157.65 66.56, 168.98 51.62, 201.08 18.08 M146.93 82.68 C163.28 62.74, 180.09 41.62, 201.9 17.82 M152.21 83.82 C168.63 62.73, 185.86 42.64, 201.92 24.25 M151.45 82.65 C166.27 64.18, 180.34 47, 201.69 25.89 M156.45 82.09 C164.62 69.04, 177.9 59.06, 200 30.43 M155.28 82.38 C167.07 71.27, 178.04 58.59, 200.95 31.49 M162.74 80.95 C176.67 66.19, 186.42 52.13, 202.01 37.52 M161.05 83.04 C170.7 71.86, 180.24 60.68, 200.21 36.02 M168.65 82.19 C181.59 68.96, 194.38 55.26, 201.46 43.83 M166.47 82.96 C177.03 70.89, 186.91 57.98, 201.35 42.52 M172.05 83.5 C180.26 71.62, 192 59.44, 200.53 49.07 M171.89 82.85 C181.52 71.41, 191.18 60.77, 200.36 49.26 M176.98 82.48 C186.84 71.12, 193.65 61.52, 199.71 57 M176.98 83.42 C185.27 74.27, 190.64 66.05, 200.9 54.97 M183.93 82.54 C185.93 76.62, 191.17 72.44, 202.88 59.65 M182.99 81.82 C188.91 75.8, 195.16 67.76, 202.25 60.63 M187.68 80.84 C191.95 75.25, 196.98 70.71, 200.42 67.49 M187.45 83.23 C191.45 78.48, 194.44 74.04, 200.4 68.31 M192.39 82.21 C197.42 79.57, 199.98 76.19, 201.09 73.7 M194.08 81.68 C195.07 79.57, 196.96 78.76, 200.9 73.25 M198.34 82.66 C199.15 81.89, 199.88 81.23, 201.49 79.23 M198.68 82.42 C199.75 81.19, 200.78 80.28, 201.11 79.4" stroke="#868e96" stroke-width="0.5" fill="none"></path><path d="M0.96 0.01 C75.75 -1.83, 151.03 -1.76, 202.51 -0.73 M0.31 0.47 C66.06 1.08, 133.69 0.59, 201.49 0.61 M199.26 1.89 C202.21 23.38, 202.14 45.45, 202.46 80.24 M201.02 -0.45 C201.02 19.32, 200.84 40.29, 200.99 79.52 M200.98 79.65 C124.44 80.11, 47.83 83.07, -0.23 80.4 M200.71 80.18 C122.63 80.55, 44.03 80.38, 0.08 80.89 M0.86 80.48 C2.28 61.63, 2.47 44.43, -1.36 -1.46 M0.42 79.28 C-0.25 63.48, 0.26 47.77, -0.55 0.71" stroke="#1e1e1e" stroke-width="1" fill="none"></path></g><g transform="translate(45.05000305175787 235.01639178283511) rotate(0 65.44999694824216 35)"><text x="65.44999694824219" y="0" font-family="Virgil, Segoe UI Emoji" font-size="28px" fill="#1e1e1e" text-anchor="middle" style="white-space: pre;" direction="ltr" dominant-baseline="text-before-edge">External </text><text x="65.44999694824219" y="35" font-family="Virgil, Segoe UI Emoji" font-size="28px" fill="#1e1e1e" text-anchor="middle" style="white-space: pre;" direction="ltr" dominant-baseline="text-before-edge">Traffic</text></g><g stroke-linecap="round"><g transform="translate(350.55887954775244 17.856211885251128) rotate(0 3.5262601459398866 295.47268491014836)"><path d="M0.07 -0.41 C0.47 143.1, 2.05 285.55, 7.37 591.35 M-0.32 -0.35 C1.48 171.12, 3.73 342.13, 7.19 590.65" stroke="#1e1e1e" stroke-width="4" fill="none"></path></g></g><mask></mask><g transform="translate(366.96666717529297 566.5163917828352) rotate(0 119.1500015258789 17.5)"><text x="0" y="0" font-family="Virgil, Segoe UI Emoji" font-size="28px" fill="#1e1e1e" text-anchor="start" style="white-space: pre;" direction="ltr" dominant-baseline="text-before-edge">External Network</text></g><g stroke-linecap="round"><g transform="translate(688.0830355761573 430.3131486818194) rotate(0 27.762265575118363 0.17067699739709496)"><path d="M0.86 1.19 C20.42 -1.03, 40.41 0.72, 54.66 0.44 M0.09 -0.51 C13.68 -0.28, 27.25 -0.19, 55.44 -0.85" stroke="#1e1e1e" stroke-width="2" fill="none"></path></g></g><mask></mask><g stroke-linecap="round"><g transform="translate(688.0830355761573 271.3131486818194) rotate(0 26.784023347310722 -1.1731770024634898)"><path d="M-0.32 -0.72 C9.98 -0.97, 23.38 0.05, 53.58 -2.83 M-0.46 0.48 C11.89 -0.93, 23.72 -0.37, 54.03 -1.3" stroke="#1e1e1e" stroke-width="2" fill="none"></path></g></g><mask></mask><g stroke-linecap="round"><g transform="translate(683.0830355761573 99.31314868181943) rotate(0 31.872466390952468 0.5305082294005103)"><path d="M0.67 1.32 C15.21 -0.95, 32.71 -0.28, 63.08 0.33 M0.71 0.2 C18.01 -0.33, 33.68 0.44, 61.43 0.84" stroke="#1e1e1e" stroke-width="2" fill="none"></path></g></g><mask></mask><g stroke-linecap="round"><g transform="translate(619.0830355761573 271.3131486818194) rotate(0 31.65981455752626 0.07374646073083113)"><path d="M-0.08 0.11 C25.76 -1.34, 49.39 2.13, 62.45 -0.4 M0.45 0.35 C16.13 -0.15, 31.58 -0.39, 63.4 -0.3" stroke="#1e1e1e" stroke-width="2" fill="none"></path></g></g><mask></mask><g stroke-linecap="round"><g transform="translate(616.8401854424737 100.94264532210417) rotate(0 31.397724455222487 0.128161093685776)"><path d="M-1.91 -0.42 C15.33 1.02, 30.74 1.12, 64.7 -0.46 M-0.85 0.72 C23.54 -0.22, 47.93 -1.2, 63.45 0.55" stroke="#1e1e1e" stroke-width="2" fill="none"></path></g></g><mask></mask><g stroke-linecap="round"><g transform="translate(413.5 102.01639178283511) rotate(0 -29.885903823189437 -0.1872209100984037)"><path d="M-0.22 -0.16 C-15.32 0.78, -28.43 -1.78, -59.21 0.35 M0.67 -0.2 C-12.57 -0.21, -26.46 0.67, -60.44 -0.72" stroke="#1e1e1e" stroke-width="2" fill="none"></path></g></g><mask></mask><g stroke-linecap="round"><g transform="translate(416.5 270.0163917828351) rotate(0 -30.607677427120507 0.8029154660180211)"><path d="M-1.3 0.43 C-23.95 0.31, -47.82 1.45, -60.36 0.14 M-0.4 0.01 C-14.92 0.7, -28.08 1.22, -60.81 1.6" stroke="#1e1e1e" stroke-width="2" fill="none"></path></g></g><mask></mask><g stroke-linecap="round"><g transform="translate(943.5 76.01639178283511) rotate(0 53.445646131411195 -3.715590650215745)"><path d="M-0.76 1.84 C21.31 -1.97, 44.67 -1.64, 107.65 -9.27" stroke="#1e1e1e" stroke-width="2.5" fill="none" stroke-dasharray="8 10"></path></g><g transform="translate(943.5 76.01639178283511) rotate(0 53.445646131411195 -3.715590650215745)"><path d="M79.96 5.78 C84.57 0.29, 90.5 -0.29, 107.31 -9.53" stroke="#1e1e1e" stroke-width="2.5" fill="none"></path></g><g transform="translate(943.5 76.01639178283511) rotate(0 53.445646131411195 -3.715590650215745)"><path d="M77.77 -14.63 C83 -15.71, 89.4 -11.9, 107.31 -9.53" stroke="#1e1e1e" stroke-width="2.5" fill="none"></path></g></g><mask></mask><g stroke-linecap="round"><g transform="translate(947.7023255099714 118.46203791424631) rotate(0 51.57027922983127 13.552765033241144)"><path d="M-0.9 -0.22 C27.23 4.39, 53.32 11.64, 104.04 27.33" stroke="#1e1e1e" stroke-width="2.5" fill="none" stroke-dasharray="8 10"></path></g><g transform="translate(947.7023255099714 118.46203791424631) rotate(0 51.57027922983127 13.552765033241144)"><path d="M73.19 28.78 C82.39 26.71, 89.47 26.65, 103.56 27.62" stroke="#1e1e1e" stroke-width="2.5" fill="none"></path></g><g transform="translate(947.7023255099714 118.46203791424631) rotate(0 51.57027922983127 13.552765033241144)"><path d="M79.12 9.13 C86.75 12.12, 92.32 17.07, 103.56 27.62" stroke="#1e1e1e" stroke-width="2.5" fill="none"></path></g></g><mask></mask><g stroke-linecap="round"><g transform="translate(745 79.28523418540607) rotate(0 -146.12010956379333 0.27769342882223214)"><path d="M-0.57 0.67 C-112.42 -0.22, -221.32 0.26, -291.67 -0.11" stroke="#1e1e1e" stroke-width="2.5" fill="none" stroke-dasharray="8 10"></path></g><g transform="translate(745 79.28523418540607) rotate(0 -146.12010956379333 0.27769342882223214)"><path d="M-264.22 -9.42 C-275.69 -6.9, -283.25 -1.83, -290.55 1.19" stroke="#1e1e1e" stroke-width="2.5" fill="none"></path></g><g transform="translate(745 79.28523418540607) rotate(0 -146.12010956379333 0.27769342882223214)"><path d="M-264.27 11.11 C-275.76 5.81, -283.29 3.07, -290.55 1.19" stroke="#1e1e1e" stroke-width="2.5" fill="none"></path></g></g><mask></mask><g stroke-linecap="round" transform="translate(418 393.0163917828351) rotate(0 100.50000000000006 40)"><path d="M0 0 C0 0, 0 0, 0 0 M0 0 C0 0, 0 0, 0 0 M-1 6.19 C2.12 4.93, 2.97 3.38, 4.22 -0.31 M-0.19 6.51 C1.68 4.36, 3.74 2.52, 5.11 0.68 M-1.37 12 C2.28 8.47, 5.87 4.9, 10.44 -0.58 M-0.42 12.07 C1.55 9.33, 4.42 7.79, 10.46 -0.39 M1.11 17.28 C6.07 13.73, 9.93 8.26, 15.61 0.53 M-1.06 19.05 C5.13 10.82, 13.21 4.59, 16.02 1.13 M0.22 25.57 C6.29 16.09, 13.55 7.96, 19.41 1.25 M-0.17 24.26 C5.75 17.92, 9.58 13.07, 21.77 -0.85 M-0.5 28.58 C6.99 24.46, 12.39 14.9, 28.17 1.6 M0.86 30.33 C5.05 22.71, 12.49 15.75, 26.4 0.53 M-1.34 36.59 C9.4 24.94, 18.96 15.07, 30.31 -1.05 M-0.32 37.12 C12.3 22.44, 24.58 7.63, 30.95 -0.57 M-1.68 42.65 C10.69 29.77, 22.09 20.53, 36.07 1.93 M0.86 43.48 C10.64 30.64, 19.81 19.27, 36.44 -0.15 M-0.91 48.74 C17.06 29.49, 32.12 10.82, 41.86 -1.77 M0.86 48.08 C17.68 30.3, 34 10.86, 43.13 -0.92 M1.22 54.46 C10.93 41.03, 24.48 25, 46.05 0.67 M0.64 53.64 C18.25 33.77, 36.2 13.58, 48.19 0.3 M0.45 59.02 C17.22 38.35, 38.56 19.57, 53.26 -0.97 M-0.66 61.53 C20.04 36.31, 41.7 13.24, 52.98 0.03 M-0.38 65.84 C17.43 45.06, 35.07 24.4, 58.24 2.06 M-1.18 67.95 C15.92 48.13, 34.74 27.75, 58.73 0.76 M-0.22 72.81 C15.61 54.79, 30.24 34.17, 62.11 1.37 M0.75 72.81 C18.39 51.54, 38.27 29.52, 63.77 0.4 M1.29 80.44 C16.29 61.88, 31.75 44.62, 68.21 1.43 M0.51 79.45 C19.88 57.55, 38.5 35.31, 69.22 0.85 M4.12 83.53 C29.56 48.87, 57.93 16.08, 74.41 -0.6 M3.44 82.94 C27.22 55.35, 49.58 29.75, 74.27 -0.48 M8.35 81.2 C34.04 51.26, 60.64 21.93, 80.91 -0.8 M8.28 81.62 C34.73 50.57, 63.29 19.09, 79.84 -0.13 M12.55 82.71 C27.99 64.07, 45.49 47.27, 86.57 -0.66 M13.41 81.63 C42.33 49.62, 69.77 16.47, 85.83 -1.07 M16.81 81.51 C37.85 56.76, 62.15 35.38, 88.7 -1.09 M18.79 82.45 C32.5 65.24, 46.71 47.89, 90.83 -0.16 M22.44 80.05 C43.31 58.76, 64.25 37.08, 95.4 1.49 M23.58 82.38 C37.67 66.2, 53.18 48.33, 95.33 -0.64 M29.76 81.83 C47.33 60.39, 67.85 35.39, 101.36 1.15 M28.85 82.14 C51.85 55.33, 75.45 26.92, 101.46 0.46 M35.78 82.03 C52.29 65.07, 66.58 45.27, 108.14 -1.72 M33.14 82.1 C55.57 58.2, 75.16 33.57, 106.2 -0.24 M39.29 83.7 C63.04 55.57, 87.56 25.72, 112.06 1.63 M40.45 82.07 C60.04 56.99, 83.4 30.95, 111.08 0.15 M43.93 83.97 C72.49 51.01, 98.9 19.29, 115.76 0.95 M45.29 82.13 C73.17 50.69, 100.25 18.99, 116.77 1.01 M49.9 82.74 C70.4 57.04, 93 36.53, 123.38 1.16 M51.15 82.82 C70.26 61.15, 89.2 37.97, 122.06 -0.97 M53.7 84.57 C69.94 64, 87.5 43.57, 125.6 -1.41 M56.32 81.78 C75.22 60.06, 95.31 37.16, 127.87 -0.03 M60.5 82.67 C79.91 59.9, 97.76 38.26, 133.31 -0.37 M61.03 83.18 C81.35 57.61, 101.96 34.92, 132.82 -0.08 M67.94 80.83 C87.47 53.42, 113.31 27.37, 139.44 0.66 M65.21 82.32 C91.05 53.29, 116.26 24.67, 137.92 0.92 M70.42 81.32 C97.25 50.99, 125.93 21.73, 141.25 -1.98 M71.72 83.12 C89.41 62.16, 107.69 41.01, 142.82 -0.64 M74.93 82.87 C102.31 53.49, 126.36 27.17, 150.14 -0.07 M76 82.7 C92.48 64.48, 108.06 46.55, 148.53 -0.38 M81.37 80.59 C100.67 59.32, 117.78 37.65, 154 0.42 M81.4 82.85 C107.55 51.72, 134.83 19.73, 153.6 0.56 M86.34 83.9 C106.48 61.96, 120.71 43.04, 158.96 -0.71 M86.77 82.6 C108.3 60.3, 128.19 36.52, 158.88 1.04 M91.48 80.49 C120.07 52.97, 145.75 22.61, 163.76 0.01 M93.8 81.74 C113.16 58.97, 131.13 37.51, 163.71 0.46 M99.26 82.22 C118.45 56.36, 141.2 30.62, 169.54 1.7 M98.64 83.37 C114.55 61.64, 133.73 42.05, 168.67 0.32 M105.29 81.1 C118.07 63.09, 133.97 46.96, 174.15 1.04 M103.2 81.4 C125.58 56.82, 146.33 33.24, 175.77 0.69 M110.17 83.22 C131.22 55.8, 151.19 33.04, 181.96 0.24 M108.79 83.11 C132.63 53.52, 158.38 25.33, 179.17 -0.17 M115.75 80.63 C142.53 51.76, 166.68 22.25, 186.19 0.9 M113.42 82.63 C132.12 63.62, 147.13 44.49, 185.42 0.6 M120.97 81.38 C143.26 53.45, 167.94 23.27, 190.7 0.05 M119.44 81.57 C138.21 60.19, 158.75 36.86, 190.18 0.13 M126.19 81.36 C142.05 60.28, 161.51 38.42, 196.31 0.02 M124.82 82.43 C149.7 52.14, 175.61 23.88, 196.39 0.22 M128.97 82.3 C158.56 50.05, 186.76 18.83, 202.62 0.4 M128.85 83.24 C153.27 54.3, 179.02 26.1, 201.05 0.99 M136.38 83.66 C160.33 55.36, 183.91 27.65, 200.43 6.76 M135.33 81.01 C158.2 54.22, 181.68 26.8, 201.5 6.09 M140.86 80.64 C163.08 56.34, 184.92 32.36, 200.53 12.71 M140.34 82.3 C158.45 59.47, 177.41 38.35, 201.19 12.46 M144.47 80.02 C160.2 66.36, 170.28 53.77, 201.1 20.25 M145.41 82.76 C162.09 62.32, 178.8 44.3, 200.88 19.15 M150.76 82.18 C163.01 67.62, 173.01 53.81, 199.95 23.1 M151.27 81.64 C166.25 66.04, 181.66 48.9, 201.88 24.39 M156.38 81.74 C164.7 72.36, 174.13 61.37, 201.57 28.94 M156.41 82.07 C165.73 70.57, 177.53 59.48, 200.97 30.27 M162.2 81.77 C176.24 67.57, 188.35 52.69, 202.29 35.59 M162.05 81.84 C172.81 69.37, 184.83 54.42, 200.44 36.64 M166.39 81.98 C175.05 73.18, 180.31 67.72, 199.88 41.67 M166.19 83.23 C177.16 71.15, 186.64 59.03, 201.65 42.3 M174.09 81.38 C179.37 75.91, 185.94 65.01, 199.4 50.56 M173.13 82.2 C180.96 72.91, 187.76 64.68, 201.74 48.56 M179.22 82.25 C181.91 77.76, 188.74 67.94, 202.84 57.11 M178.21 82.01 C184.13 74.89, 191.05 66.13, 201.21 54.55 M182.77 84.05 C190.47 75.99, 192.82 67.06, 202.2 59.75 M182.02 81.71 C189.11 76.58, 194.25 70.19, 201.88 60.93 M186.66 83.39 C192.07 78.38, 198.39 70.22, 202.61 66.78 M187.12 81.65 C192.94 77.11, 198.3 72.46, 201.94 66.77 M192.63 83.22 C196.65 78.85, 198.21 76.66, 201.78 73.01 M193.99 82.1 C196.59 78.78, 199.45 75.64, 200.87 73.48 M198.24 82.88 C199.55 81.32, 199.92 80.73, 201.52 79.1 M198.68 82.52 C199.05 81.83, 199.53 81.18, 201.2 79.33" stroke="#868e96" stroke-width="0.5" fill="none"></path><path d="M-1.5 0.15 C75.47 -0.1, 150.8 -0.23, 201.03 -1.24 M-0.67 -0.55 C44.62 -0.93, 90.71 -0.74, 200.43 0.27 M201.48 1.38 C200.05 30.65, 200.7 59.73, 202.94 79.49 M200.24 -0.46 C201.3 25.54, 202.16 50.52, 200.3 80.6 M202.79 81.55 C156.76 80.23, 115.23 77.45, -0.48 81.42 M200.19 79.38 C145.37 79.78, 90.73 80.16, 0.9 79.38 M1.38 79.22 C-0.79 63.81, -0.2 46.72, -1.77 0.71 M0.6 79.1 C0.25 53.59, 1.14 26.53, 0.91 -0.58" stroke="#1e1e1e" stroke-width="1" fill="none"></path></g><g transform="translate(458.71666717529297 398.0163917828351) rotate(0 59.78333282470703 35)"><text x="59.78333282470703" y="0" font-family="Virgil, Segoe UI Emoji" font-size="28px" fill="#1e1e1e" text-anchor="middle" style="white-space: pre;" direction="ltr" dominant-baseline="text-before-edge">Load </text><text x="59.78333282470703" y="35" font-family="Virgil, Segoe UI Emoji" font-size="28px" fill="#1e1e1e" text-anchor="middle" style="white-space: pre;" direction="ltr" dominant-baseline="text-before-edge">Balancer</text></g><g stroke-linecap="round"><g transform="translate(621.7377344248816 429.845714785438) rotate(0 30.330951632466167 0.28582361887646357)"><path d="M1.71 1.52 C14.13 -2.28, 28.19 -0.52, 60.87 0.33 M-0.21 -0.6 C21.94 -1.28, 42.62 -1.01, 59.5 0.67" stroke="#1e1e1e" stroke-width="2" fill="none"></path></g></g><mask></mask><g stroke-linecap="round"><g transform="translate(359.73773442488164 434.845714785438) rotate(0 27.614466996397823 -0.6328252974578845)"><path d="M1.42 -0.07 C22.54 0.46, 42.7 -0.1, 56.04 -1.43 M-0.81 -0.7 C13.7 0.96, 26.46 -0.35, 55.95 -0.06" stroke="#1e1e1e" stroke-width="2" fill="none"></path></g></g><mask></mask><g stroke-linecap="round"><g transform="translate(621.5 448.0163917828351) rotate(0 60.846455896273255 -0.7274309936910868)"><path d="M1.84 -1.38 C41.91 -0.21, 85.04 -2.24, 119.85 -0.08" stroke="#1e1e1e" stroke-width="2.5" fill="none" stroke-dasharray="8 10"></path></g><g transform="translate(621.5 448.0163917828351) rotate(0 60.846455896273255 -0.7274309936910868)"><path d="M93.2 7.94 C101.04 5.84, 111.96 0.89, 118.7 0.85" stroke="#1e1e1e" stroke-width="2.5" fill="none"></path></g><g transform="translate(621.5 448.0163917828351) rotate(0 60.846455896273255 -0.7274309936910868)"><path d="M93.83 -12.57 C101.48 -7.53, 112.18 -5.34, 118.7 0.85" stroke="#1e1e1e" stroke-width="2.5" fill="none"></path></g></g><mask></mask><g stroke-linecap="round"><g transform="translate(214.5 270.746568985849) rotate(0 99.31211837567389 -8.018974283986779)"><path d="M0.9 1.48 C41.18 -4.08, 81.46 -7.53, 197.72 -17.51" stroke="#1e1e1e" stroke-width="2.5" fill="none" stroke-dasharray="8 10"></path></g><g transform="translate(214.5 270.746568985849) rotate(0 99.31211837567389 -8.018974283986779)"><path d="M171.42 -3.39 C176.47 -6.61, 181.54 -9.25, 197.44 -18.46" stroke="#1e1e1e" stroke-width="2.5" fill="none"></path></g><g transform="translate(214.5 270.746568985849) rotate(0 99.31211837567389 -8.018974283986779)"><path d="M169.65 -23.83 C174.97 -22.85, 180.4 -21.28, 197.44 -18.46" stroke="#1e1e1e" stroke-width="2.5" fill="none"></path></g></g><mask></mask><g stroke-linecap="round"><g transform="translate(214.69111211838708 292.0163917828351) rotate(0 98.89367291220765 60.548337100141)"><path d="M-1.21 -1.46 C40.15 25.37, 78.71 48.44, 199 122.55" stroke="#1e1e1e" stroke-width="2.5" fill="none" stroke-dasharray="8 10"></path></g><g transform="translate(214.69111211838708 292.0163917828351) rotate(0 98.89367291220765 60.548337100141)"><path d="M168.17 114.8 C175.95 118.86, 179.5 118.23, 197.45 123.68" stroke="#1e1e1e" stroke-width="2.5" fill="none"></path></g><g transform="translate(214.69111211838708 292.0163917828351) rotate(0 98.89367291220765 60.548337100141)"><path d="M178.92 97.32 C184.38 104.94, 185.76 107.85, 197.45 123.68" stroke="#1e1e1e" stroke-width="2.5" fill="none"></path></g></g><mask></mask><g stroke-linecap="round" transform="translate(415 64.51639178283511) rotate(0 16.5 39.5)"><path d="M0 0 C0 0, 0 0, 0 0 M0 0 C0 0, 0 0, 0 0 M0.37 6.38 C1.29 5.35, 2.22 3.97, 5.65 0.39 M-0.43 6.77 C1.85 4.8, 3.18 2.74, 4.92 0.5 M-0.42 13.48 C2.46 8.1, 8.52 1.92, 9.28 0.36 M0.62 11.43 C2.22 10.17, 3.75 6.84, 10.04 0.04 M0.99 18.3 C6.8 10.65, 12.19 6.51, 15.71 2.19 M0.29 18.83 C5.12 12.3, 10.26 4.82, 16.42 0.29 M-0.22 23.73 C7.12 16.53, 11.51 11.71, 20.34 -0.34 M-0.06 24.77 C5.99 16.64, 12.32 9.83, 22.17 -0.1 M1.98 32.02 C6.63 21.32, 14.34 13.55, 27.96 0.37 M0.48 30.8 C9.07 19.94, 16.75 10.77, 26.43 0.03 M0.57 38.79 C11.76 22.19, 22.28 12.41, 32.65 -1.66 M-0.35 37.22 C9.49 24.31, 19.5 13.04, 31.9 0.38 M1.37 42.66 C7.31 32.27, 15.41 23.24, 36.82 2.72 M0.63 43.2 C8.01 33.26, 13.71 25.09, 35.56 1.76 M-1.02 48.62 C11.75 33.15, 28.16 17.81, 35.72 7.51 M-0.34 47.97 C11.23 35.63, 23.64 23.04, 35.86 8.74 M1.33 53.79 C9.9 45.52, 17.63 36.94, 36.63 14.69 M1.15 55.54 C8.85 44.9, 16.21 35.16, 35.48 14.63 M-1.65 62.5 C12.64 45.2, 26.43 27.87, 33.62 19.74 M-0.04 61.69 C11.79 47.7, 23.89 33.93, 34.68 19.95 M-1.51 68.13 C8.13 57.88, 16.96 49.08, 34.81 27.27 M0.53 66.64 C13.46 50.33, 28.75 35.22, 36.13 25.95 M0.72 72.36 C8.93 61.78, 20.85 49.22, 34.88 32.76 M0.43 72.33 C11.06 62.11, 20.93 48.61, 36.05 31.27 M0.5 78.55 C11.96 63.75, 23.68 49.55, 35.76 37.67 M-1.08 78.59 C11.52 66.42, 24.94 52.04, 34.48 38.93 M5.52 77.48 C11.37 71.72, 19.81 60.96, 35.16 43.23 M6.36 78.85 C14.39 67.43, 24.77 58.44, 34.41 45.05 M10.67 78.53 C17.72 69.98, 27.25 62.17, 34.58 49.75 M9.7 80.21 C18.55 71.97, 25.07 62.89, 35.35 50.05 M16.99 78.61 C23.41 70.55, 31.34 61.62, 33.21 57.95 M17.03 78.3 C20.96 74.39, 25.58 67.63, 35.88 56.9 M21.06 81.32 C26.88 74.44, 30.87 65.75, 34.51 60.77 M21.62 79.29 C24.45 75.51, 28.38 69.99, 35.79 62.83 M26.43 79.58 C30.35 74.94, 30.61 72.55, 36.34 68.66 M26.71 78.86 C29.13 75.19, 32.38 72.27, 35.32 69.22 M32.15 79.1 C32.55 77.4, 34.32 76.24, 35.34 75.69 M31.98 79.48 C32.59 78.41, 33.7 77.21, 35.13 75.55" stroke="#868e96" stroke-width="0.5" fill="none"></path><path d="M1.87 -1.32 C12.62 -0.15, 21.45 -1.66, 32.44 -1.06 M0.04 0.13 C7.91 0.55, 16.42 0.47, 33.63 -0.04 M32.58 -1.23 C34.73 19.13, 34.71 39.29, 32.79 78.85 M32.14 -0.68 C33.46 29.97, 33.57 57.77, 33.05 78.72 M32.12 80.91 C21.95 78.8, 11.65 77.52, -1.19 80.78 M32.25 79.7 C24.06 80, 16.28 78.32, -0.14 78.16 M1.36 80.03 C-0.5 54.68, 1.46 33.9, 1.75 -0.12 M-0.08 79.53 C0.23 48.77, 1.39 18.4, 0.45 0.68" stroke="#1e1e1e" stroke-width="1" fill="none"></path></g><g transform="translate(409.07500076293945 91.51639178283523) rotate(269.0556496162103 20.424999237060547 12.5)"><text x="0" y="0" font-family="Virgil, Segoe UI Emoji" font-size="20px" fill="#1e1e1e" text-anchor="start" style="white-space: pre;" direction="ltr" dominant-baseline="text-before-edge">port</text></g><g transform="translate(505.1999969482421 33.516391782835115) rotate(2.0355549961366507e-13 77.30000305175781 12.5)"><text x="0" y="0" font-family="Virgil, Segoe UI Emoji" font-size="20px" fill="#1e1e1e" text-anchor="start" style="white-space: pre;" direction="ltr" dominant-baseline="text-before-edge">Port Forwarding</text></g><g stroke-linecap="round"><g transform="translate(945.5 270.30144840961594) rotate(0 53.976642495021224 -10.72436663364823)"><path d="M0.4 0.39 C28.02 -4.61, 57.55 -9.08, 107.55 -21.84" stroke="#1e1e1e" stroke-width="2.5" fill="none" stroke-dasharray="8 10"></path></g><g transform="translate(945.5 270.30144840961594) rotate(0 53.976642495021224 -10.72436663364823)"><path d="M82.89 -4.96 C88.67 -9, 96.39 -11.97, 107.35 -21.46" stroke="#1e1e1e" stroke-width="2.5" fill="none"></path></g><g transform="translate(945.5 270.30144840961594) rotate(0 53.976642495021224 -10.72436663364823)"><path d="M78.16 -24.93 C85.05 -23.67, 94.02 -21.37, 107.35 -21.46" stroke="#1e1e1e" stroke-width="2.5" fill="none"></path></g></g><mask></mask><g stroke-linecap="round"><g transform="translate(950.5 399.61366452011174) rotate(0 49.692010110244155 -22.664296646498315)"><path d="M-0.57 0.92 C18.72 -10.44, 39.15 -17.24, 99.95 -46.25" stroke="#1e1e1e" stroke-width="2.5" fill="none" stroke-dasharray="8 10"></path></g><g transform="translate(950.5 399.61366452011174) rotate(0 49.692010110244155 -22.664296646498315)"><path d="M78.13 -24.15 C81.31 -30.37, 85.87 -32.17, 101.9 -47.13" stroke="#1e1e1e" stroke-width="2.5" fill="none"></path></g><g transform="translate(950.5 399.61366452011174) rotate(0 49.692010110244155 -22.664296646498315)"><path d="M69.49 -42.76 C74.28 -45.15, 80.62 -43.1, 101.9 -47.13" stroke="#1e1e1e" stroke-width="2.5" fill="none"></path></g></g><mask></mask><g stroke-linecap="round"><g transform="translate(949.5 424.6478749759438) rotate(0 51.97552943788469 4.307093235955563)"><path d="M-0.22 1.68 C40.27 3.73, 80.72 6.2, 104.17 6.93" stroke="#1e1e1e" stroke-width="2.5" fill="none" stroke-dasharray="8 10"></path></g><g transform="translate(949.5 424.6478749759438) rotate(0 51.97552943788469 4.307093235955563)"><path d="M75.35 17.67 C86.46 14.2, 97.68 10.43, 104.34 6.81" stroke="#1e1e1e" stroke-width="2.5" fill="none"></path></g><g transform="translate(949.5 424.6478749759438) rotate(0 51.97552943788469 4.307093235955563)"><path d="M76.22 -2.83 C87.19 1.65, 98.08 5.82, 104.34 6.81" stroke="#1e1e1e" stroke-width="2.5" fill="none"></path></g></g><mask></mask><g stroke-linecap="round"><g transform="translate(951.3655459778606 448.9771728561838) rotate(0 52.66065403771404 27.60876124485867)"><path d="M1.25 1.1 C35.82 19.05, 66.72 36.55, 104.07 54.12" stroke="#1e1e1e" stroke-width="2.5" fill="none" stroke-dasharray="8 10"></path></g><g transform="translate(951.3655459778606 448.9771728561838) rotate(0 52.66065403771404 27.60876124485867)"><path d="M75.5 51.99 C85.73 53.58, 92.06 54.76, 104.01 55.65" stroke="#1e1e1e" stroke-width="2.5" fill="none"></path></g><g transform="translate(951.3655459778606 448.9771728561838) rotate(0 52.66065403771404 27.60876124485867)"><path d="M84.55 33.57 C91.7 41.25, 95.04 48.51, 104.01 55.65" stroke="#1e1e1e" stroke-width="2.5" fill="none"></path></g></g><mask></mask><g transform="translate(888.5 27.016391782835115) rotate(0 76.43333435058594 12.5)"><text x="0" y="0" font-family="Virgil, Segoe UI Emoji" font-size="20px" fill="#1e1e1e" text-anchor="start" style="white-space: pre;" direction="ltr" dominant-baseline="text-before-edge">Label Selectors</text></g><g transform="translate(914.0666656494141 324.5163917828351) rotate(333.434948822922 76.43333435058594 12.5)"><text x="0" y="0" font-family="Virgil, Segoe UI Emoji" font-size="20px" fill="#1e1e1e" text-anchor="start" style="white-space: pre;" direction="ltr" dominant-baseline="text-before-edge">Label Selectors</text></g><g stroke-linecap="round"><g transform="translate(212.5 248.01639178283511) rotate(0 99.34959094681938 -66.12127877726113)"><path d="M-0.22 0.38 C71.5 -45.15, 142.57 -93.02, 198.92 -132.63" stroke="#1e1e1e" stroke-width="2.5" fill="none" stroke-dasharray="8 10"></path></g><g transform="translate(212.5 248.01639178283511) rotate(0 99.34959094681938 -66.12127877726113)"><path d="M181.31 -107.69 C188.88 -116, 195.7 -125.57, 198.83 -132.18" stroke="#1e1e1e" stroke-width="2.5" fill="none"></path></g><g transform="translate(212.5 248.01639178283511) rotate(0 99.34959094681938 -66.12127877726113)"><path d="M169.64 -124.56 C181.33 -126.79, 192.29 -130.39, 198.83 -132.18" stroke="#1e1e1e" stroke-width="2.5" fill="none"></path></g></g><mask></mask><g stroke-linecap="round"><g transform="translate(618.5 250.01639178283511) rotate(0 63.18887091241777 -66.51218668185174)"><path d="M-0.35 0.58 C47.47 -46.39, 90.96 -90.21, 126.73 -133.61" stroke="#1e1e1e" stroke-width="2.5" fill="none" stroke-dasharray="8 10"></path></g><g transform="translate(618.5 250.01639178283511) rotate(0 63.18887091241777 -66.51218668185174)"><path d="M115.6 -105.03 C121.56 -116.03, 124.18 -123.28, 126.46 -135.21" stroke="#1e1e1e" stroke-width="2.5" fill="none"></path></g><g transform="translate(618.5 250.01639178283511) rotate(0 63.18887091241777 -66.51218668185174)"><path d="M100.12 -118.51 C111.4 -124.69, 119.46 -127.2, 126.46 -135.21" stroke="#1e1e1e" stroke-width="2.5" fill="none"></path></g></g><mask></mask><g stroke-linecap="round"><g transform="translate(620.5 282.0163917828351) rotate(0 59.23306551016867 2.3356356699852086)"><path d="M-1.06 1.53 C41.25 2.73, 86.47 3.35, 119.53 3.08" stroke="#1e1e1e" stroke-width="2.5" fill="none" stroke-dasharray="8 10"></path></g><g transform="translate(620.5 282.0163917828351) rotate(0 59.23306551016867 2.3356356699852086)"><path d="M90.28 14.88 C99.69 11.1, 112.11 6.92, 120.06 3.16" stroke="#1e1e1e" stroke-width="2.5" fill="none"></path></g><g transform="translate(620.5 282.0163917828351) rotate(0 59.23306551016867 2.3356356699852086)"><path d="M90.27 -5.64 C99.85 -2.01, 112.27 1.22, 120.06 3.16" stroke="#1e1e1e" stroke-width="2.5" fill="none"></path></g></g><mask></mask><g stroke-linecap="round"><g transform="translate(619.5 299.0163917828351) rotate(0 61.9892787579447 54.97492474876344)"><path d="M0.82 0.81 C35.36 32.07, 69.61 61.83, 123.16 109.14" stroke="#1e1e1e" stroke-width="2.5" fill="none" stroke-dasharray="8 10"></path></g><g transform="translate(619.5 299.0163917828351) rotate(0 61.9892787579447 54.97492474876344)"><path d="M96.05 99 C103.08 102, 110.16 102.86, 124.31 107.28" stroke="#1e1e1e" stroke-width="2.5" fill="none"></path></g><g transform="translate(619.5 299.0163917828351) rotate(0 61.9892787579447 54.97492474876344)"><path d="M109.62 83.61 C112.78 91.15, 115.94 96.45, 124.31 107.28" stroke="#1e1e1e" stroke-width="2.5" fill="none"></path></g></g><mask></mask><g transform="translate(555.5 169.01639178283511) rotate(319.1749752133675 66.75833129882812 12.5)"><text x="0" y="0" font-family="Virgil, Segoe UI Emoji" font-size="20px" fill="#1e1e1e" text-anchor="start" style="white-space: pre;" direction="ltr" dominant-baseline="text-before-edge">Ingress Rules</text></g><g transform="translate(562.741668701172 356.5163917828351) rotate(41.93351449887412 66.75833129882807 12.5)"><text x="0" y="0" font-family="Virgil, Segoe UI Emoji" font-size="20px" fill="#1e1e1e" text-anchor="start" style="white-space: pre;" direction="ltr" dominant-baseline="text-before-edge">Ingress Rules</text></g><g transform="translate(948.0666656494141 196.51639178283511) rotate(340.5599651718238 76.43333435058594 12.5)"><text x="0" y="0" font-family="Virgil, Segoe UI Emoji" font-size="20px" fill="#1e1e1e" text-anchor="start" style="white-space: pre;" direction="ltr" dominant-baseline="text-before-edge">Label Selectors</text></g></svg>