<svg version="1.1" xmlns="http://www.w3.org/2000/svg" viewBox="0 0 1106 391.0377358490566" width="1106" height="391.0377358490566" filter="invert(93%) hue-rotate(180deg)">
  <!-- svg-source:excalidraw -->
  
  <defs>
    <style class="style-fonts">
      @font-face {
        font-family: "Virgil";
        src: url("https://excalidraw.com/Virgil.woff2");
      }
      @font-face {
        font-family: "Cascadia";
        src: url("https://excalidraw.com/Cascadia.woff2");
      }
    </style>
    
  </defs>
  <g stroke-linecap="round" transform="translate(10 10) rotate(0 142.5 185.5188679245283)"><path d="M0 0 C0 0, 0 0, 0 0 M0 0 C0 0, 0 0, 0 0 M1.32 13.52 C2.36 9.9, 5.78 4.36, 11.05 0.61 M0.78 12.22 C4.29 7.25, 7.46 3.37, 10.25 0.22 M1.98 23.67 C6.02 19.42, 8.04 13.76, 22.29 0.95 M0.4 24.71 C7.39 15.35, 17.06 6.58, 21.5 0.22 M-1.43 36.94 C7.77 26.76, 17.27 15.52, 32.57 0.91 M0.04 36.71 C6.13 29.93, 13.47 21.54, 30.91 0 M-1.81 49.6 C10.76 36.76, 23.77 23.72, 41.46 0.18 M-0.6 48.44 C15.97 31.9, 31.93 13.76, 42.89 -0.78 M-1.2 59.05 C11.83 46.61, 23.41 33.52, 53.95 0.11 M0.14 60.31 C20.56 37.57, 40.3 13.71, 52.31 -0.31 M-0.98 73.25 C15.39 56.13, 29.34 37.26, 65.51 -2.09 M-0.32 73.45 C23.78 45.73, 45.91 20.2, 64.45 -0.12 M-1.52 85.51 C28.28 54.47, 56.24 22.44, 73.04 -1.26 M0.61 84.91 C30.11 50.6, 57.68 17.21, 74.04 0.4 M0.04 99.34 C33.07 60.22, 68.67 19.73, 83.76 1.71 M-0.94 97.88 C30.68 62.39, 62.65 27.13, 85.25 0.5 M1.39 111.49 C40.42 65.06, 77.15 21.67, 94.19 0.05 M-0.7 109.15 C30.97 71.74, 63.5 35, 94.77 -0.51 M-1.96 120.52 C30.11 88.86, 58.28 54.86, 107.09 -0.95 M0.94 121.11 C38.92 78.73, 75.17 37.17, 105.79 -0.77 M-1.12 133.84 C37.45 94.87, 73.25 51.48, 117.71 0.97 M-0.54 133.2 C24.29 104.73, 49.63 76.99, 116.44 0.35 M0.45 144.57 C43.49 96.95, 86.65 48.09, 125.36 0.04 M0.71 146.12 C35.13 103.8, 72.61 63.24, 126.38 -0.28 M-0.7 158.36 C37.79 115.98, 73.05 75.49, 136.57 -0.79 M0.13 159.03 C48.45 104.07, 96.66 48.59, 137.88 0.41 M1.07 170.29 C44.52 122.13, 85.79 73.4, 147.99 0.44 M0.6 170.26 C45.44 120.47, 89.46 69.62, 148.65 1.06 M-0.81 183.42 C54.18 117.82, 111.83 54.31, 158.02 -0.72 M0.51 183.39 C33.86 143.59, 67.55 103.91, 158.21 0.62 M0.89 194.79 C68.69 119.8, 134.76 44.68, 169.83 0.24 M-0.59 195.41 C53.5 132.15, 108.21 69.51, 169.13 -0.03 M0.33 208.03 C39.37 161.67, 79.05 114.48, 180.57 -0.05 M0.37 206.48 C41.43 162.86, 80.55 117.92, 179.55 -0.19 M0.24 221.07 C65.02 145.76, 132.99 70.81, 192.06 -1.09 M-0.94 219.82 C41.8 169.28, 84.96 118.02, 191.43 -0.57 M-0.77 231.53 C49.88 176.67, 100.4 119.94, 200.59 0.95 M0.44 231.38 C49.02 172.89, 99.79 115.23, 202 -0.49 M-0.67 243.7 C42.16 194.46, 85.07 147.58, 212.42 0.15 M0.48 243.23 C65.79 166.29, 132.68 89.6, 211.55 -0.58 M0.2 255.41 C82.37 159.91, 166.83 64.26, 222.58 1.33 M0.65 256.16 C89.88 154.31, 178.57 52.13, 222.24 -0.27 M0.95 267.61 C55.98 201.49, 114.36 134.42, 232.89 -1.13 M0.71 267.57 C51.57 211.06, 100.11 153.4, 232.66 -0.23 M0.13 280.82 C68.82 201.55, 134.54 125.67, 242.72 0.94 M-0.41 280.61 C52.75 221.25, 105.65 160.58, 244.02 -0.02 M0.12 292.41 C83.58 199.57, 166.58 102.77, 254.68 -0.34 M-0.19 292.77 C96.71 181.9, 193.61 69.83, 254.96 -0.37 M1.07 304.74 C99.95 188.03, 199.17 73, 264.34 -0.85 M-0.09 304.75 C64.45 232.99, 127.61 160.41, 264.9 0.11 M0.84 317.3 C87.7 214.6, 174.76 112.71, 275.14 -0.83 M0.13 316.92 C58.24 249.18, 117.9 181.31, 276.07 -0.62 M-0.41 328.93 C68.22 251.82, 135.57 171.82, 285.24 0.86 M0.57 329.26 C82.42 235.62, 163.64 141.89, 285.58 0.38 M0.04 340.74 C73.95 257.78, 146.17 173.58, 285 12.81 M0.07 341.89 C92.77 232.87, 186.69 125.78, 285.39 12.51 M0.53 353.85 C112.12 223.92, 226.52 95.56, 285.87 25.47 M-0.11 353.3 C102.26 236.92, 202.46 120.6, 285.89 24.16 M0.83 366.01 C59.53 298.18, 118.69 228.57, 285.23 38 M0.25 365.6 C77.81 278.03, 154.68 189.83, 285.61 37.77 M4.33 373.92 C81.54 284.3, 159.35 196.11, 286.45 50.03 M3.24 373.95 C93.91 272.44, 184.11 168.74, 285.08 49.11 M14.29 372.9 C121.6 249.49, 230.43 125.64, 285.18 61.12 M14.09 374.07 C74.05 306.23, 133.87 237, 286.11 61.26 M24.47 373.95 C107.45 280.4, 188.89 187.5, 285.96 74.14 M24.31 374.09 C86.51 303.27, 147.81 233.18, 285.5 73.12 M35.1 373.72 C108.11 291.33, 181.38 208.39, 285.18 86.34 M35.89 374.09 C105.96 289.32, 179.02 205.4, 286.16 85.66 M45.96 372.69 C102.79 309, 158.65 244.17, 285.11 98.73 M46.27 373.62 C102.62 308.19, 159.13 242.07, 284.84 97.84 M55.57 373.48 C120.21 296.68, 188.07 221.75, 285.7 109.95 M56.98 373.75 C105.62 316.1, 154.31 260.54, 285.22 111.03 M67.03 374.61 C143.71 285.02, 220.58 196.16, 284.4 123.53 M67.89 373.75 C120.98 312.61, 176.36 248.34, 286.3 122.08 M76.9 372.44 C131.06 311.28, 186.33 249.3, 284.97 135.56 M77.49 374.43 C131.67 312.06, 184.55 249.02, 285.83 134.66 M89.25 373.98 C145.43 307.2, 204.93 241.22, 285.48 145.79 M88.55 373.06 C140.27 315.23, 192.06 255.88, 285.9 146.54 M98.08 374.78 C174.81 289.19, 246.48 205.46, 286.36 160.84 M99.09 374.36 C160.35 302.75, 221.09 232.16, 285.61 158.64 M111.29 374.01 C155.47 321.07, 201.02 270.18, 286.43 170.2 M109.38 373.44 C152.09 324.06, 196 275.26, 285.59 172.07 M119.22 376.01 C175.8 310.46, 234.32 245.7, 285.64 182.35 M119.24 373.85 C161.16 328.78, 201.98 284.01, 285.64 183.72 M132 372.97 C185.95 309.55, 241.74 245.71, 287.34 194.48 M130.78 374.57 C170.07 330.41, 208.84 284.09, 285.08 195.05 M139.65 375.53 C181.98 328.29, 225.95 276.83, 285.02 207.07 M140.18 373.71 C178.91 331.11, 216.7 287.09, 285.36 207.3 M151.78 375.02 C188.35 326.63, 230.21 281.33, 284.09 221.67 M152.22 374.24 C195.84 324.73, 240.09 274.34, 285.37 219.91 M162.27 374.33 C196.62 335.96, 230.99 294.92, 285.31 232.52 M161.48 374.24 C206.22 320.82, 252.87 268.7, 285.58 233.07 M174.21 372.73 C201.56 339.85, 233.1 305.12, 286.5 245.47 M171.99 374.03 C214.11 324, 256.73 274.09, 284.97 244.41 M184.37 373.57 C216.88 339.36, 246.38 303.99, 285.45 254.85 M183.6 374.17 C223.73 329.17, 264.42 283.06, 286 255.96 M195.86 374.12 C218.62 347.94, 242.23 320.93, 286.93 267.36 M193.54 373.82 C221.35 341.17, 248.59 309.56, 286.83 268.67 M205.08 373.7 C234.5 340.3, 261.62 304.12, 286.76 281.09 M205.56 374.25 C224.11 351.29, 245.93 326.99, 284.78 281.51 M214.65 375.75 C241.01 344.33, 267.44 317.68, 285.39 294.54 M215.92 373.24 C233.44 353.65, 251.42 331.22, 285.94 293.97 M224.36 375.88 C241.87 357.98, 254.95 339.39, 284.9 305.23 M226.47 374.61 C247.82 348.89, 268.39 324.74, 285.26 305.05 M236.08 375.98 C248.25 359.68, 262.6 343.34, 286.59 318.7 M236.61 374.69 C247.07 360.99, 258.25 348.82, 286.23 317.68 M248.74 372.2 C260.89 356.6, 274.3 340.11, 286.55 332.17 M246.39 373.72 C261.41 357.95, 277.84 340.59, 285.59 330.75 M259.23 373.1 C268.38 361.88, 276.62 353.64, 285.25 343.46 M258.51 374.4 C263.1 366.98, 269.36 360.5, 284.98 341.5 M269.36 375.64 C273.73 367.09, 279.71 363.01, 284.56 353.71 M269.34 373.3 C273.78 369.17, 278.08 363.69, 285.03 354.56 M278.99 374.58 C280.83 370.98, 283.29 368.26, 285.52 367.33 M279.09 373.63 C280.78 371.92, 282.48 370.08, 285.39 366.36" stroke="#868e96" stroke-width="1" fill="none"></path><path d="M-0.21 0.28 C61.41 2.02, 124.13 2.56, 286.08 -0.62 M-0.34 -0.39 C74.12 -0.01, 149.67 0.06, 284.41 -0.27 M285.77 0.17 C286.37 148.28, 286.49 295.05, 286.21 370.25 M285.59 0.2 C283.45 90.28, 283.89 182.11, 285.24 371 M286.38 369.82 C225.51 369.67, 167.55 371.62, -1.07 370.47 M284.54 371.03 C177.52 369.08, 68.66 369.78, -0.31 371.62 M-0.3 370.32 C2.78 231.66, 3.15 94.67, -0.53 0.14 M-0.57 370.56 C-0.64 225.05, -0.37 78.68, 0.56 0.46" stroke="#343a40" stroke-width="2" fill="none"></path></g><g stroke-linecap="round" transform="translate(28.820754716981128 282.9009433962264) rotate(0 125.69575471698113 42.34669811320754)"><path d="M0 0 C0 0, 0 0, 0 0 M0 0 C0 0, 0 0, 0 0 M-0.18 5.9 C1.72 5.04, 2.76 3.92, 4.46 -0.01 M-0.14 6.75 C1.2 4.5, 3.57 2.63, 5.36 0.03 M-1.4 12.17 C2.35 10.69, 4.06 5.27, 12.22 -1.54 M-0.24 11.89 C2.38 9.71, 5.55 6.83, 10.23 0.44 M1.37 17.29 C3.04 12.33, 6.73 10.16, 17.52 -1.29 M-0.64 18.34 C3.42 14.17, 6.94 11.91, 15.96 0.39 M1.53 22.35 C7.2 16.56, 15.03 8.27, 20.11 -1.93 M0.29 23.74 C7.67 15.05, 15.79 6.83, 21.26 0.9 M1.44 31.32 C9.47 20.01, 19.78 7.71, 25.24 -0.61 M0.51 30.24 C5.71 22.85, 12.7 14.88, 26 -0.58 M1.02 35.78 C8.04 30.55, 12.53 19.75, 30.19 -0.81 M0.03 36.96 C9.48 25.69, 17.3 16.46, 30.98 0.7 M-0.5 42.18 C8.24 32.97, 17.38 23.03, 37.48 0.33 M0.31 42.23 C12.96 29.94, 24.81 15.17, 37.06 0.03 M-0.48 48.99 C17.5 32.09, 32.86 12.38, 44.2 -1.15 M0.78 48.87 C16.17 29.92, 30.94 12.12, 41.85 -0.81 M-0.23 54.4 C11.23 42.03, 22.49 29.35, 46.81 0.99 M0.89 54.99 C15.22 37.22, 29.36 19.34, 46.95 -0.43 M-0.19 61.29 C9.57 49.56, 23.93 35.9, 54.42 -1.96 M-0.7 61.01 C12.97 47.39, 24.4 31.76, 52.7 0.11 M0.73 68.85 C18.41 49.76, 34.33 30.3, 57.68 -0.61 M-0.01 66.44 C15.33 50.64, 29.36 33.4, 57.32 0.37 M1.24 73.85 C19.71 47.22, 42.6 24.64, 62.01 -0.64 M0.74 73.14 C24.48 43.59, 51.15 16.11, 63.69 0.6 M-0.25 77.75 C26.44 50.49, 47.86 21.67, 68.47 -1.81 M0.64 79.65 C13.99 63.39, 27.99 45.77, 68.56 0.69 M1.04 84.44 C20.22 61.07, 40.17 39.01, 75.05 0.98 M1.11 84.94 C21.21 61.22, 41.8 38.82, 75.26 0.28 M5 84.36 C28.34 60.12, 54.31 30.48, 77.46 -1.39 M6.09 83.65 C34.8 50.94, 64.71 17.77, 78.91 -0.26 M10.88 85.33 C26.77 66.3, 42.39 46.78, 86.51 -1.31 M10.67 85 C34.94 58.48, 57.93 32.72, 85.15 0.22 M15.05 85.09 C33.43 64.84, 50.69 46.5, 88.83 -1.52 M16.33 84.45 C37.72 60.48, 59.73 36.29, 89.36 0.69 M23.3 85.55 C41.15 60.66, 64.1 34.65, 96.28 -0.16 M21.51 84.01 C39.35 64.79, 56.8 44.26, 95.39 -0.06 M27.41 84.47 C45.33 63.43, 59.48 43.61, 98.68 -1.8 M25.72 85.05 C46.31 60.1, 68.93 36.48, 100.75 -0.34 M33.28 84.65 C48.99 64.85, 64.15 48.81, 105.16 1.42 M32 85.53 C57.8 54.74, 83.79 24.53, 105.33 0.42 M39.04 85.1 C54.43 66.11, 74.64 41.18, 112.99 -1.2 M36.46 84.35 C55.96 62.9, 76.25 40.7, 110.66 0.74 M41.69 86.75 C63.29 63.9, 78.8 39.78, 116.2 0.73 M43.3 85.06 C63.66 59.91, 86.42 35.41, 115.93 -0.16 M47.88 83.39 C65.98 64.66, 86.34 41.89, 121.68 -0.13 M47.08 85.96 C78.36 51.5, 106.49 18.3, 122.51 0.95 M53.3 86.58 C77.68 56.9, 100.99 28.19, 127.3 -1.59 M54.39 85.08 C72.53 62.76, 91.62 41.75, 127.44 -0.43 M57.41 84.63 C75.36 63.93, 96.17 44.35, 132.54 1.63 M58.09 86.22 C83.35 56.78, 109.83 27.9, 132.49 -0.73 M62.8 83.48 C82.22 63.45, 101.56 46.57, 137.33 0.96 M65.02 84 C90.26 54.09, 116.65 23.94, 138.42 -0.3 M70.01 85.7 C89.19 65.54, 105.92 42.2, 141.31 -1.15 M68.26 85.89 C89.88 61.85, 112.47 35.35, 142.61 -0.36 M72.79 83.36 C93.24 63.81, 112.3 40.61, 146.7 -0.28 M74.77 85.21 C94.74 58.55, 117.75 33.67, 147.39 1.02 M80.97 85.05 C103.66 57.78, 128.42 30.46, 153.59 -1.08 M79.68 85.2 C100.27 61.99, 121 37.39, 153.66 -0.05 M83.75 84.73 C110.23 52.72, 139.34 22.33, 158.74 1.64 M85.97 84.02 C104.04 62.44, 124.27 39.94, 159.18 0.77 M88.5 84.74 C116.61 52.29, 144.23 18.75, 162.91 -0.17 M90.73 84.82 C114.03 59.89, 135.66 34.29, 164.23 -0.96 M96.09 84.69 C124.41 52.83, 154.98 19.06, 169.67 -0.78 M96.8 84.71 C115.33 63.82, 134.13 42.27, 169.89 -0.36 M99.69 84.43 C122.27 57.29, 143.79 32, 176.71 0.15 M101.08 84.88 C127.75 53.86, 153.62 21.62, 175.71 -0.29 M108.11 84.95 C123.11 64.13, 144.2 41.49, 178.65 0.6 M106.2 85.53 C133.5 53.82, 160.44 24.71, 179.94 0.77 M112.57 83.36 C130.73 64.31, 149.15 39.61, 186.34 1.05 M110.72 85.97 C130.62 64.16, 148.28 42.07, 185.28 -0.3 M118.04 85.79 C144.23 53.27, 169.09 23.69, 189.7 -0.52 M116.91 85.64 C134.94 63.03, 154.6 40.49, 191.04 0.78 M122.05 86.36 C137.68 65, 154.6 46.91, 197.03 0.28 M122.91 84.13 C149.99 52.02, 177.52 19.82, 196.92 0.72 M126 84.1 C155 53.73, 186.84 20.18, 201.79 1.18 M128.48 84.2 C152.9 55.97, 176.45 29.5, 201.19 0.71 M133.96 85.89 C147.23 66.4, 163.8 48.78, 205.94 -1.8 M133.22 85.85 C156.2 57.8, 179.38 32.53, 206.42 -0.59 M139.36 84.12 C159.3 62.71, 179.35 38.58, 210.76 0.6 M137.61 86.05 C162.55 56.6, 188.04 27.38, 211.7 1.06 M143.03 83.95 C161.08 64.07, 179.45 43.38, 216.13 -0.23 M142.52 85.07 C160.86 63.78, 179.49 42.26, 218.36 0.4 M149.35 84.41 C171.39 60.57, 193.58 31.45, 223.37 0.23 M147.73 85.72 C175.85 53.05, 203.77 21.29, 222.17 0.8 M154.89 86.17 C169.38 68.51, 182.82 51.07, 226.56 0.52 M153.96 84.18 C179.91 53.22, 206.24 24.21, 229.09 -0.77 M157.18 84.4 C188.05 52.69, 215.32 20.01, 231.31 0.17 M158.13 84.98 C179.54 61.19, 200.81 38.25, 233.48 0.34 M164.08 83.76 C191.58 53.97, 219.34 20.84, 237.45 1.35 M164.01 85.04 C181.41 65.75, 197.4 46.94, 239.15 0.18 M170.58 83.34 C190.6 61.65, 212.47 34, 245.13 0.09 M169.53 84.76 C186.01 65.86, 202.19 46.84, 242.85 0.54 M176.07 83.54 C196.43 61.84, 218.17 34.37, 246.89 -0.53 M175.43 83.95 C192.13 67.7, 205.65 49.12, 248.8 0.21 M181.2 87.09 C204.02 58.91, 227.02 32.85, 255.02 2.78 M180.48 84.97 C205.76 55.17, 232.7 25.32, 253.43 1.24 M185.19 85.91 C206.05 60.29, 227.73 37.94, 254.35 6.51 M186.26 84.67 C205.17 63.81, 223.81 42.3, 252.59 8.03 M190.62 86.1 C203.56 71.28, 218.42 53.53, 251.47 14.17 M190.29 85.48 C212.14 61.76, 233.01 37.44, 254.15 14.26 M196.73 82.85 C209.88 71.04, 221.02 59.17, 253.04 21.37 M196.85 85.41 C217.91 58.04, 240.38 32.34, 252.71 20.01 M200.28 85.41 C214.42 70.04, 225.74 58.62, 254.99 26.16 M202.09 85.09 C222.59 61.62, 242.62 38.29, 254.28 25.26 M208.83 83.97 C218.19 75.43, 227.57 61.95, 251.39 30.03 M206.85 83.82 C221.34 68.2, 235.6 51.47, 253.45 30.93 M213.57 86.65 C223.69 74.06, 233.92 57.74, 251.09 37.56 M211.8 84.57 C224.32 71.32, 235.92 57.44, 253.53 37.66 M218.59 86.43 C229.12 68.88, 242.33 56.66, 253.81 45.6 M218.21 84.02 C231.01 69.59, 244.5 53.05, 252.97 43.08 M221.76 86.07 C231.62 73.17, 243.88 60.09, 252.21 50.51 M223.13 85.63 C233.89 73.85, 242.92 60.1, 252.91 50.11 M227.98 85.03 C237.69 76.59, 242.71 67.93, 254.6 57.78 M228.15 85.59 C237.1 73.57, 245.76 63.57, 254.21 56.7 M234.03 84.47 C241.75 75.71, 246.18 71.14, 251.71 61.01 M232.6 85.94 C240.28 76.64, 249.72 68.04, 253.72 61.92 M237.88 86.13 C243.36 81.59, 247.06 78.48, 251.33 67.6 M238.23 84.54 C244.35 77.85, 249.42 72.9, 253.27 69.71 M243.67 85.2 C247.32 79.85, 250.52 75.88, 252.73 74.07 M244.39 84.39 C245.71 82.81, 249.05 79.88, 253.26 74.94 M249.84 84.88 C251.37 82.85, 251.96 81.36, 253.13 81.24 M249.64 84.54 C250.77 83.34, 252.07 81.79, 253.03 81.07" stroke="#868e96" stroke-width="0.5" fill="none"></path><path d="M0.69 0.19 C71.23 -0.16, 145.33 2.36, 250.53 -1.01 M-0.21 -0.2 C67.3 -0.22, 133.72 0.62, 250.95 -0.5 M252.22 0.53 C252.84 30.6, 251.64 61.88, 252.18 84.92 M252.08 -0.32 C252.1 23.83, 251.36 48.23, 251.29 84.79 M252.73 83.59 C176.63 82.8, 99.7 83.79, 0.92 86.2 M250.98 84.96 C162.8 86.09, 75.95 86.26, -0.38 84.22 M1.15 85.93 C0.04 66.39, -2.16 48.26, -1.4 0.91 M0.45 84.61 C1.49 51.49, 1.56 18.96, 0.25 0.02" stroke="#343a40" stroke-width="1" fill="none"></path></g><g stroke-linecap="round" transform="translate(28.820754716981128 118.89150943396226) rotate(0 123.67924528301887 67.21698113207546)"><path d="M0 0 C0 0, 0 0, 0 0 M0 0 C0 0, 0 0, 0 0 M-0.12 6.16 C2.21 5.17, 3.8 2.43, 5.13 0.18 M-0.33 6.41 C2.03 4.46, 3.85 1.96, 5.32 0.16 M1.59 11.97 C4.82 7.12, 6.49 3.92, 9.55 -1.1 M-0.07 11.98 C2.43 9.29, 4.94 6.51, 10.35 0.27 M1.1 19.3 C4.95 13.47, 8.04 6.67, 14.51 -0.97 M-0.23 18.6 C2.37 15.43, 7.23 11.26, 16.25 -0.57 M-1.16 24.19 C6.58 19.79, 8.9 12.16, 20.36 0.49 M0.76 24.83 C7.25 17.97, 12.86 10.94, 21.03 -0.47 M0.49 28.64 C7.64 23.93, 12.55 16.07, 24.6 0.67 M0.55 30.9 C7.97 19.72, 17.59 10.53, 25.36 0.07 M0.94 37.15 C10.71 20.6, 26.53 8.79, 31.71 1.5 M-0.32 36.05 C12.2 23.36, 22.09 9.88, 31.74 -1.08 M1.65 43.03 C7.03 34.23, 13.94 23.23, 36.46 1.33 M0.52 42.22 C10.02 30.63, 19.91 19.71, 37.19 0.87 M1.55 48.72 C12.86 34.82, 24.98 23.44, 44.21 0.9 M-0.58 48.77 C13.01 34.53, 27.87 17.56, 41.55 -0.89 M0.61 52.57 C18.64 32.89, 38.78 12.22, 46.52 -0.54 M0.26 54.72 C10.46 42.73, 20.51 30.38, 48.24 -0.3 M-0.45 60.96 C18.18 41.8, 34.42 24.51, 53.36 0.81 M-0.74 61.2 C12.38 46.62, 24.86 33.02, 52.55 -0.98 M-0.69 67.03 C15.85 48.07, 34.32 29.09, 56.81 1.39 M0.63 67.65 C15.49 47.9, 33.14 27.79, 58.44 0.26 M0.1 71.08 C15.43 55.93, 30.68 37.46, 63.23 0.29 M0.58 72.57 C15.66 54.91, 29.14 37.64, 62.79 -1.13 M-1.73 78.83 C17.33 55.6, 39.55 34.85, 68.95 -0.62 M0.44 79.25 C15.03 61.31, 29.41 45.47, 68.2 1.04 M-0.06 86.22 C25.28 54.68, 51.09 24.36, 72.47 1.29 M1.22 84.94 C18.02 65.08, 37.43 41.92, 75.26 -0.85 M-1.38 89.53 C19.9 67.46, 42.71 43.5, 78.14 1.56 M-0.54 92.36 C21.07 68.24, 39.93 43.41, 79.36 0.29 M0.77 98.15 C23.21 68.23, 50.77 39.9, 84.35 -1.35 M-0.2 96.9 C21.71 73.11, 44.44 47.28, 84.92 -0.33 M-1.25 104.88 C37.79 62.22, 71.13 22.18, 91.21 2.01 M0.08 104.34 C29.73 69.17, 58.79 34.79, 90.22 -0.88 M1.81 110.3 C24.59 80.79, 49.61 53.94, 96.74 -1.85 M-0.62 109.58 C22.62 82.7, 47.33 56.45, 95.67 0.53 M-0.37 117.51 C33.69 77.01, 70.36 37.99, 100.55 -1.31 M-0.35 114.84 C25.42 87.7, 50.5 61.54, 100.55 0.38 M1.96 120.26 C37.41 77.06, 75.63 33.5, 108.06 -1.55 M0.5 122.17 C27.4 92.34, 53.44 60.34, 105.36 -0.88 M-1.81 129.71 C31.11 93.64, 65.56 52.99, 110.16 -0.53 M-1.19 127.6 C28.82 95.25, 57.87 61.19, 110.55 -0.26 M0.31 134.78 C31.55 92.15, 68.51 52.82, 114.72 1.87 M0.8 133.9 C38.47 91.07, 76.9 47.44, 116.16 -0.1 M3.18 136.66 C36.27 99.77, 69.33 60.22, 121.62 0.13 M2.39 136.56 C45.45 85.13, 90.4 34.97, 121.89 0.68 M9.47 135.45 C38.34 100.79, 71.43 64.28, 127.67 1.4 M7.25 136.75 C51.56 84.09, 96.42 31.59, 126.14 0.34 M13.99 136.68 C51.74 96.67, 86.35 55.42, 132.13 -1.66 M13.21 137.28 C60.11 84.73, 107.4 31.01, 132.67 -0.55 M20.49 136.87 C50.23 103.08, 80.67 68.21, 138.46 -0.83 M18.17 136.58 C54.1 94.55, 89.42 53.63, 138.36 0.48 M24.07 136.85 C67.19 87.04, 108.41 34.65, 144.45 -0.29 M24.54 137.39 C52.83 103.38, 84.59 67.65, 142.47 0.13 M28.66 138.53 C72.88 86.88, 116.68 40.27, 147.94 1.48 M29.92 136.02 C59.82 101.7, 90.63 64.49, 148.49 0.91 M32.72 139.07 C65.26 103.82, 93.33 67.99, 152.96 -0.27 M34.82 137.8 C77.65 87.47, 119.39 38.97, 153.32 -0.45 M39.45 138.8 C68.62 101.92, 100.73 65.14, 159.51 1.53 M39.98 137.51 C65.62 106.54, 92.4 76.41, 159.15 0.51 M46.47 135.42 C89.62 83.94, 133.78 32.08, 165.63 1.8 M44.12 136.94 C91.22 85.17, 139.05 31.68, 164.67 0.38 M51.97 135.95 C91.43 90.19, 129.35 47.8, 169.18 1.42 M51.25 137.25 C75.42 107.55, 101.09 78.75, 168.92 -0.55 M56.46 138.89 C93.27 93.25, 130.75 52.93, 174 -0.77 M56.44 136.55 C89.17 98.79, 122.75 59.63, 174.47 0.08 M60.9 138.18 C100.69 90.57, 141.61 43.71, 179.57 2.16 M61.1 136.27 C89.37 104.08, 118.34 70.98, 179.32 0.22 M64.42 137.36 C93.98 102.97, 124.04 68.2, 187.24 1.23 M66.75 136.68 C103.2 95.17, 140.58 50.35, 186.1 -0.12 M70.51 137.56 C115.93 84.86, 160.83 33.91, 189.87 1.67 M72.34 137.36 C95.83 109.89, 119.25 81.95, 189.86 0.58 M76.68 135.62 C118.39 85.78, 160.78 39.58, 198.08 -1.07 M75.98 136.66 C122.13 84.08, 167.07 31.73, 195.38 -0.18 M80.68 136.1 C115.21 97.88, 149.56 61.42, 201.87 0.79 M82.25 136.14 C126.14 86.22, 170.47 34.62, 200.94 0.59 M86.16 137.38 C114.66 106.09, 140.39 75.67, 208.87 -0.64 M87.99 136.11 C121.61 97.55, 156.63 56.02, 207.61 -0.23 M92.87 135.7 C119.11 105.34, 144.92 74.82, 209.97 1.23 M93.56 136.01 C127.14 98.18, 162.13 56.7, 210.98 -0.36 M98.35 135.24 C125.79 109.53, 147.14 78.9, 217.54 -0.55 M98.62 137.97 C136.14 93.87, 173.36 51.25, 218.52 0.34 M104.13 136.16 C145.21 87.53, 189.47 38.89, 223.13 -0.36 M103.44 137.18 C140.38 94.24, 177.13 53.26, 223.3 -0.63 M109.38 136.71 C142.94 99.58, 176.1 61.29, 227.62 0.03 M108.64 137.46 C133.79 108.15, 160.29 77.34, 227.31 -0.02 M113.12 137.21 C154.81 92.04, 194.58 45.67, 234.93 1.56 M114.52 135.63 C140.42 108.54, 165.11 80.61, 233.21 0.74 M119.93 138.21 C164.38 80.76, 211.64 26.67, 237.57 0.62 M118.79 137.09 C146.87 104.71, 173.31 75.09, 238.98 0.68 M126.09 136.47 C173.27 82.7, 219.35 29.11, 245.55 -0.56 M125.89 136.17 C149.78 108.43, 174.25 78.93, 242.95 -0.98 M129.31 135.07 C166.48 94.37, 203.42 51.24, 248.76 -0.89 M130.75 137.7 C162.58 100.92, 194.67 61.72, 247.26 0.7 M134.22 136.21 C168.72 98.82, 201.22 60.34, 249.83 5.42 M135.43 138.15 C175.15 89.64, 216.24 43.85, 248.82 7.54 M141.39 135.51 C181.36 90.69, 222.5 41.33, 247.66 11.37 M140.16 137.39 C176.56 93.54, 214.6 50.29, 247.89 13.19 M146.25 138.36 C182.62 97.89, 215.09 53.82, 247.79 19.02 M145.43 137.43 C179.42 99.87, 210.84 62.29, 248.63 20.4 M150.66 138.68 C185.11 95.5, 219.39 55.97, 250.01 26.56 M151.61 136.57 C183.76 99.1, 215.02 63.41, 247.7 24.47 M154.55 139.02 C190.6 96.93, 229.99 56.15, 249.28 30.61 M155.7 137.96 C178.01 114.78, 198.58 91.69, 247.39 30.96 M160.18 136.62 C193.3 98.33, 224.68 63.99, 249.31 39.04 M161.65 136.96 C194.04 99.15, 226.06 62.12, 248.16 36.94 M167.75 135.44 C185.18 115.1, 208.97 90.35, 248.2 45.03 M167.12 137.72 C197.15 102.06, 225.68 67.61, 248.5 44.41 M171.64 136.27 C198.03 107.3, 225.64 75.18, 247.99 51.85 M171.77 136.56 C195.77 109.04, 221.55 80.04, 247.52 49.57 M176.06 136.76 C197.2 113.71, 216.94 91.61, 247.66 55.24 M178.05 136.5 C202.35 107.5, 227.28 79.62, 247.99 56.49 M183.28 137.49 C198.84 120.01, 212.74 101.23, 250.05 63.67 M183.44 136.67 C202.05 115.65, 219.1 96.07, 248.45 61.88 M189.29 138.05 C208.8 114.13, 229.23 89.8, 249.41 69.14 M187.28 136.86 C208.05 115.04, 229.25 91.81, 248.81 67.25 M191.97 135.06 C214.79 112.48, 232.45 91.68, 247.1 75.33 M193.04 136.89 C208.47 119.55, 221.87 104.92, 249.13 73.42 M198.83 138.27 C211.13 120.42, 225.22 106.72, 247.11 80.28 M199.08 137.18 C215.86 116.88, 234.77 96.36, 247.24 80.75 M203.15 136.62 C216.25 126.03, 227.41 112.31, 247.02 84.83 M204.95 136.12 C218.52 120.57, 231.13 104.34, 248.82 85.81 M207.69 138.29 C221.83 124.52, 231.78 111.43, 246.99 90.85 M210.15 136.63 C221.02 125.64, 232.27 111.77, 248.45 93.14 M216.87 136.76 C226.99 121.63, 242.75 107.04, 247.28 98.08 M214.46 137.56 C221.5 127.78, 230.26 120.62, 248.25 98.45 M220.46 138.9 C229.7 129.43, 237.89 119.82, 249.91 106.2 M220.66 136.18 C231.75 125.27, 242.75 111.23, 247.62 104.09 M225.76 134.97 C232.71 128.98, 239.26 117.88, 248.26 111.64 M224.85 135.68 C233.98 127.41, 242.86 116.79, 247.93 110.29 M229.31 138.76 C236.51 130.62, 242.27 122.3, 247.98 117.86 M231.22 137.59 C237.15 129.03, 243.94 123, 247.53 116.83 M236.98 137.51 C242 132.76, 246.36 127.25, 249.77 123.64 M236.33 137.21 C240.49 132.02, 244.72 126.15, 247.86 123.74 M240.63 136.69 C244.19 133.31, 246.54 132.07, 249.29 129.51 M241.66 136.65 C244.59 133.35, 246.58 130, 248.76 128.21" stroke="#868e96" stroke-width="0.5" fill="none"></path><path d="M-0.77 -0.3 C59.87 2.19, 121.82 2.37, 246.54 0.97 M0.61 -0.47 C62.22 -0.39, 124.58 0.6, 248.14 -0.66 M246.34 -0.2 C249.16 25.53, 249.88 55.17, 248.05 134.56 M247.99 -0.87 C248.27 42.27, 248.9 84.07, 246.78 133.5 M247.4 133.87 C153.15 133.07, 59.75 134.6, 0 136.03 M247.95 134.78 C148.14 135.07, 49.36 134.97, -0.41 134.06 M1.01 133.96 C-2.2 100.71, -1.23 66.4, -0.49 -1.75 M0.64 133.89 C1.83 106.81, 0.68 76.87, -0.85 -0.35" stroke="#343a40" stroke-width="1" fill="none"></path></g><g transform="translate(110.82547169811323 39.57547169811323) rotate(0 33.44166564941406 23.525943396226413)"><text x="0" y="0" font-family="Virgil, Segoe UI Emoji" font-size="37.64150943396226px" fill="#343a40" text-anchor="start" style="white-space: pre;" direction="ltr" dominant-baseline="text-before-edge">Pod</text></g><g transform="translate(63.773584905660414 164.5990566037736) rotate(0 85.50833129882812 23.52594339622641)"><text x="0" y="0" font-family="Virgil, Segoe UI Emoji" font-size="37.64150943396226px" fill="#343a40" text-anchor="start" style="white-space: pre;" direction="ltr" dominant-baseline="text-before-edge">Container</text></g><g transform="translate(86.62735849056605 299.0330188679245) rotate(0 57.78333282470703 23.525943396226424)"><text x="0" y="0" font-family="Virgil, Segoe UI Emoji" font-size="37.64150943396226px" fill="#343a40" text-anchor="start" style="white-space: pre;" direction="ltr" dominant-baseline="text-before-edge">Volume</text></g><g stroke-linecap="round"><g transform="translate(163.2547169811321 280.2122641509434) rotate(0 -0.4998441002476284 -13.547219506842694)"><path d="M-1.1 -0.07 C0.25 -9.02, -1.43 -12.71, -0.52 -25.88 M-0.86 -0.19 C-0.69 -7.04, 0.75 -15.9, -0.24 -27.02" stroke="#343a40" stroke-width="2" fill="none"></path></g></g><mask></mask><g stroke-linecap="round" transform="translate(404 281.0377358490566) rotate(0 177.5 46.5)"><path d="M0 0 C0 0, 0 0, 0 0 M0 0 C0 0, 0 0, 0 0 M1.08 13.46 C4.95 8.83, 6.51 2.76, 12.09 -0.25 M0.76 12.6 C2.55 10.3, 4.1 7.49, 10.4 0.72 M-1.19 22.7 C6.45 18.34, 8.64 12.21, 23.07 -2 M0.82 23.61 C6.45 14.83, 13.66 6.83, 22 0.46 M-1.82 35.69 C10.81 26.15, 21.36 11.55, 31.69 0.61 M0.12 37.8 C6.78 29.43, 12.29 21.69, 32.03 -0.25 M-0.93 48.39 C8.16 40.78, 16 29.46, 40.78 -2.08 M-0.18 49.63 C15.87 31.35, 30.91 13.19, 43.06 0.73 M0.41 62.59 C13.15 47, 22.67 33.02, 52.63 -1.34 M-0.02 61.89 C16.68 42.64, 33.41 22.64, 52.93 -1.15 M-0.91 72.16 C21.95 48.05, 45.66 19.28, 63.4 0.84 M-0.25 72.8 C14.25 57.15, 28.88 41.13, 63.13 0.03 M-0.62 86.75 C14.49 67.98, 30.06 48.39, 75.15 0.73 M1.21 85.86 C22.24 60.31, 44.66 34.92, 74.33 0.72 M2.93 94.51 C24.8 68.43, 46.58 45.31, 85.98 -0.28 M2.8 95.55 C29.99 62.61, 56.45 31.08, 84.79 -1.05 M13.49 93.92 C43.47 61.78, 72.75 24.45, 94.01 1.33 M12.4 95.41 C32.16 72.13, 52.6 49.1, 95.85 0.33 M25.28 93.45 C40.88 72.91, 58.16 53.26, 107.49 -1.91 M23.17 94.65 C44.4 72.86, 62.86 49.66, 106.41 -0.93 M32.65 95.28 C60.91 60.1, 91.78 28.12, 116.21 1.3 M33.56 94.07 C65 58.59, 97.19 22.9, 115.72 0.83 M45.65 94.07 C68.99 66.13, 93.86 38.97, 128.15 0.85 M44.3 93.85 C73.2 61.67, 100.43 30.59, 126.5 0.65 M56.07 95.9 C89.33 57.55, 118.05 22.24, 137.65 -1.19 M54.88 94.61 C79.15 66.15, 104.3 36.43, 138.44 -0.42 M65.5 95.19 C84.53 70.27, 102.05 50.43, 150.05 1.22 M66.96 95.43 C98.58 56.36, 128.72 21.06, 147.34 0.65 M74.75 94.4 C106.76 62.65, 136.21 26.28, 157.15 -0.11 M76.24 95.67 C106.53 62.47, 134.32 28.63, 157.86 -0.33 M86.52 93.96 C120.18 58.65, 150.78 21.25, 171.21 -0.72 M86.53 95.93 C118.84 60.69, 147.84 25.26, 170.04 0.24 M95.56 95.72 C118.83 71.83, 135.57 49, 181.09 1.43 M98.27 95.62 C128.24 59.27, 157.42 24.22, 180.76 -0.15 M107.29 96.88 C137.32 63.27, 164.07 29.39, 190.23 0.93 M108.67 96.02 C126.53 73.62, 143.49 54, 190.17 0.8 M119.3 93.65 C137.33 74.55, 158.4 50.46, 200.78 1.87 M119.45 96.02 C136.23 75.91, 153.26 54.82, 201.21 0.35 M129.33 94.27 C156.34 65.11, 180.32 39.2, 211.6 0.71 M128.38 96.14 C154.35 65.37, 181.63 35.63, 212.07 -0.34 M141.36 93.84 C165.74 65.36, 187.08 38.8, 222.4 -0.72 M139.7 95.62 C159.06 74.53, 177.36 53.55, 221.61 -0.14 M149.7 95.33 C178.37 62.84, 207.57 29.32, 231.72 -0.3 M149.6 94.4 C180.67 58.2, 214.01 22.53, 233.9 -0.92 M161 96.5 C192.3 60.86, 222.14 22.37, 245.07 1.31 M160.72 94.16 C188.91 65.32, 213.92 35.48, 243.63 0.49 M170.38 94.83 C196.91 64.78, 223.02 37.99, 252.91 -0.39 M171.57 94.36 C204.8 58.28, 238.12 21.19, 254.61 -0.69 M183.42 94.46 C214.91 57.82, 247.04 17.39, 266.8 -0.8 M183.04 95.29 C210.21 61.22, 239.21 27.93, 265.24 0.85 M192.27 95.14 C218.94 65.14, 247.44 35.76, 277.38 0.73 M193.83 94.05 C214.89 67.87, 238.26 42.9, 274.96 -0.47 M201.7 95.15 C226.36 65.38, 249.5 38.63, 286.5 1.8 M202.96 95.64 C230.41 63.42, 257.2 33.37, 285.72 -1.04 M213.16 96.23 C237.93 66.81, 264.92 39.79, 297.24 -0.05 M215.2 94.94 C244.66 60.16, 275.59 25.03, 296.48 -1.11 M226.84 94.56 C250.17 66.14, 274.3 35.97, 306 1.54 M225.59 95.79 C257.94 57.2, 291.21 20.84, 306.63 -0.69 M233.75 93.66 C253.99 75.23, 271.74 51.22, 316.54 0.75 M234.83 94.96 C268.7 56.8, 300.55 19.15, 318.51 -0.54 M245.75 95.32 C273.74 62.5, 302.45 31.28, 328.04 0.45 M245.83 95.26 C266.97 71.85, 287.31 49.32, 328.84 -0.15 M255.64 96.57 C281.07 67.46, 303.91 42.74, 341.19 -0.81 M257.14 95.5 C281.01 66.42, 305.76 35.98, 339.2 -0.7 M267.22 96.61 C283.95 73.48, 303.49 54.92, 349.59 0.89 M267.4 95.54 C293.63 66.55, 319.34 37.32, 348.85 -0.27 M279.34 93.72 C301.75 69.04, 325.79 43.82, 358.43 0.98 M278.85 94.37 C308.02 59.46, 340.29 23.93, 357.86 2.43 M287.98 96.23 C313.81 63.7, 339.8 36.95, 358.04 14.92 M287.77 95.07 C315.2 64.92, 340.66 33.59, 357.98 15.63 M298.28 95.44 C316.19 75.45, 333.04 54.61, 359.59 28.23 M299.98 94.89 C323.58 68.01, 345.71 41.65, 356.81 26.66 M309.99 97.31 C320.73 85.63, 328.34 72.68, 357.47 38.32 M308.6 94.99 C326.88 73.86, 344.99 53.52, 357.59 38.83 M320.12 96.41 C327.28 85.16, 335.95 77.58, 360.01 52.16 M320.2 95.53 C327.44 85.06, 336.86 76.12, 358.27 51.25 M329.1 95.34 C339.04 84.76, 349.37 75.52, 360.08 64.18 M331.28 95.13 C340.62 84.09, 350.23 72.46, 357.59 63.78 M339.41 94.67 C347.97 88.88, 350.01 83.07, 356.58 75.97 M340.43 95.98 C346.77 87.61, 353.81 80.51, 358.9 74.83 M352.4 95.84 C352.85 93.3, 354.99 91.66, 357.78 89.12 M351.95 95.35 C354.19 92.69, 356.58 89.69, 357.42 88.3" stroke="#868e96" stroke-width="1" fill="none"></path><path d="M1 0.41 C84.41 -1.89, 165.5 -0.05, 354.94 -0.28 M0.55 -0.17 C103.44 -0.51, 208.56 -0.33, 354.75 0.56 M353.23 -1.89 C356.18 38.37, 354.02 73.04, 353.14 92.52 M355.3 -0.98 C354.1 28.07, 353.77 56.44, 355.77 93.17 M353.84 92.51 C219.33 90.49, 84.7 90.44, -0.69 93.18 M355.41 92.58 C248.54 92.27, 141.35 92.48, 0.55 92.52 M0.52 94.64 C2.18 69.32, -1.21 48.45, -1.38 -1.43 M-0.32 92.13 C1.24 62.99, 1.54 31.61, 0.5 -0.75" stroke="#343a40" stroke-width="2" fill="none"></path></g><g transform="translate(420.3666687011719 310.0377358490566) rotate(0 162.3249969482422 17.5)"><text x="162.3249969482422" y="0" font-family="Virgil, Segoe UI Emoji" font-size="28px" fill="#343a40" text-anchor="middle" style="white-space: pre;" direction="ltr" dominant-baseline="text-before-edge">Persistent Volume Claim</text></g><g stroke-linecap="round"><g transform="translate(282.2122641509436 327.1664275484096) rotate(0 58.86059892009757 0.20174350729212165)"><path d="M1.9 0.9 C29.01 -2.13, 54.34 1.13, 117.39 0.09 M0.33 -0.49 C38.91 0.03, 76.63 -0.02, 116.67 0.21" stroke="#343a40" stroke-width="2" fill="none"></path></g><g transform="translate(282.2122641509436 327.1664275484096) rotate(0 58.86059892009757 0.20174350729212165)"><path d="M90.33 11.24 C97.04 6.35, 101.9 7.29, 117.41 0.41 M88.77 9.86 C98.38 6.87, 107.16 3.53, 116.69 0.53" stroke="#343a40" stroke-width="2" fill="none"></path></g><g transform="translate(282.2122641509436 327.1664275484096) rotate(0 58.86059892009757 0.20174350729212165)"><path d="M90.42 -9.28 C96.94 -9.42, 101.77 -3.73, 117.41 0.41 M88.86 -10.67 C98.5 -6.94, 107.24 -3.56, 116.69 0.53" stroke="#343a40" stroke-width="2" fill="none"></path></g></g><mask></mask><g stroke-linecap="round" transform="translate(867 276.0377358490566) rotate(0 114.5 45.5)"><path d="M0 0 C0 0, 0 0, 0 0 M0 0 C0 0, 0 0, 0 0 M-0.5 13.26 C2.27 9.08, 6.86 6.37, 11 -0.86 M0.23 11.89 C4.71 7.31, 8.81 3.18, 10.79 0.55 M1.47 25.14 C5.31 15.2, 14.06 11.39, 22.91 1.53 M-0.7 24.41 C8.74 14.25, 15.89 5.98, 21.09 -0.88 M-0.03 36.35 C7.75 30.08, 13.69 20.31, 29.92 0.83 M0.33 37.04 C10.01 25.58, 19.89 14.47, 31.07 -0.99 M-1.46 47.82 C13.12 35.49, 25.77 20.37, 43.26 1.62 M0.7 48.71 C16.38 31.12, 32.4 12.18, 42.4 -0.72 M-0.25 60.74 C14.98 43.47, 32.87 24.98, 53.51 1.41 M-0.05 60.66 C21.09 37.35, 40.2 15.25, 53.11 0.13 M-0.2 74.75 C15.72 57.96, 29.22 39.23, 64.72 1.37 M-0.06 73.38 C16.85 52.1, 34.35 33.14, 64.11 0.08 M1.84 83.67 C28.5 53.92, 57.16 21.43, 74.51 -0.71 M0.63 84.45 C25.24 56.87, 51.7 26.73, 74.62 -0.04 M2.74 93.4 C18.78 73.88, 37.7 54.73, 84.11 0.46 M2.21 93.5 C27.35 65.25, 53.68 36.29, 84.67 0 M15.08 92.86 C39.62 61.34, 68 29.37, 94.45 -1.32 M13.51 93.26 C41.07 59.65, 70.9 28.12, 96.56 -0.16 M23.51 93.02 C50.5 64.22, 74.73 35.47, 108.19 -0.85 M23.79 93.73 C54.35 58.22, 85.44 22.16, 105.32 -0.48 M35.82 93.72 C54.65 71.74, 73.55 52.37, 117.13 0.16 M34.13 93.02 C55.92 69.79, 78.67 45.5, 115.52 0.32 M47.08 93.65 C69.19 66.79, 91.86 36.14, 126.94 1.04 M45.11 94.46 C71.8 64.74, 97.15 34.3, 126.41 0.77 M57.74 93.29 C80.05 66.41, 103.4 40.65, 137.22 -0.4 M55.21 93.62 C82.89 63.23, 110.82 30.71, 137.38 1.17 M65.68 95.83 C91.66 66.52, 113.7 39.91, 146.25 0.07 M66.3 94.37 C83.11 73.4, 100.12 54.45, 149.1 -0.38 M76.26 94.14 C105.43 64.36, 131.44 31.31, 158.33 -1.23 M78.13 93.86 C101.35 67.16, 125.43 39.53, 158.32 0.83 M86.43 95.68 C112.62 64.7, 139.21 31.35, 169.92 -0.95 M87.77 94.61 C113.2 65.8, 136.69 38.15, 170.34 1.12 M98.73 93.44 C126.09 60.17, 155.13 28.27, 181.62 0.24 M98.08 93.49 C121.75 66.26, 146.59 39.44, 180.49 0.48 M109.39 94.91 C141.69 59.48, 171.86 22.57, 192.32 0.6 M109.22 93.78 C127.68 71.29, 147.52 49.79, 190.56 -0.45 M118.39 92.96 C146.86 64.77, 170.78 35.37, 203.17 -1.79 M119.05 94.2 C147.56 60.62, 175.38 28.63, 200.33 -0.28 M129.51 94.83 C159.04 60.59, 190.87 25.51, 211.73 1.96 M130.66 92.93 C151.26 70.22, 171.24 47.27, 211.98 0.11 M140.39 93.05 C155.61 74.88, 175.14 56.45, 223.96 0.45 M140.81 92.66 C166.06 65.11, 190.49 36.74, 221.59 -0.37 M150.63 94.35 C173.93 68.81, 197.6 40.01, 230.36 3.22 M151.4 94.58 C168.27 74.36, 185.35 57.02, 231.64 2.25 M163.8 94.65 C186.02 68.98, 204.64 43.8, 231.41 12.67 M161.94 93.46 C182.12 70.62, 203.27 47.34, 231.83 14.07 M171.53 91.95 C192.73 72.92, 211.02 53.14, 231.26 24.41 M173.03 93.67 C191.28 72.53, 208.58 50.15, 231.28 25.7 M183.57 93.31 C201.63 72.39, 220.83 51.9, 230.25 39.31 M182.81 94.18 C192.99 82.3, 204.45 70.61, 232.33 37.48 M195.21 92.49 C207.83 77.32, 219.08 61.91, 230.78 49.41 M193.79 93.38 C202.75 83.6, 211.25 74.46, 230.9 51.42 M203.93 93.91 C212.84 85.75, 222.14 77.02, 232.05 63.86 M203.93 95.08 C213.17 85.89, 219.4 75.79, 230.59 62.24 M213.57 94.13 C219.02 90.1, 222.49 85.88, 232.14 76.33 M214.19 95.06 C219.94 88.34, 227.41 81.24, 231.2 74.92 M226.22 93.91 C227.74 91.39, 228.76 88.83, 231.16 87.15 M225.6 93.65 C227.76 92.04, 229.61 89.43, 231.21 87.49" stroke="#868e96" stroke-width="1" fill="none"></path><path d="M-1.26 -1.7 C46.69 -0.65, 94.74 -1.1, 229.96 1.16 M-0.85 0.14 C51.95 -2.28, 102.59 -1.64, 229.67 -0.32 M229.95 0.86 C229.94 31.36, 227.38 64.82, 230.61 91.56 M228.97 -0.45 C228.27 20.25, 228.87 39.28, 228.5 91.05 M228.47 92.17 C169.75 93.23, 111.51 92.97, 0.78 91.5 M229.52 91.61 C164.29 92.3, 100.91 92.87, -0.66 91.35 M-1.22 89.32 C0.7 65.22, -1.57 41, 1.93 0.65 M-0.89 90.64 C-0.74 64.32, -0.01 35.15, -0.34 -0.3" stroke="#343a40" stroke-width="2" fill="none"></path></g><g stroke-linecap="round" transform="translate(401 132.03773584905662) rotate(0 179 42)"><path d="M0 0 C0 0, 0 0, 0 0 M0 0 C0 0, 0 0, 0 0 M-0.59 11.47 C1.5 8.5, 4.71 4.42, 10.43 0.68 M0.9 11.99 C3.43 8.56, 5.85 5.04, 9.86 -0.67 M0.44 25.69 C3.31 18.98, 9.08 15.68, 23.08 1.46 M-0.39 23.38 C6.27 17.37, 12.45 9.48, 20.31 -0.51 M-2.01 35.46 C10.22 24.71, 22.32 10.98, 32.86 1.45 M-0.02 37.39 C8.16 26.57, 17.31 16.23, 32.45 -1.08 M-0.18 47.7 C11.68 36.88, 23.55 20.59, 42.14 -1.28 M-1.01 49.54 C15.86 29.22, 32.98 10.73, 42.42 -0.65 M-1.68 62.64 C20.73 38.39, 38.02 17.23, 54.15 -1.35 M0.36 60.29 C16.23 40.56, 33.16 22.23, 52.76 0.51 M1.87 72.76 C18.19 51.77, 39.03 29.93, 63.94 -1.85 M-0.55 72.45 C25.99 43.02, 50.81 14.63, 63.29 -0.51 M1.81 82.86 C29.99 54.37, 57.27 19.15, 75.28 -0.22 M0.26 84.66 C23.37 60.37, 43.34 35.39, 75.06 -0.86 M13.23 83.03 C33.28 62.04, 54.28 39.11, 83.58 -0.22 M11.36 84.79 C38.35 53.51, 63.29 22.73, 85.46 -0.39 M22.35 84.42 C45.09 57.36, 68.2 31.24, 96.86 -1.89 M21.35 85.12 C42.38 60.45, 61.29 39.6, 96.22 -1.22 M31.68 84.88 C56.26 54.43, 85.44 24.47, 106.7 -1.43 M33.09 84.36 C59.08 55.06, 85.3 23.7, 106.44 -0.28 M43.73 85.29 C59.08 65.75, 73.87 47.88, 116.46 -0.46 M43.56 85.4 C64.05 62.02, 83.35 39.27, 115.96 -0.04 M54.02 84.15 C66 67.08, 82.73 52.4, 126.91 -0.88 M53.9 84.32 C77.82 56.2, 102.16 26.37, 127.02 -0.12 M64.65 86.68 C94.68 51.34, 123.55 15.79, 137.2 1.62 M63.1 84.84 C89.67 53.92, 115.58 23.8, 138.37 -0.24 M76.55 83.54 C97.61 59.56, 118.44 36.32, 146.39 -1.31 M75.37 85.56 C90.24 65.04, 106.8 48.2, 148.92 0.18 M84.44 82.99 C107.65 56.42, 133.13 31, 157.82 0.07 M85.16 85.37 C106.38 60.52, 127.56 35.48, 159.07 -0.7 M97.78 84.88 C125.1 51.34, 152.09 21.22, 169.93 1.7 M95.2 84.01 C111.28 66.24, 126.48 49.17, 169.83 0.27 M107.67 84.76 C121.71 67.18, 138.18 49.39, 181.31 -0.25 M107.53 85.45 C127.84 60.34, 148.45 34.91, 180.76 -0.25 M115.83 83.92 C143.97 48.98, 172.24 17.35, 189.56 -1.28 M117.53 84.41 C139.38 59.92, 161.55 33.56, 191.07 -0.66 M129.51 85.45 C157.14 50.02, 187.16 18.27, 200.27 1.46 M126.96 83.82 C147.86 61.16, 169.2 37.3, 201.61 0.08 M138.42 84.31 C151.74 67.92, 166.77 51.73, 213.93 1.24 M137.97 85.29 C162.83 54.62, 188.83 26.75, 211.91 -0.11 M149.71 83.4 C169.8 62.15, 190.34 38.97, 222.88 -0.14 M148.15 84.55 C167.79 64.52, 183.97 45.63, 222.23 0.05 M160.86 83.61 C177.78 65.11, 196.19 41.56, 234.26 -0.35 M160.56 83.96 C188.26 50.81, 216.21 19.33, 232.56 0.69 M170.64 83.88 C196.33 57.94, 220.57 28.64, 242.92 1.56 M170.75 83.97 C188.06 64.35, 207.06 42.79, 244.68 -0.78 M180.05 83.29 C198.03 63.65, 216.77 40.75, 254.38 1.23 M180.81 83.57 C206.15 54.43, 232.09 26.06, 255.18 -0.16 M191.24 85.07 C206.68 68.7, 222.18 48.61, 265.76 -0.95 M192.37 83.75 C210.41 63.77, 227.02 43.78, 265.5 -0.05 M200.48 82.71 C227.75 51.99, 258.16 22.14, 276.7 0.2 M202.68 84.01 C227.63 55.87, 252.22 25.46, 274.92 -0.3 M213.06 84.02 C235.8 57.68, 263.66 27.7, 286.35 0.73 M213.58 83.81 C232.26 60.32, 253.15 37.52, 286.65 0.4 M224.25 85.16 C240.67 64.89, 256.39 50.56, 296.24 -0.36 M223.58 85.02 C249.7 54.91, 274.86 26.09, 296.83 -0.03 M234.23 82.74 C259.32 52.65, 288.32 22.49, 307.27 0.91 M234.88 83.41 C252.35 63.66, 271.04 43.96, 308.56 -0.5 M245.03 83.83 C276.24 50.7, 303.36 15.27, 318.6 1.58 M245.39 85.11 C267.28 56.23, 292.23 29.64, 318.95 0.62 M255.48 86.09 C278.81 55.56, 303.19 29.09, 328.66 -2.19 M255.75 84.07 C280.11 56.52, 306.69 26.78, 329.12 0.02 M265.45 84.54 C286.22 62.74, 304.55 39.61, 337.99 0.93 M264.75 85.33 C288.8 59.02, 311.58 33.84, 339.26 -1.09 M277.48 84.63 C294.6 63.05, 311.01 45.96, 349.6 0.3 M276.95 85.39 C292.24 66.35, 308.97 47.06, 350 0.25 M285.7 84.8 C307.82 60.33, 330.88 31.91, 357.87 1.04 M286.76 85.29 C311.89 56.78, 334.38 28.13, 359.39 1.93 M297.45 85.56 C320.37 61.03, 342.98 35.53, 357.61 11.73 M298.16 84.99 C313.25 65.43, 330.76 46.87, 359.14 12.85 M309.57 84.26 C327.73 63.34, 345.84 42.58, 360.61 26.5 M307.99 84.65 C323.81 67.92, 338.04 50.5, 359.19 26.42 M319.26 83.22 C328.08 71.58, 340.91 62.3, 357.61 38.04 M319.05 84.05 C330.32 72.05, 340.32 61.47, 358.8 37.96 M329.12 83.73 C340.54 72.94, 352.81 59.33, 359.19 50.82 M330.11 85.1 C337.39 75.62, 344.38 67.08, 359.52 49.4 M338.01 86.14 C346.01 74.93, 354.92 69.13, 359.29 60.23 M338.91 85.29 C347.13 77.2, 353.79 68.1, 359.81 62.69 M350.14 84.14 C353.93 81.27, 357.76 76.6, 360.94 73.53 M350.3 84.3 C352.26 82.91, 354.72 79.57, 359.52 74.08" stroke="#868e96" stroke-width="1" fill="none"></path><path d="M-0.46 0.9 C96.48 1.88, 192.17 0.28, 357.41 -0.22 M-0.3 -0.1 C139 -1.25, 277.21 -1.59, 358.59 -0.13 M358.04 0.56 C358.42 28.97, 359.26 56.45, 357.6 85.57 M358.57 0.1 C358.16 19.22, 358.56 38.43, 357.09 84.36 M358.01 83.6 C272.02 85.38, 184.39 84.72, -0.55 83.81 M357.87 84.11 C262.08 83.63, 166.8 83.82, 0.14 83.48 M1.83 84.68 C-0.54 64.11, 0.95 42.99, 1.91 1.41 M-0.55 83.92 C0.14 63.21, 1.29 44.26, 0.06 -0.15" stroke="#343a40" stroke-width="2" fill="none"></path></g><g transform="translate(879.5500030517578 306.0377358490566) rotate(0 98.44999694824219 17.5)"><text x="98.44999694824219" y="0" font-family="Virgil, Segoe UI Emoji" font-size="28px" fill="#343a40" text-anchor="middle" style="white-space: pre;" direction="ltr" dominant-baseline="text-before-edge">Storage Class</text></g><g stroke-linecap="round"><g transform="translate(975.8909341139711 273.03773584905673) rotate(0 -104.58060740132191 -50.07695854268974)"><path d="M-0.17 0.52 C-1.19 -25.22, 2.33 -48.35, 0.42 -100.68 M-0.68 -0.04 C-0.84 -30.21, -0.11 -60.66, 0.87 -100.62 M0.94 -99.93 C-56.55 -100.5, -113.61 -98.84, -210.16 -98.95 M0.71 -99.35 C-80.16 -99.83, -160.22 -99.56, -209.82 -98.52" stroke="#343a40" stroke-width="2" fill="none"></path></g><g transform="translate(975.8909341139711 273.03773584905673) rotate(0 -104.58060740132191 -50.07695854268974)"><path d="M-181.94 -108.65 C-190.34 -107.98, -193.54 -104.71, -209.51 -99.2 M-182.45 -109.22 C-190.11 -105.94, -197.93 -102.76, -209.06 -99.14" stroke="#343a40" stroke-width="2" fill="none"></path></g><g transform="translate(975.8909341139711 273.03773584905673) rotate(0 -104.58060740132191 -50.07695854268974)"><path d="M-181.66 -88.13 C-190 -92.36, -193.27 -93.98, -209.51 -99.2 M-182.17 -88.7 C-190.11 -91.65, -198.01 -94.71, -209.06 -99.14" stroke="#343a40" stroke-width="2" fill="none"></path></g></g><mask></mask><g stroke-linecap="round"><g transform="translate(760 325.8728241533638) rotate(0 49.87325939256698 -0.3679656888556053)"><path d="M1.7 -1.23 C23.48 -0.58, 49.17 -0.04, 98.19 -1.03 M-0.34 0.04 C39.39 -0.64, 76.19 0.05, 100.09 0.49" stroke="#343a40" stroke-width="2" fill="none"></path></g><g transform="translate(760 325.8728241533638) rotate(0 49.87325939256698 -0.3679656888556053)"><path d="M73.42 9.04 C77.55 7.72, 85.57 5.77, 98.28 -0.86 M71.39 10.31 C83.62 5.86, 92.88 2.67, 100.17 0.66" stroke="#343a40" stroke-width="2" fill="none"></path></g><g transform="translate(760 325.8728241533638) rotate(0 49.87325939256698 -0.3679656888556053)"><path d="M73.77 -11.47 C77.78 -7.74, 85.71 -4.63, 98.28 -0.86 M71.73 -10.21 C83.77 -6.77, 92.9 -2.08, 100.17 0.66" stroke="#343a40" stroke-width="2" fill="none"></path></g></g><mask></mask><g stroke-linecap="round"><g transform="translate(573 278.0377358490566) rotate(0 0 -29.5)"><path d="M0 0 C0 -19.44, 0 -38.88, 0 -59 M0 0 C0 -22.36, 0 -44.72, 0 -59" stroke="#343a40" stroke-width="4" fill="none"></path></g></g><mask></mask><g transform="translate(453.6416702270508 158.03773584905662) rotate(0 121.35832977294922 17.5)"><text x="121.35832977294922" y="0" font-family="Virgil, Segoe UI Emoji" font-size="28px" fill="#343a40" text-anchor="middle" style="white-space: pre;" direction="ltr" dominant-baseline="text-before-edge">Persistent Volume</text></g><g transform="translate(764.966667175293 287.0377358490566) rotate(0 42.891666412353516 12.5)"><text x="0" y="0" font-family="Virgil, Segoe UI Emoji" font-size="20px" fill="#343a40" text-anchor="start" style="white-space: pre;" direction="ltr" dominant-baseline="text-before-edge">requests</text></g><g transform="translate(584 235.53773584905662) rotate(0 26.66666603088379 12.5)"><text x="0" y="0" font-family="Virgil, Segoe UI Emoji" font-size="20px" fill="#343a40" text-anchor="start" style="white-space: pre;" direction="ltr" dominant-baseline="text-before-edge">bound</text></g><g transform="translate(822 137.03773584905662) rotate(0 95.94166564941406 12.5)"><text x="0" y="0" font-family="Virgil, Segoe UI Emoji" font-size="20px" fill="#343a40" text-anchor="start" style="white-space: pre;" direction="ltr" dominant-baseline="text-before-edge">Dynamic Provisioning</text></g><g transform="translate(307 297.0377358490566) rotate(0 28.41666603088379 12.5)"><text x="0" y="0" font-family="Virgil, Segoe UI Emoji" font-size="20px" fill="#343a40" text-anchor="start" style="white-space: pre;" direction="ltr" dominant-baseline="text-before-edge">points</text></g></svg>